<svg width="508" height="508" viewBox="0 0 508 508" fill="none" xmlns="http://www.w3.org/2000/svg">
<g filter="url(#filter0_d_257_216)">
<rect x="4" width="500" height="500" rx="10" fill="white"/>
</g>
<path d="M254 154C231.91 154 214 171.91 214 194C214 216.09 231.91 234 254 234C276.09 234 294 216.09 294 194C294 171.91 276.09 154 254 154ZM254 210.035L227.23 183.27L230.765 179.735L254 202.965L277.23 179.735L280.765 183.27L254 210.035Z" fill="#252775"/>
<path d="M126.104 306V296.229H123.746V294.296H126.104V284.525H133.517C135.177 284.525 136.446 284.628 137.325 284.833C138.556 285.116 139.605 285.629 140.475 286.371C141.607 287.328 142.452 288.554 143.009 290.048C143.575 291.532 143.858 293.231 143.858 295.146C143.858 297.333 143.512 299.218 142.818 300.8C142.125 302.372 141.295 303.515 140.328 304.228C139.361 304.94 138.248 305.448 136.988 305.751C136.295 305.917 135.25 306 133.854 306H126.104ZM128.946 303.466H133.531C134.957 303.466 136.07 303.334 136.871 303.07C137.672 302.807 138.307 302.44 138.775 301.972C139.449 301.298 139.977 300.395 140.357 299.262C140.738 298.129 140.929 296.747 140.929 295.116C140.929 293.437 140.738 292.094 140.357 291.088C139.986 290.082 139.498 289.276 138.893 288.671C138.287 288.065 137.613 287.646 136.871 287.411C136.129 287.177 134.991 287.06 133.458 287.06H128.946V294.296H134.864V296.229H128.946V303.466ZM157.599 304.081C156.622 304.911 155.68 305.497 154.771 305.839C153.873 306.181 152.906 306.352 151.871 306.352C150.162 306.352 148.849 305.937 147.931 305.106C147.013 304.267 146.554 303.197 146.554 301.898C146.554 301.137 146.725 300.443 147.066 299.818C147.418 299.184 147.872 298.676 148.429 298.295C148.995 297.914 149.63 297.626 150.333 297.431C150.851 297.294 151.632 297.162 152.677 297.035C154.806 296.781 156.373 296.479 157.379 296.127C157.389 295.766 157.394 295.536 157.394 295.438C157.394 294.364 157.145 293.607 156.646 293.168C155.973 292.572 154.972 292.274 153.644 292.274C152.403 292.274 151.485 292.494 150.89 292.934C150.304 293.363 149.869 294.13 149.586 295.233L147.008 294.882C147.242 293.778 147.628 292.89 148.165 292.216C148.702 291.532 149.479 291.01 150.494 290.648C151.51 290.277 152.687 290.092 154.024 290.092C155.353 290.092 156.432 290.248 157.262 290.561C158.092 290.873 158.702 291.269 159.093 291.747C159.483 292.216 159.757 292.812 159.913 293.534C160.001 293.983 160.045 294.794 160.045 295.966V299.481C160.045 301.933 160.099 303.485 160.206 304.14C160.323 304.784 160.548 305.404 160.88 306H158.126C157.853 305.453 157.677 304.813 157.599 304.081ZM157.379 298.192C156.422 298.583 154.986 298.915 153.072 299.188C151.988 299.345 151.222 299.521 150.772 299.716C150.323 299.911 149.977 300.199 149.732 300.58C149.488 300.951 149.366 301.366 149.366 301.825C149.366 302.528 149.63 303.114 150.157 303.583C150.694 304.052 151.476 304.286 152.501 304.286C153.517 304.286 154.42 304.066 155.211 303.627C156.002 303.178 156.583 302.567 156.954 301.796C157.237 301.2 157.379 300.321 157.379 299.159V298.192ZM156.588 284.555H158.39C158.243 285.775 157.794 286.713 157.042 287.367C156.3 288.021 155.309 288.349 154.068 288.349C152.818 288.349 151.817 288.026 151.065 287.382C150.323 286.728 149.879 285.785 149.732 284.555H151.534C151.671 285.219 151.939 285.717 152.34 286.049C152.75 286.371 153.297 286.532 153.98 286.532C154.771 286.532 155.367 286.376 155.768 286.063C156.178 285.741 156.451 285.238 156.588 284.555ZM164.146 306V290.443H166.52V292.655C167.662 290.946 169.312 290.092 171.471 290.092C172.408 290.092 173.268 290.263 174.049 290.604C174.84 290.937 175.431 291.376 175.821 291.923C176.212 292.47 176.485 293.119 176.642 293.871C176.739 294.359 176.788 295.214 176.788 296.435V306H174.151V296.537C174.151 295.463 174.049 294.662 173.844 294.135C173.639 293.598 173.272 293.173 172.745 292.86C172.228 292.538 171.617 292.377 170.914 292.377C169.791 292.377 168.819 292.733 167.999 293.446C167.188 294.159 166.783 295.512 166.783 297.504V306H164.146ZM180.362 307.289L182.926 307.67C183.033 308.461 183.331 309.037 183.819 309.398C184.474 309.887 185.367 310.131 186.5 310.131C187.721 310.131 188.663 309.887 189.327 309.398C189.991 308.91 190.44 308.227 190.675 307.348C190.812 306.811 190.875 305.683 190.865 303.964C189.713 305.321 188.277 306 186.559 306C184.42 306 182.765 305.229 181.593 303.686C180.421 302.143 179.835 300.292 179.835 298.134C179.835 296.649 180.104 295.282 180.641 294.032C181.178 292.772 181.954 291.801 182.97 291.117C183.995 290.434 185.196 290.092 186.573 290.092C188.409 290.092 189.923 290.834 191.114 292.318V290.443H193.546V303.891C193.546 306.312 193.297 308.026 192.799 309.032C192.311 310.048 191.529 310.849 190.455 311.435C189.391 312.021 188.077 312.313 186.515 312.313C184.659 312.313 183.16 311.894 182.018 311.054C180.875 310.224 180.323 308.969 180.362 307.289ZM182.545 297.943C182.545 299.984 182.95 301.474 183.761 302.411C184.571 303.349 185.587 303.817 186.808 303.817C188.019 303.817 189.034 303.354 189.854 302.426C190.675 301.488 191.085 300.023 191.085 298.031C191.085 296.127 190.66 294.691 189.811 293.725C188.971 292.758 187.955 292.274 186.764 292.274C185.592 292.274 184.596 292.753 183.775 293.71C182.955 294.657 182.545 296.068 182.545 297.943ZM205.909 306V284.525H208.546V296.771L214.786 290.443H218.199L212.252 296.215L218.8 306H215.548L210.406 298.046L208.546 299.833V306H205.909ZM221.817 306V290.443H224.454V306H221.817ZM221.686 288.51L223.634 284.408H227.091L223.868 288.51H221.686ZM243.351 303.642L243.731 305.971C242.989 306.127 242.325 306.205 241.739 306.205C240.782 306.205 240.04 306.054 239.513 305.751C238.985 305.448 238.614 305.053 238.399 304.564C238.185 304.066 238.077 303.026 238.077 301.444V292.494H236.144V290.443H238.077V286.591L240.699 285.009V290.443H243.351V292.494H240.699V301.591C240.699 302.343 240.743 302.826 240.831 303.041C240.929 303.256 241.08 303.427 241.285 303.554C241.5 303.681 241.803 303.744 242.193 303.744C242.486 303.744 242.872 303.71 243.351 303.642ZM245.943 306V284.525H248.58V292.23C249.811 290.805 251.363 290.092 253.238 290.092C254.391 290.092 255.392 290.321 256.241 290.78C257.091 291.229 257.696 291.854 258.058 292.655C258.429 293.456 258.614 294.618 258.614 296.142V306H255.978V296.142C255.978 294.823 255.689 293.866 255.113 293.271C254.547 292.665 253.741 292.362 252.696 292.362C251.915 292.362 251.178 292.567 250.484 292.978C249.801 293.378 249.312 293.925 249.02 294.618C248.727 295.312 248.58 296.269 248.58 297.489V306H245.943ZM272.794 304.081C271.817 304.911 270.875 305.497 269.967 305.839C269.068 306.181 268.102 306.352 267.066 306.352C265.357 306.352 264.044 305.937 263.126 305.106C262.208 304.267 261.749 303.197 261.749 301.898C261.749 301.137 261.92 300.443 262.262 299.818C262.613 299.184 263.067 298.676 263.624 298.295C264.19 297.914 264.825 297.626 265.528 297.431C266.046 297.294 266.827 297.162 267.872 297.035C270.001 296.781 271.568 296.479 272.574 296.127C272.584 295.766 272.589 295.536 272.589 295.438C272.589 294.364 272.34 293.607 271.842 293.168C271.168 292.572 270.167 292.274 268.839 292.274C267.599 292.274 266.681 292.494 266.085 292.934C265.499 293.363 265.064 294.13 264.781 295.233L262.203 294.882C262.438 293.778 262.823 292.89 263.36 292.216C263.897 291.532 264.674 291.01 265.689 290.648C266.705 290.277 267.882 290.092 269.22 290.092C270.548 290.092 271.627 290.248 272.457 290.561C273.287 290.873 273.897 291.269 274.288 291.747C274.679 292.216 274.952 292.812 275.108 293.534C275.196 293.983 275.24 294.794 275.24 295.966V299.481C275.24 301.933 275.294 303.485 275.401 304.14C275.519 304.784 275.743 305.404 276.075 306H273.321C273.048 305.453 272.872 304.813 272.794 304.081ZM272.574 298.192C271.617 298.583 270.182 298.915 268.268 299.188C267.184 299.345 266.417 299.521 265.968 299.716C265.519 299.911 265.172 300.199 264.928 300.58C264.684 300.951 264.562 301.366 264.562 301.825C264.562 302.528 264.825 303.114 265.353 303.583C265.89 304.052 266.671 304.286 267.696 304.286C268.712 304.286 269.615 304.066 270.406 303.627C271.197 303.178 271.778 302.567 272.149 301.796C272.433 301.2 272.574 300.321 272.574 299.159V298.192ZM271.139 288.51H269.015L265.631 284.408H269.161L271.139 288.51ZM279.342 306V290.443H281.715V292.655C282.857 290.946 284.508 290.092 286.666 290.092C287.604 290.092 288.463 290.263 289.244 290.604C290.035 290.937 290.626 291.376 291.017 291.923C291.407 292.47 291.681 293.119 291.837 293.871C291.935 294.359 291.983 295.214 291.983 296.435V306H289.347V296.537C289.347 295.463 289.244 294.662 289.039 294.135C288.834 293.598 288.468 293.173 287.94 292.86C287.423 292.538 286.812 292.377 286.109 292.377C284.986 292.377 284.015 292.733 283.194 293.446C282.384 294.159 281.979 295.512 281.979 297.504V306H279.342ZM296.041 306V284.525H298.678V292.23C299.908 290.805 301.461 290.092 303.336 290.092C304.488 290.092 305.489 290.321 306.339 290.78C307.188 291.229 307.794 291.854 308.155 292.655C308.526 293.456 308.712 294.618 308.712 296.142V306H306.075V296.142C306.075 294.823 305.787 293.866 305.211 293.271C304.645 292.665 303.839 292.362 302.794 292.362C302.013 292.362 301.275 292.567 300.582 292.978C299.898 293.378 299.41 293.925 299.117 294.618C298.824 295.312 298.678 296.269 298.678 297.489V306H296.041ZM331.241 300.302L333.834 300.639C333.551 302.426 332.823 303.827 331.651 304.843C330.489 305.849 329.059 306.352 327.359 306.352C325.23 306.352 323.517 305.658 322.218 304.271C320.929 302.875 320.284 300.878 320.284 298.28C320.284 296.601 320.562 295.131 321.119 293.871C321.676 292.611 322.521 291.669 323.653 291.044C324.796 290.409 326.036 290.092 327.374 290.092C329.063 290.092 330.445 290.521 331.52 291.381C332.594 292.23 333.282 293.441 333.585 295.014L331.021 295.409C330.777 294.364 330.343 293.578 329.718 293.051C329.103 292.523 328.355 292.26 327.477 292.26C326.148 292.26 325.069 292.738 324.239 293.695C323.409 294.643 322.994 296.146 322.994 298.207C322.994 300.297 323.395 301.815 324.195 302.763C324.996 303.71 326.041 304.184 327.33 304.184C328.365 304.184 329.229 303.866 329.923 303.231C330.616 302.597 331.056 301.62 331.241 300.302ZM335.108 298.222C335.108 295.341 335.909 293.207 337.511 291.82C338.849 290.668 340.479 290.092 342.403 290.092C344.542 290.092 346.29 290.795 347.647 292.201C349.005 293.598 349.684 295.531 349.684 298.002C349.684 300.004 349.381 301.581 348.775 302.733C348.18 303.876 347.306 304.765 346.153 305.399C345.011 306.034 343.761 306.352 342.403 306.352C340.226 306.352 338.463 305.653 337.115 304.257C335.777 302.86 335.108 300.849 335.108 298.222ZM337.818 298.222C337.818 300.214 338.253 301.708 339.122 302.704C339.991 303.69 341.085 304.184 342.403 304.184C343.712 304.184 344.801 303.686 345.67 302.689C346.539 301.693 346.974 300.175 346.974 298.134C346.974 296.21 346.534 294.755 345.655 293.769C344.786 292.772 343.702 292.274 342.403 292.274C341.085 292.274 339.991 292.768 339.122 293.754C338.253 294.74 337.818 296.229 337.818 298.222ZM342.433 286.02L340.777 288.51H337.76L340.924 284.408H343.736L347.032 288.51H344.044L342.433 286.02ZM352.789 306V290.443H355.162V292.655C356.305 290.946 357.955 290.092 360.113 290.092C361.051 290.092 361.91 290.263 362.691 290.604C363.482 290.937 364.073 291.376 364.464 291.923C364.854 292.47 365.128 293.119 365.284 293.871C365.382 294.359 365.431 295.214 365.431 296.435V306H362.794V296.537C362.794 295.463 362.691 294.662 362.486 294.135C362.281 293.598 361.915 293.173 361.388 292.86C360.87 292.538 360.26 292.377 359.557 292.377C358.434 292.377 357.462 292.733 356.642 293.446C355.831 294.159 355.426 295.512 355.426 297.504V306H352.789ZM369.005 307.289L371.568 307.67C371.676 308.461 371.974 309.037 372.462 309.398C373.116 309.887 374.01 310.131 375.143 310.131C376.363 310.131 377.306 309.887 377.97 309.398C378.634 308.91 379.083 308.227 379.317 307.348C379.454 306.811 379.518 305.683 379.508 303.964C378.355 305.321 376.92 306 375.201 306C373.062 306 371.407 305.229 370.235 303.686C369.063 302.143 368.478 300.292 368.478 298.134C368.478 296.649 368.746 295.282 369.283 294.032C369.82 292.772 370.597 291.801 371.612 291.117C372.638 290.434 373.839 290.092 375.216 290.092C377.052 290.092 378.565 290.834 379.757 292.318V290.443H382.188V303.891C382.188 306.312 381.939 308.026 381.441 309.032C380.953 310.048 380.172 310.849 379.098 311.435C378.033 312.021 376.72 312.313 375.157 312.313C373.302 312.313 371.803 311.894 370.66 311.054C369.518 310.224 368.966 308.969 369.005 307.289ZM371.188 297.943C371.188 299.984 371.593 301.474 372.403 302.411C373.214 303.349 374.229 303.817 375.45 303.817C376.661 303.817 377.677 303.354 378.497 302.426C379.317 301.488 379.728 300.023 379.728 298.031C379.728 296.127 379.303 294.691 378.453 293.725C377.613 292.758 376.598 292.274 375.406 292.274C374.234 292.274 373.238 292.753 372.418 293.71C371.598 294.657 371.188 296.068 371.188 297.943Z" fill="black"/>
<path d="M36.4194 334V323.263H40.4478C41.2681 323.263 41.9248 323.373 42.418 323.592C42.916 323.807 43.3042 324.142 43.5825 324.596C43.8657 325.045 44.0073 325.516 44.0073 326.009C44.0073 326.468 43.8828 326.9 43.6338 327.306C43.3848 327.711 43.0088 328.038 42.5059 328.287C43.1553 328.478 43.6533 328.802 44 329.261C44.3516 329.72 44.5273 330.262 44.5273 330.887C44.5273 331.39 44.4199 331.859 44.2051 332.293C43.9951 332.723 43.7339 333.055 43.4214 333.29C43.1089 333.524 42.7158 333.702 42.2422 333.824C41.7734 333.941 41.1973 334 40.5137 334H36.4194ZM37.8403 327.774H40.1621C40.792 327.774 41.2437 327.733 41.5171 327.65C41.8784 327.542 42.1494 327.364 42.3301 327.115C42.5156 326.866 42.6084 326.554 42.6084 326.178C42.6084 325.821 42.5229 325.509 42.3521 325.24C42.1812 324.967 41.937 324.781 41.6196 324.684C41.3022 324.581 40.7578 324.53 39.9863 324.53H37.8403V327.774ZM37.8403 332.733H40.5137C40.9727 332.733 41.2949 332.716 41.4805 332.682C41.8076 332.623 42.0811 332.525 42.3008 332.389C42.5205 332.252 42.7012 332.054 42.8428 331.795C42.9844 331.532 43.0552 331.229 43.0552 330.887C43.0552 330.487 42.9526 330.14 42.7476 329.847C42.5425 329.549 42.2568 329.342 41.8906 329.225C41.5293 329.103 41.0068 329.042 40.3232 329.042H37.8403V332.733ZM51.3901 333.041C50.9019 333.456 50.4307 333.749 49.9766 333.919C49.5273 334.09 49.0439 334.176 48.5264 334.176C47.6719 334.176 47.0151 333.968 46.5562 333.553C46.0972 333.133 45.8677 332.599 45.8677 331.949C45.8677 331.568 45.9531 331.222 46.124 330.909C46.2998 330.592 46.5269 330.338 46.8052 330.147C47.0884 329.957 47.4058 329.813 47.7573 329.715C48.0161 329.647 48.4067 329.581 48.9292 329.518C49.9937 329.391 50.7773 329.239 51.2803 329.063C51.2852 328.883 51.2876 328.768 51.2876 328.719C51.2876 328.182 51.1631 327.804 50.9141 327.584C50.5771 327.286 50.0767 327.137 49.4126 327.137C48.7925 327.137 48.3335 327.247 48.0356 327.467C47.7427 327.682 47.5254 328.065 47.3838 328.617L46.0947 328.441C46.2119 327.889 46.4048 327.445 46.6733 327.108C46.9419 326.766 47.3301 326.505 47.8379 326.324C48.3457 326.139 48.9341 326.046 49.603 326.046C50.2671 326.046 50.8066 326.124 51.2217 326.28C51.6367 326.437 51.9419 326.634 52.1372 326.874C52.3325 327.108 52.4692 327.406 52.5474 327.767C52.5913 327.992 52.6133 328.397 52.6133 328.983V330.741C52.6133 331.966 52.6401 332.743 52.6938 333.07C52.7524 333.392 52.8647 333.702 53.0308 334H51.6538C51.5171 333.727 51.4292 333.407 51.3901 333.041ZM51.2803 330.096C50.8018 330.292 50.084 330.458 49.127 330.594C48.585 330.672 48.2017 330.76 47.9771 330.858C47.7524 330.956 47.5791 331.1 47.457 331.29C47.335 331.476 47.2739 331.683 47.2739 331.913C47.2739 332.264 47.4058 332.557 47.6694 332.792C47.938 333.026 48.3286 333.143 48.8413 333.143C49.3491 333.143 49.8008 333.033 50.1963 332.813C50.5918 332.589 50.8823 332.284 51.0679 331.898C51.2095 331.6 51.2803 331.161 51.2803 330.58V330.096ZM48.6802 336.38V334.879H50.1816V336.38H48.6802ZM54.6641 334V326.222H55.8506V327.328C56.4219 326.473 57.2471 326.046 58.3262 326.046C58.7949 326.046 59.2246 326.131 59.6152 326.302C60.0107 326.468 60.3062 326.688 60.5015 326.961C60.6968 327.235 60.8335 327.56 60.9116 327.936C60.9604 328.18 60.9849 328.607 60.9849 329.217V334H59.6665V329.269C59.6665 328.731 59.6152 328.331 59.5127 328.067C59.4102 327.799 59.2271 327.586 58.9634 327.43C58.7046 327.269 58.3994 327.188 58.0479 327.188C57.4863 327.188 57.0005 327.367 56.5903 327.723C56.1851 328.08 55.9824 328.756 55.9824 329.752V334H54.6641ZM69.3491 334L66.3901 326.222H67.7817L69.4517 330.88C69.6323 331.383 69.7983 331.905 69.9497 332.447C70.0669 332.037 70.2305 331.544 70.4404 330.968L72.1689 326.222H73.5239L70.5796 334H69.3491ZM79.7861 334V332.857C79.1807 333.736 78.3579 334.176 77.3179 334.176C76.8589 334.176 76.4292 334.088 76.0288 333.912C75.6333 333.736 75.3379 333.517 75.1426 333.253C74.9521 332.984 74.8179 332.657 74.7397 332.271C74.686 332.013 74.6592 331.603 74.6592 331.041V326.222H75.9775V330.536C75.9775 331.224 76.0044 331.688 76.0581 331.927C76.1411 332.274 76.3169 332.547 76.5854 332.748C76.854 332.943 77.186 333.041 77.5815 333.041C77.9771 333.041 78.3481 332.94 78.6948 332.74C79.0415 332.535 79.2856 332.259 79.4272 331.913C79.5737 331.561 79.647 331.053 79.647 330.389V326.222H80.9653V334H79.7861ZM83.0454 324.779V323.263H84.3638V324.779H83.0454ZM83.0454 334V326.222H84.3638V334H83.0454ZM90.5234 334V323.263H91.8418V334H90.5234ZM93.4019 330.111C93.4019 328.67 93.8022 327.604 94.603 326.91C95.272 326.334 96.0874 326.046 97.0493 326.046C98.1187 326.046 98.9927 326.397 99.6714 327.101C100.35 327.799 100.689 328.766 100.689 330.001C100.689 331.002 100.538 331.791 100.235 332.367C99.9375 332.938 99.5005 333.382 98.9243 333.7C98.353 334.017 97.728 334.176 97.0493 334.176C95.9604 334.176 95.0791 333.827 94.4053 333.128C93.7363 332.43 93.4019 331.424 93.4019 330.111ZM94.7568 330.111C94.7568 331.107 94.9741 331.854 95.4087 332.352C95.8433 332.845 96.3901 333.092 97.0493 333.092C97.7036 333.092 98.248 332.843 98.6826 332.345C99.1172 331.847 99.3345 331.087 99.3345 330.067C99.3345 329.105 99.1147 328.377 98.6753 327.884C98.2407 327.386 97.6987 327.137 97.0493 327.137C96.3901 327.137 95.8433 327.384 95.4087 327.877C94.9741 328.37 94.7568 329.115 94.7568 330.111ZM97.9355 325.255H96.8735L95.1816 323.204H96.9468L97.9355 325.255ZM102.242 334V326.222H103.429V327.328C104 326.473 104.825 326.046 105.904 326.046C106.373 326.046 106.803 326.131 107.193 326.302C107.589 326.468 107.884 326.688 108.08 326.961C108.275 327.235 108.412 327.56 108.49 327.936C108.539 328.18 108.563 328.607 108.563 329.217V334H107.245V329.269C107.245 328.731 107.193 328.331 107.091 328.067C106.988 327.799 106.805 327.586 106.542 327.43C106.283 327.269 105.978 327.188 105.626 327.188C105.064 327.188 104.579 327.367 104.168 327.723C103.763 328.08 103.561 328.756 103.561 329.752V334H102.242ZM110.35 334.645L111.632 334.835C111.686 335.23 111.834 335.519 112.079 335.699C112.406 335.943 112.853 336.065 113.419 336.065C114.029 336.065 114.5 335.943 114.833 335.699C115.165 335.455 115.389 335.113 115.506 334.674C115.575 334.405 115.606 333.841 115.602 332.982C115.025 333.661 114.308 334 113.448 334C112.379 334 111.551 333.614 110.965 332.843C110.379 332.071 110.086 331.146 110.086 330.067C110.086 329.325 110.221 328.641 110.489 328.016C110.758 327.386 111.146 326.9 111.654 326.559C112.167 326.217 112.767 326.046 113.456 326.046C114.374 326.046 115.13 326.417 115.726 327.159V326.222H116.942V332.945C116.942 334.156 116.817 335.013 116.568 335.516C116.324 336.024 115.934 336.424 115.396 336.717C114.864 337.01 114.208 337.157 113.426 337.157C112.499 337.157 111.749 336.947 111.178 336.527C110.606 336.112 110.331 335.484 110.35 334.645ZM111.441 329.972C111.441 330.992 111.644 331.737 112.049 332.206C112.455 332.674 112.962 332.909 113.573 332.909C114.178 332.909 114.686 332.677 115.096 332.213C115.506 331.744 115.711 331.012 115.711 330.016C115.711 329.063 115.499 328.346 115.074 327.862C114.654 327.379 114.146 327.137 113.551 327.137C112.965 327.137 112.467 327.376 112.057 327.855C111.646 328.329 111.441 329.034 111.441 329.972ZM125.995 332.821L126.185 333.985C125.814 334.063 125.482 334.103 125.189 334.103C124.71 334.103 124.339 334.027 124.076 333.875C123.812 333.724 123.626 333.526 123.519 333.282C123.412 333.033 123.358 332.513 123.358 331.722V327.247H122.391V326.222H123.358V324.295L124.669 323.504V326.222H125.995V327.247H124.669V331.795C124.669 332.171 124.691 332.413 124.735 332.521C124.784 332.628 124.859 332.713 124.962 332.777C125.069 332.84 125.221 332.872 125.416 332.872C125.562 332.872 125.755 332.855 125.995 332.821ZM127.276 334V326.222H128.463V327.401C128.766 326.849 129.044 326.485 129.298 326.31C129.557 326.134 129.84 326.046 130.147 326.046C130.592 326.046 131.043 326.188 131.502 326.471L131.048 327.694C130.726 327.503 130.404 327.408 130.082 327.408C129.793 327.408 129.535 327.496 129.305 327.672C129.076 327.843 128.912 328.082 128.814 328.39C128.668 328.858 128.595 329.371 128.595 329.928V334H127.276ZM137.384 334V332.857C136.778 333.736 135.956 334.176 134.916 334.176C134.457 334.176 134.027 334.088 133.626 333.912C133.231 333.736 132.936 333.517 132.74 333.253C132.55 332.984 132.416 332.657 132.337 332.271C132.284 332.013 132.257 331.603 132.257 331.041V326.222H133.575V330.536C133.575 331.224 133.602 331.688 133.656 331.927C133.739 332.274 133.915 332.547 134.183 332.748C134.452 332.943 134.784 333.041 135.179 333.041C135.575 333.041 135.946 332.94 136.292 332.74C136.639 332.535 136.883 332.259 137.025 331.913C137.171 331.561 137.245 331.053 137.245 330.389V326.222H138.563V334H137.384ZM140.577 336.996L140.431 335.758C140.719 335.836 140.97 335.875 141.185 335.875C141.478 335.875 141.712 335.826 141.888 335.729C142.064 335.631 142.208 335.494 142.32 335.318C142.403 335.187 142.538 334.859 142.723 334.337C142.748 334.264 142.787 334.156 142.84 334.015L139.889 326.222H141.31L142.928 330.726C143.138 331.297 143.326 331.898 143.492 332.528C143.644 331.922 143.824 331.332 144.034 330.755L145.697 326.222H147.015L144.056 334.132C143.739 334.986 143.492 335.575 143.316 335.897C143.082 336.332 142.813 336.649 142.511 336.849C142.208 337.054 141.847 337.157 141.427 337.157C141.173 337.157 140.89 337.103 140.577 336.996ZM157.386 331.151L158.683 331.319C158.541 332.213 158.177 332.914 157.591 333.421C157.01 333.924 156.295 334.176 155.445 334.176C154.381 334.176 153.524 333.829 152.875 333.136C152.23 332.438 151.908 331.439 151.908 330.14C151.908 329.3 152.047 328.565 152.325 327.936C152.604 327.306 153.026 326.834 153.592 326.522C154.164 326.205 154.784 326.046 155.453 326.046C156.297 326.046 156.988 326.261 157.525 326.69C158.062 327.115 158.407 327.721 158.558 328.507L157.276 328.705C157.154 328.182 156.937 327.789 156.625 327.525C156.317 327.262 155.943 327.13 155.504 327.13C154.84 327.13 154.3 327.369 153.885 327.848C153.47 328.321 153.263 329.073 153.263 330.104C153.263 331.148 153.463 331.908 153.863 332.381C154.264 332.855 154.786 333.092 155.431 333.092C155.948 333.092 156.38 332.933 156.727 332.616C157.074 332.298 157.293 331.81 157.386 331.151ZM164.886 333.041C164.398 333.456 163.927 333.749 163.473 333.919C163.023 334.09 162.54 334.176 162.022 334.176C161.168 334.176 160.511 333.968 160.052 333.553C159.593 333.133 159.364 332.599 159.364 331.949C159.364 331.568 159.449 331.222 159.62 330.909C159.796 330.592 160.023 330.338 160.301 330.147C160.584 329.957 160.902 329.813 161.253 329.715C161.512 329.647 161.903 329.581 162.425 329.518C163.49 329.391 164.273 329.239 164.776 329.063C164.781 328.883 164.784 328.768 164.784 328.719C164.784 328.182 164.659 327.804 164.41 327.584C164.073 327.286 163.573 327.137 162.909 327.137C162.289 327.137 161.83 327.247 161.532 327.467C161.239 327.682 161.021 328.065 160.88 328.617L159.591 328.441C159.708 327.889 159.901 327.445 160.169 327.108C160.438 326.766 160.826 326.505 161.334 326.324C161.842 326.139 162.43 326.046 163.099 326.046C163.763 326.046 164.303 326.124 164.718 326.28C165.133 326.437 165.438 326.634 165.633 326.874C165.829 327.108 165.965 327.406 166.043 327.767C166.087 327.992 166.109 328.397 166.109 328.983V330.741C166.109 331.966 166.136 332.743 166.19 333.07C166.249 333.392 166.361 333.702 166.527 334H165.15C165.013 333.727 164.925 333.407 164.886 333.041ZM164.776 330.096C164.298 330.292 163.58 330.458 162.623 330.594C162.081 330.672 161.698 330.76 161.473 330.858C161.249 330.956 161.075 331.1 160.953 331.29C160.831 331.476 160.77 331.683 160.77 331.913C160.77 332.264 160.902 332.557 161.166 332.792C161.434 333.026 161.825 333.143 162.337 333.143C162.845 333.143 163.297 333.033 163.692 332.813C164.088 332.589 164.378 332.284 164.564 331.898C164.706 331.6 164.776 331.161 164.776 330.58V330.096ZM162.967 324.01L162.14 325.255H160.631L162.213 323.204H163.619L165.267 325.255H163.773L162.967 324.01ZM162.176 336.38V334.879H163.678V336.38H162.176ZM168.16 336.981V326.222H169.361V327.232C169.645 326.837 169.964 326.542 170.321 326.346C170.677 326.146 171.109 326.046 171.617 326.046C172.281 326.046 172.867 326.217 173.375 326.559C173.883 326.9 174.266 327.384 174.525 328.009C174.784 328.629 174.913 329.31 174.913 330.052C174.913 330.848 174.769 331.566 174.481 332.206C174.198 332.84 173.783 333.329 173.236 333.67C172.694 334.007 172.123 334.176 171.522 334.176C171.083 334.176 170.687 334.083 170.335 333.897C169.989 333.712 169.703 333.478 169.479 333.194V336.981H168.16ZM169.354 330.155C169.354 331.156 169.557 331.896 169.962 332.374C170.367 332.853 170.858 333.092 171.434 333.092C172.02 333.092 172.521 332.845 172.936 332.352C173.355 331.854 173.565 331.085 173.565 330.045C173.565 329.054 173.36 328.312 172.95 327.818C172.545 327.325 172.059 327.079 171.493 327.079C170.931 327.079 170.433 327.342 169.999 327.87C169.569 328.392 169.354 329.154 169.354 330.155ZM186.009 331.495L187.372 331.664C187.157 332.459 186.759 333.077 186.178 333.517C185.597 333.956 184.854 334.176 183.951 334.176C182.813 334.176 181.91 333.827 181.241 333.128C180.577 332.425 180.245 331.441 180.245 330.177C180.245 328.868 180.582 327.853 181.256 327.13C181.93 326.407 182.804 326.046 183.878 326.046C184.918 326.046 185.768 326.4 186.427 327.108C187.086 327.816 187.416 328.812 187.416 330.096C187.416 330.174 187.413 330.292 187.408 330.448H181.607C181.656 331.302 181.898 331.957 182.333 332.411C182.767 332.865 183.309 333.092 183.958 333.092C184.442 333.092 184.854 332.965 185.196 332.711C185.538 332.457 185.809 332.052 186.009 331.495ZM181.681 329.364H186.024C185.965 328.709 185.799 328.219 185.526 327.892C185.106 327.384 184.562 327.13 183.893 327.13C183.287 327.13 182.777 327.333 182.362 327.738C181.952 328.143 181.725 328.685 181.681 329.364ZM189.034 334V326.222H190.213V327.313C190.458 326.932 190.782 326.627 191.188 326.397C191.593 326.163 192.054 326.046 192.572 326.046C193.148 326.046 193.619 326.166 193.985 326.405C194.356 326.644 194.618 326.979 194.769 327.408C195.384 326.5 196.185 326.046 197.171 326.046C197.943 326.046 198.536 326.261 198.951 326.69C199.366 327.115 199.574 327.772 199.574 328.661V334H198.263V329.1C198.263 328.573 198.219 328.194 198.131 327.965C198.048 327.73 197.894 327.542 197.669 327.401C197.445 327.259 197.181 327.188 196.878 327.188C196.332 327.188 195.877 327.372 195.516 327.738C195.155 328.099 194.974 328.68 194.974 329.481V334H193.656V328.946C193.656 328.36 193.548 327.921 193.333 327.628C193.119 327.335 192.767 327.188 192.279 327.188C191.908 327.188 191.563 327.286 191.246 327.481C190.934 327.677 190.707 327.962 190.565 328.338C190.423 328.714 190.353 329.256 190.353 329.964V334H189.034ZM206.605 333.041C206.117 333.456 205.646 333.749 205.191 333.919C204.742 334.09 204.259 334.176 203.741 334.176C202.887 334.176 202.23 333.968 201.771 333.553C201.312 333.133 201.083 332.599 201.083 331.949C201.083 331.568 201.168 331.222 201.339 330.909C201.515 330.592 201.742 330.338 202.02 330.147C202.303 329.957 202.621 329.813 202.972 329.715C203.231 329.647 203.622 329.581 204.144 329.518C205.208 329.391 205.992 329.239 206.495 329.063C206.5 328.883 206.502 328.768 206.502 328.719C206.502 328.182 206.378 327.804 206.129 327.584C205.792 327.286 205.292 327.137 204.627 327.137C204.007 327.137 203.548 327.247 203.25 327.467C202.958 327.682 202.74 328.065 202.599 328.617L201.31 328.441C201.427 327.889 201.62 327.445 201.888 327.108C202.157 326.766 202.545 326.505 203.053 326.324C203.561 326.139 204.149 326.046 204.818 326.046C205.482 326.046 206.021 326.124 206.437 326.28C206.852 326.437 207.157 326.634 207.352 326.874C207.547 327.108 207.684 327.406 207.762 327.767C207.806 327.992 207.828 328.397 207.828 328.983V330.741C207.828 331.966 207.855 332.743 207.909 333.07C207.967 333.392 208.08 333.702 208.246 334H206.869C206.732 333.727 206.644 333.407 206.605 333.041ZM206.495 330.096C206.017 330.292 205.299 330.458 204.342 330.594C203.8 330.672 203.417 330.76 203.192 330.858C202.967 330.956 202.794 331.1 202.672 331.29C202.55 331.476 202.489 331.683 202.489 331.913C202.489 332.264 202.621 332.557 202.884 332.792C203.153 333.026 203.543 333.143 204.056 333.143C204.564 333.143 205.016 333.033 205.411 332.813C205.807 332.589 206.097 332.284 206.283 331.898C206.424 331.6 206.495 331.161 206.495 330.58V330.096ZM209.886 324.779V323.263H211.205V324.779H209.886ZM209.886 334V326.222H211.205V334H209.886ZM213.189 334V323.263H214.508V334H213.189ZM220.733 334V323.263H222.052V327.115C222.667 326.402 223.443 326.046 224.381 326.046C224.957 326.046 225.458 326.161 225.882 326.39C226.307 326.615 226.61 326.927 226.791 327.328C226.976 327.728 227.069 328.309 227.069 329.071V334H225.75V329.071C225.75 328.412 225.606 327.933 225.318 327.635C225.035 327.333 224.632 327.181 224.11 327.181C223.719 327.181 223.351 327.284 223.004 327.489C222.662 327.689 222.418 327.962 222.271 328.309C222.125 328.656 222.052 329.134 222.052 329.745V334H220.733ZM228.592 330.111C228.592 328.67 228.993 327.604 229.793 326.91C230.462 326.334 231.278 326.046 232.24 326.046C233.309 326.046 234.183 326.397 234.862 327.101C235.541 327.799 235.88 328.766 235.88 330.001C235.88 331.002 235.729 331.791 235.426 332.367C235.128 332.938 234.691 333.382 234.115 333.7C233.543 334.017 232.918 334.176 232.24 334.176C231.151 334.176 230.27 333.827 229.596 333.128C228.927 332.43 228.592 331.424 228.592 330.111ZM229.947 330.111C229.947 331.107 230.165 331.854 230.599 332.352C231.034 332.845 231.581 333.092 232.24 333.092C232.894 333.092 233.438 332.843 233.873 332.345C234.308 331.847 234.525 331.087 234.525 330.067C234.525 329.105 234.305 328.377 233.866 327.884C233.431 327.386 232.889 327.137 232.24 327.137C231.581 327.137 231.034 327.384 230.599 327.877C230.165 328.37 229.947 329.115 229.947 330.111ZM242.508 333.041C242.02 333.456 241.549 333.749 241.095 333.919C240.646 334.09 240.162 334.176 239.645 334.176C238.79 334.176 238.133 333.968 237.674 333.553C237.215 333.133 236.986 332.599 236.986 331.949C236.986 331.568 237.071 331.222 237.242 330.909C237.418 330.592 237.645 330.338 237.923 330.147C238.207 329.957 238.524 329.813 238.875 329.715C239.134 329.647 239.525 329.581 240.047 329.518C241.112 329.391 241.896 329.239 242.398 329.063C242.403 328.883 242.406 328.768 242.406 328.719C242.406 328.182 242.281 327.804 242.032 327.584C241.695 327.286 241.195 327.137 240.531 327.137C239.911 327.137 239.452 327.247 239.154 327.467C238.861 327.682 238.644 328.065 238.502 328.617L237.213 328.441C237.33 327.889 237.523 327.445 237.792 327.108C238.06 326.766 238.448 326.505 238.956 326.324C239.464 326.139 240.052 326.046 240.721 326.046C241.385 326.046 241.925 326.124 242.34 326.28C242.755 326.437 243.06 326.634 243.255 326.874C243.451 327.108 243.587 327.406 243.666 327.767C243.709 327.992 243.731 328.397 243.731 328.983V330.741C243.731 331.966 243.758 332.743 243.812 333.07C243.871 333.392 243.983 333.702 244.149 334H242.772C242.635 333.727 242.547 333.407 242.508 333.041ZM242.398 330.096C241.92 330.292 241.202 330.458 240.245 330.594C239.703 330.672 239.32 330.76 239.095 330.858C238.871 330.956 238.697 331.1 238.575 331.29C238.453 331.476 238.392 331.683 238.392 331.913C238.392 332.264 238.524 332.557 238.788 332.792C239.056 333.026 239.447 333.143 239.959 333.143C240.467 333.143 240.919 333.033 241.314 332.813C241.71 332.589 242 332.284 242.186 331.898C242.328 331.6 242.398 331.161 242.398 330.58V330.096ZM242.003 323.277H242.904C242.831 323.888 242.606 324.356 242.23 324.684C241.859 325.011 241.363 325.174 240.743 325.174C240.118 325.174 239.618 325.013 239.242 324.691C238.871 324.364 238.648 323.893 238.575 323.277H239.476C239.544 323.609 239.679 323.858 239.879 324.024C240.084 324.186 240.357 324.266 240.699 324.266C241.095 324.266 241.393 324.188 241.593 324.032C241.798 323.871 241.935 323.619 242.003 323.277ZM239.798 336.38V334.879H241.3V336.38H239.798ZM250.858 331.151L252.154 331.319C252.013 332.213 251.649 332.914 251.063 333.421C250.482 333.924 249.767 334.176 248.917 334.176C247.853 334.176 246.996 333.829 246.346 333.136C245.702 332.438 245.379 331.439 245.379 330.14C245.379 329.3 245.519 328.565 245.797 327.936C246.075 327.306 246.498 326.834 247.064 326.522C247.635 326.205 248.255 326.046 248.924 326.046C249.769 326.046 250.46 326.261 250.997 326.69C251.534 327.115 251.878 327.721 252.03 328.507L250.748 328.705C250.626 328.182 250.409 327.789 250.096 327.525C249.789 327.262 249.415 327.13 248.976 327.13C248.312 327.13 247.772 327.369 247.357 327.848C246.942 328.321 246.734 329.073 246.734 330.104C246.734 331.148 246.935 331.908 247.335 332.381C247.735 332.855 248.258 333.092 248.902 333.092C249.42 333.092 249.852 332.933 250.199 332.616C250.545 332.298 250.765 331.81 250.858 331.151ZM262.416 325.072H259.881V324.105H262.416V323.263H263.727V324.105H264.789V325.072H263.727V334H262.503V333.019C262.01 333.79 261.285 334.176 260.328 334.176C259.708 334.176 259.137 334.005 258.614 333.663C258.097 333.321 257.694 332.845 257.406 332.235C257.123 331.62 256.981 330.914 256.981 330.118C256.981 329.342 257.11 328.639 257.369 328.009C257.628 327.374 258.016 326.888 258.534 326.551C259.051 326.214 259.63 326.046 260.27 326.046C260.738 326.046 261.156 326.146 261.522 326.346C261.888 326.542 262.186 326.798 262.416 327.115V325.072ZM258.336 330.118C258.336 331.114 258.546 331.859 258.966 332.352C259.386 332.845 259.881 333.092 260.453 333.092C261.029 333.092 261.517 332.857 261.917 332.389C262.323 331.915 262.525 331.195 262.525 330.228C262.525 329.164 262.32 328.382 261.91 327.884C261.5 327.386 260.995 327.137 260.394 327.137C259.808 327.137 259.317 327.376 258.922 327.855C258.531 328.333 258.336 329.088 258.336 330.118ZM265.814 324.779V323.263H267.132V324.779H265.814ZM265.814 334V326.222H267.132V334H265.814ZM274.471 331.495L275.833 331.664C275.619 332.459 275.221 333.077 274.64 333.517C274.059 333.956 273.316 334.176 272.413 334.176C271.275 334.176 270.372 333.827 269.703 333.128C269.039 332.425 268.707 331.441 268.707 330.177C268.707 328.868 269.044 327.853 269.718 327.13C270.392 326.407 271.266 326.046 272.34 326.046C273.38 326.046 274.229 326.4 274.889 327.108C275.548 327.816 275.877 328.812 275.877 330.096C275.877 330.174 275.875 330.292 275.87 330.448H270.069C270.118 331.302 270.36 331.957 270.794 332.411C271.229 332.865 271.771 333.092 272.42 333.092C272.904 333.092 273.316 332.965 273.658 332.711C274 332.457 274.271 332.052 274.471 331.495ZM270.143 329.364H274.486C274.427 328.709 274.261 328.219 273.988 327.892C273.568 327.384 273.023 327.13 272.354 327.13C271.749 327.13 271.239 327.333 270.824 327.738C270.414 328.143 270.187 328.685 270.143 329.364ZM272.311 324.01L271.483 325.255H269.974L271.556 323.204H272.962L274.61 325.255H273.116L272.311 324.01ZM271.644 336.38V334.879H273.146V336.38H271.644ZM277.496 334V326.222H278.683V327.328C279.254 326.473 280.079 326.046 281.158 326.046C281.627 326.046 282.057 326.131 282.447 326.302C282.843 326.468 283.138 326.688 283.333 326.961C283.529 327.235 283.666 327.56 283.744 327.936C283.792 328.18 283.817 328.607 283.817 329.217V334H282.499V329.269C282.499 328.731 282.447 328.331 282.345 328.067C282.242 327.799 282.059 327.586 281.795 327.43C281.537 327.269 281.231 327.188 280.88 327.188C280.318 327.188 279.833 327.367 279.422 327.723C279.017 328.08 278.814 328.756 278.814 329.752V334H277.496ZM292.899 332.821L293.089 333.985C292.718 334.063 292.386 334.103 292.093 334.103C291.615 334.103 291.244 334.027 290.98 333.875C290.716 333.724 290.531 333.526 290.423 333.282C290.316 333.033 290.262 332.513 290.262 331.722V327.247H289.295V326.222H290.262V324.295L291.573 323.504V326.222H292.899V327.247H291.573V331.795C291.573 332.171 291.595 332.413 291.639 332.521C291.688 332.628 291.764 332.713 291.866 332.777C291.974 332.84 292.125 332.872 292.32 332.872C292.467 332.872 292.66 332.855 292.899 332.821ZM294.195 334V323.263H295.514V327.115C296.129 326.402 296.905 326.046 297.843 326.046C298.419 326.046 298.919 326.161 299.344 326.39C299.769 326.615 300.072 326.927 300.252 327.328C300.438 327.728 300.531 328.309 300.531 329.071V334H299.212V329.071C299.212 328.412 299.068 327.933 298.78 327.635C298.497 327.333 298.094 327.181 297.572 327.181C297.181 327.181 296.812 327.284 296.466 327.489C296.124 327.689 295.88 327.962 295.733 328.309C295.587 328.656 295.514 329.134 295.514 329.745V334H294.195ZM302.054 330.111C302.054 328.67 302.455 327.604 303.255 326.91C303.924 326.334 304.74 326.046 305.702 326.046C306.771 326.046 307.645 326.397 308.324 327.101C309.002 327.799 309.342 328.766 309.342 330.001C309.342 331.002 309.19 331.791 308.888 332.367C308.59 332.938 308.153 333.382 307.577 333.7C307.005 334.017 306.38 334.176 305.702 334.176C304.613 334.176 303.731 333.827 303.058 333.128C302.389 332.43 302.054 331.424 302.054 330.111ZM303.409 330.111C303.409 331.107 303.626 331.854 304.061 332.352C304.496 332.845 305.042 333.092 305.702 333.092C306.356 333.092 306.9 332.843 307.335 332.345C307.77 331.847 307.987 331.087 307.987 330.067C307.987 329.105 307.767 328.377 307.328 327.884C306.893 327.386 306.351 327.137 305.702 327.137C305.042 327.137 304.496 327.384 304.061 327.877C303.626 328.37 303.409 329.115 303.409 330.111ZM315.97 333.041C315.482 333.456 315.011 333.749 314.557 333.919C314.107 334.09 313.624 334.176 313.106 334.176C312.252 334.176 311.595 333.968 311.136 333.553C310.677 333.133 310.448 332.599 310.448 331.949C310.448 331.568 310.533 331.222 310.704 330.909C310.88 330.592 311.107 330.338 311.385 330.147C311.668 329.957 311.986 329.813 312.337 329.715C312.596 329.647 312.987 329.581 313.509 329.518C314.574 329.391 315.357 329.239 315.86 329.063C315.865 328.883 315.868 328.768 315.868 328.719C315.868 328.182 315.743 327.804 315.494 327.584C315.157 327.286 314.657 327.137 313.993 327.137C313.373 327.137 312.914 327.247 312.616 327.467C312.323 327.682 312.105 328.065 311.964 328.617L310.675 328.441C310.792 327.889 310.985 327.445 311.253 327.108C311.522 326.766 311.91 326.505 312.418 326.324C312.926 326.139 313.514 326.046 314.183 326.046C314.847 326.046 315.387 326.124 315.802 326.28C316.217 326.437 316.522 326.634 316.717 326.874C316.913 327.108 317.049 327.406 317.127 327.767C317.171 327.992 317.193 328.397 317.193 328.983V330.741C317.193 331.966 317.22 332.743 317.274 333.07C317.333 333.392 317.445 333.702 317.611 334H316.234C316.097 333.727 316.009 333.407 315.97 333.041ZM315.86 330.096C315.382 330.292 314.664 330.458 313.707 330.594C313.165 330.672 312.782 330.76 312.557 330.858C312.333 330.956 312.159 331.1 312.037 331.29C311.915 331.476 311.854 331.683 311.854 331.913C311.854 332.264 311.986 332.557 312.25 332.792C312.518 333.026 312.909 333.143 313.421 333.143C313.929 333.143 314.381 333.033 314.776 332.813C315.172 332.589 315.462 332.284 315.648 331.898C315.79 331.6 315.86 331.161 315.86 330.58V330.096ZM313.26 336.38V334.879H314.762V336.38H313.26ZM319.251 324.779V323.263H320.57V324.779H319.251ZM319.251 334V326.222H320.57V334H319.251ZM331.717 325.072H329.183V324.105H331.717V323.263H333.028V324.105H334.09V325.072H333.028V334H331.805V333.019C331.312 333.79 330.587 334.176 329.63 334.176C329.01 334.176 328.438 334.005 327.916 333.663C327.398 333.321 326.996 332.845 326.708 332.235C326.424 331.62 326.283 330.914 326.283 330.118C326.283 329.342 326.412 328.639 326.671 328.009C326.93 327.374 327.318 326.888 327.835 326.551C328.353 326.214 328.932 326.046 329.571 326.046C330.04 326.046 330.458 326.146 330.824 326.346C331.19 326.542 331.488 326.798 331.717 327.115V325.072ZM327.638 330.118C327.638 331.114 327.848 331.859 328.268 332.352C328.688 332.845 329.183 333.092 329.754 333.092C330.331 333.092 330.819 332.857 331.219 332.389C331.625 331.915 331.827 331.195 331.827 330.228C331.827 329.164 331.622 328.382 331.212 327.884C330.802 327.386 330.296 327.137 329.696 327.137C329.11 327.137 328.619 327.376 328.224 327.855C327.833 328.333 327.638 329.088 327.638 330.118ZM340.433 331.495L341.795 331.664C341.581 332.459 341.183 333.077 340.602 333.517C340.021 333.956 339.278 334.176 338.375 334.176C337.237 334.176 336.334 333.827 335.665 333.128C335.001 332.425 334.669 331.441 334.669 330.177C334.669 328.868 335.006 327.853 335.68 327.13C336.354 326.407 337.228 326.046 338.302 326.046C339.342 326.046 340.191 326.4 340.851 327.108C341.51 327.816 341.839 328.812 341.839 330.096C341.839 330.174 341.837 330.292 341.832 330.448H336.031C336.08 331.302 336.322 331.957 336.756 332.411C337.191 332.865 337.733 333.092 338.382 333.092C338.866 333.092 339.278 332.965 339.62 332.711C339.962 332.457 340.233 332.052 340.433 331.495ZM336.104 329.364H340.448C340.389 328.709 340.223 328.219 339.95 327.892C339.53 327.384 338.985 327.13 338.316 327.13C337.711 327.13 337.201 327.333 336.786 327.738C336.375 328.143 336.148 328.685 336.104 329.364ZM338.272 324.01L337.445 325.255H335.936L337.518 323.204H338.924L340.572 325.255H339.078L338.272 324.01ZM337.84 322.105C338.119 322.076 338.297 322.049 338.375 322.025C338.634 321.961 338.766 321.861 338.771 321.725C338.775 321.612 338.707 321.517 338.565 321.439C338.36 321.327 338.036 321.271 337.591 321.271C337.44 321.271 337.21 321.28 336.903 321.3L336.822 320.611C337.013 320.572 337.364 320.555 337.877 320.56C338.478 320.565 338.968 320.663 339.349 320.853C339.769 321.058 339.984 321.324 339.994 321.651C340.013 322.145 339.569 322.447 338.661 322.56V322.926H337.84V322.105ZM347.64 334V323.263H348.958V329.386L352.079 326.222H353.785L350.812 329.107L354.085 334H352.459L349.889 330.023L348.958 330.917V334H347.64ZM355.594 334V326.222H356.913V334H355.594ZM355.528 325.255L356.502 323.204H358.231L356.62 325.255H355.528ZM364.383 331.151L365.68 331.319C365.538 332.213 365.174 332.914 364.588 333.421C364.007 333.924 363.292 334.176 362.442 334.176C361.378 334.176 360.521 333.829 359.872 333.136C359.227 332.438 358.905 331.439 358.905 330.14C358.905 329.3 359.044 328.565 359.322 327.936C359.601 327.306 360.023 326.834 360.589 326.522C361.161 326.205 361.781 326.046 362.45 326.046C363.294 326.046 363.985 326.261 364.522 326.69C365.06 327.115 365.404 327.721 365.555 328.507L364.273 328.705C364.151 328.182 363.934 327.789 363.622 327.525C363.314 327.262 362.94 327.13 362.501 327.13C361.837 327.13 361.297 327.369 360.882 327.848C360.467 328.321 360.26 329.073 360.26 330.104C360.26 331.148 360.46 331.908 360.86 332.381C361.261 332.855 361.783 333.092 362.428 333.092C362.945 333.092 363.377 332.933 363.724 332.616C364.071 332.298 364.291 331.81 364.383 331.151ZM366.808 334V323.263H368.126V327.115C368.741 326.402 369.518 326.046 370.455 326.046C371.031 326.046 371.532 326.161 371.957 326.39C372.381 326.615 372.684 326.927 372.865 327.328C373.05 327.728 373.143 328.309 373.143 329.071V334H371.825V329.071C371.825 328.412 371.681 327.933 371.393 327.635C371.109 327.333 370.707 327.181 370.184 327.181C369.793 327.181 369.425 327.284 369.078 327.489C368.736 327.689 368.492 327.962 368.346 328.309C368.199 328.656 368.126 329.134 368.126 329.745V334H366.808ZM379.332 334V323.263H380.65V327.115C381.266 326.402 382.042 326.046 382.979 326.046C383.556 326.046 384.056 326.161 384.481 326.39C384.906 326.615 385.208 326.927 385.389 327.328C385.575 327.728 385.667 328.309 385.667 329.071V334H384.349V329.071C384.349 328.412 384.205 327.933 383.917 327.635C383.634 327.333 383.231 327.181 382.708 327.181C382.318 327.181 381.949 327.284 381.603 327.489C381.261 327.689 381.017 327.962 380.87 328.309C380.724 328.656 380.65 329.134 380.65 329.745V334H379.332ZM387.191 330.111C387.191 328.67 387.591 327.604 388.392 326.91C389.061 326.334 389.876 326.046 390.838 326.046C391.908 326.046 392.782 326.397 393.46 327.101C394.139 327.799 394.479 328.766 394.479 330.001C394.479 331.002 394.327 331.791 394.024 332.367C393.727 332.938 393.29 333.382 392.713 333.7C392.142 334.017 391.517 334.176 390.838 334.176C389.75 334.176 388.868 333.827 388.194 333.128C387.525 332.43 387.191 331.424 387.191 330.111ZM388.546 330.111C388.546 331.107 388.763 331.854 389.198 332.352C389.632 332.845 390.179 333.092 390.838 333.092C391.493 333.092 392.037 332.843 392.472 332.345C392.906 331.847 393.124 331.087 393.124 330.067C393.124 329.105 392.904 328.377 392.464 327.884C392.03 327.386 391.488 327.137 390.838 327.137C390.179 327.137 389.632 327.384 389.198 327.877C388.763 328.37 388.546 329.115 388.546 330.111ZM401.107 333.041C400.619 333.456 400.147 333.749 399.693 333.919C399.244 334.09 398.761 334.176 398.243 334.176C397.389 334.176 396.732 333.968 396.273 333.553C395.814 333.133 395.584 332.599 395.584 331.949C395.584 331.568 395.67 331.222 395.841 330.909C396.017 330.592 396.244 330.338 396.522 330.147C396.805 329.957 397.123 329.813 397.474 329.715C397.733 329.647 398.124 329.581 398.646 329.518C399.71 329.391 400.494 329.239 400.997 329.063C401.002 328.883 401.004 328.768 401.004 328.719C401.004 328.182 400.88 327.804 400.631 327.584C400.294 327.286 399.793 327.137 399.129 327.137C398.509 327.137 398.05 327.247 397.752 327.467C397.459 327.682 397.242 328.065 397.101 328.617L395.812 328.441C395.929 327.889 396.122 327.445 396.39 327.108C396.659 326.766 397.047 326.505 397.555 326.324C398.062 326.139 398.651 326.046 399.32 326.046C399.984 326.046 400.523 326.124 400.938 326.28C401.354 326.437 401.659 326.634 401.854 326.874C402.049 327.108 402.186 327.406 402.264 327.767C402.308 327.992 402.33 328.397 402.33 328.983V330.741C402.33 331.966 402.357 332.743 402.411 333.07C402.469 333.392 402.582 333.702 402.748 334H401.371C401.234 333.727 401.146 333.407 401.107 333.041ZM400.997 330.096C400.519 330.292 399.801 330.458 398.844 330.594C398.302 330.672 397.918 330.76 397.694 330.858C397.469 330.956 397.296 331.1 397.174 331.29C397.052 331.476 396.991 331.683 396.991 331.913C396.991 332.264 397.123 332.557 397.386 332.792C397.655 333.026 398.045 333.143 398.558 333.143C399.066 333.143 399.518 333.033 399.913 332.813C400.309 332.589 400.599 332.284 400.785 331.898C400.926 331.6 400.997 331.161 400.997 330.58V330.096ZM398.397 336.38V334.879H399.898V336.38H398.397ZM407.259 332.821L407.45 333.985C407.079 334.063 406.747 334.103 406.454 334.103C405.975 334.103 405.604 334.027 405.34 333.875C405.077 333.724 404.891 333.526 404.784 333.282C404.676 333.033 404.623 332.513 404.623 331.722V327.247H403.656V326.222H404.623V324.295L405.934 323.504V326.222H407.259V327.247H405.934V331.795C405.934 332.171 405.956 332.413 406 332.521C406.048 332.628 406.124 332.713 406.227 332.777C406.334 332.84 406.485 332.872 406.681 332.872C406.827 332.872 407.02 332.855 407.259 332.821ZM415.609 332.821L415.799 333.985C415.428 334.063 415.096 334.103 414.803 334.103C414.325 334.103 413.954 334.027 413.69 333.875C413.426 333.724 413.241 333.526 413.133 333.282C413.026 333.033 412.972 332.513 412.972 331.722V327.247H412.005V326.222H412.972V324.295L414.283 323.504V326.222H415.609V327.247H414.283V331.795C414.283 332.171 414.305 332.413 414.349 332.521C414.398 332.628 414.474 332.713 414.576 332.777C414.684 332.84 414.835 332.872 415.03 332.872C415.177 332.872 415.37 332.855 415.609 332.821ZM421.981 333.041C421.493 333.456 421.021 333.749 420.567 333.919C420.118 334.09 419.635 334.176 419.117 334.176C418.263 334.176 417.606 333.968 417.147 333.553C416.688 333.133 416.458 332.599 416.458 331.949C416.458 331.568 416.544 331.222 416.715 330.909C416.891 330.592 417.118 330.338 417.396 330.147C417.679 329.957 417.997 329.813 418.348 329.715C418.607 329.647 418.998 329.581 419.52 329.518C420.584 329.391 421.368 329.239 421.871 329.063C421.876 328.883 421.878 328.768 421.878 328.719C421.878 328.182 421.754 327.804 421.505 327.584C421.168 327.286 420.667 327.137 420.003 327.137C419.383 327.137 418.924 327.247 418.626 327.467C418.333 327.682 418.116 328.065 417.975 328.617L416.686 328.441C416.803 327.889 416.996 327.445 417.264 327.108C417.533 326.766 417.921 326.505 418.429 326.324C418.937 326.139 419.525 326.046 420.194 326.046C420.858 326.046 421.397 326.124 421.812 326.28C422.228 326.437 422.533 326.634 422.728 326.874C422.923 327.108 423.06 327.406 423.138 327.767C423.182 327.992 423.204 328.397 423.204 328.983V330.741C423.204 331.966 423.231 332.743 423.285 333.07C423.343 333.392 423.456 333.702 423.622 334H422.245C422.108 333.727 422.02 333.407 421.981 333.041ZM421.871 330.096C421.393 330.292 420.675 330.458 419.718 330.594C419.176 330.672 418.792 330.76 418.568 330.858C418.343 330.956 418.17 331.1 418.048 331.29C417.926 331.476 417.865 331.683 417.865 331.913C417.865 332.264 417.997 332.557 418.26 332.792C418.529 333.026 418.919 333.143 419.432 333.143C419.94 333.143 420.392 333.033 420.787 332.813C421.183 332.589 421.473 332.284 421.659 331.898C421.8 331.6 421.871 331.161 421.871 330.58V330.096ZM421.153 325.255H420.091L418.399 323.204H420.165L421.153 325.255ZM425.262 324.779V323.263H426.581V324.779H425.262ZM425.262 334V326.222H426.581V334H425.262ZM432.777 334V323.263H434.095V329.386L437.215 326.222H438.922L435.948 329.107L439.222 334H437.596L435.025 330.023L434.095 330.917V334H432.777ZM440.27 334V323.263H441.588V327.115C442.203 326.402 442.979 326.046 443.917 326.046C444.493 326.046 444.994 326.161 445.418 326.39C445.843 326.615 446.146 326.927 446.327 327.328C446.512 327.728 446.605 328.309 446.605 329.071V334H445.287V329.071C445.287 328.412 445.143 327.933 444.854 327.635C444.571 327.333 444.168 327.181 443.646 327.181C443.255 327.181 442.887 327.284 442.54 327.489C442.198 327.689 441.954 327.962 441.808 328.309C441.661 328.656 441.588 329.134 441.588 329.745V334H440.27ZM448.128 330.111C448.128 328.67 448.529 327.604 449.33 326.91C449.999 326.334 450.814 326.046 451.776 326.046C452.845 326.046 453.719 326.397 454.398 327.101C455.077 327.799 455.416 328.766 455.416 330.001C455.416 331.002 455.265 331.791 454.962 332.367C454.664 332.938 454.227 333.382 453.651 333.7C453.08 334.017 452.455 334.176 451.776 334.176C450.687 334.176 449.806 333.827 449.132 333.128C448.463 332.43 448.128 331.424 448.128 330.111ZM449.483 330.111C449.483 331.107 449.701 331.854 450.135 332.352C450.57 332.845 451.117 333.092 451.776 333.092C452.43 333.092 452.975 332.843 453.409 332.345C453.844 331.847 454.061 331.087 454.061 330.067C454.061 329.105 453.841 328.377 453.402 327.884C452.967 327.386 452.425 327.137 451.776 327.137C451.117 327.137 450.57 327.384 450.135 327.877C449.701 328.37 449.483 329.115 449.483 330.111ZM462.044 333.041C461.556 333.456 461.085 333.749 460.631 333.919C460.182 334.09 459.698 334.176 459.181 334.176C458.326 334.176 457.669 333.968 457.21 333.553C456.751 333.133 456.522 332.599 456.522 331.949C456.522 331.568 456.607 331.222 456.778 330.909C456.954 330.592 457.181 330.338 457.459 330.147C457.743 329.957 458.06 329.813 458.412 329.715C458.67 329.647 459.061 329.581 459.583 329.518C460.648 329.391 461.432 329.239 461.935 329.063C461.939 328.883 461.942 328.768 461.942 328.719C461.942 328.182 461.817 327.804 461.568 327.584C461.231 327.286 460.731 327.137 460.067 327.137C459.447 327.137 458.988 327.247 458.69 327.467C458.397 327.682 458.18 328.065 458.038 328.617L456.749 328.441C456.866 327.889 457.059 327.445 457.328 327.108C457.596 326.766 457.984 326.505 458.492 326.324C459 326.139 459.588 326.046 460.257 326.046C460.921 326.046 461.461 326.124 461.876 326.28C462.291 326.437 462.596 326.634 462.792 326.874C462.987 327.108 463.124 327.406 463.202 327.767C463.246 327.992 463.268 328.397 463.268 328.983V330.741C463.268 331.966 463.294 332.743 463.348 333.07C463.407 333.392 463.519 333.702 463.685 334H462.308C462.171 333.727 462.083 333.407 462.044 333.041ZM461.935 330.096C461.456 330.292 460.738 330.458 459.781 330.594C459.239 330.672 458.856 330.76 458.631 330.858C458.407 330.956 458.233 331.1 458.111 331.29C457.989 331.476 457.928 331.683 457.928 331.913C457.928 332.264 458.06 332.557 458.324 332.792C458.592 333.026 458.983 333.143 459.496 333.143C460.003 333.143 460.455 333.033 460.851 332.813C461.246 332.589 461.537 332.284 461.722 331.898C461.864 331.6 461.935 331.161 461.935 330.58V330.096ZM459.862 324.376C460.14 324.347 460.318 324.32 460.396 324.295C460.655 324.208 460.787 324.071 460.792 323.885C460.797 323.773 460.729 323.678 460.587 323.6C460.382 323.487 460.057 323.431 459.613 323.431C459.461 323.431 459.232 323.441 458.924 323.46L458.844 322.713C459.034 322.674 459.386 322.657 459.898 322.662C460.499 322.667 460.99 322.765 461.371 322.955C461.791 323.16 462.005 323.446 462.015 323.812C462.035 324.417 461.59 324.776 460.682 324.889V325.255H459.862V324.376ZM465.318 334V326.222H466.505V327.328C467.076 326.473 467.901 326.046 468.98 326.046C469.449 326.046 469.879 326.131 470.27 326.302C470.665 326.468 470.96 326.688 471.156 326.961C471.351 327.235 471.488 327.56 471.566 327.936C471.615 328.18 471.639 328.607 471.639 329.217V334H470.321V329.269C470.321 328.731 470.27 328.331 470.167 328.067C470.064 327.799 469.881 327.586 469.618 327.43C469.359 327.269 469.054 327.188 468.702 327.188C468.141 327.188 467.655 327.367 467.245 327.723C466.839 328.08 466.637 328.756 466.637 329.752V334H465.318Z" fill="#797878"/>
<path d="M474 41.9737C480.603 41.9737 485.974 36.6025 485.974 30.0002C485.974 23.3978 480.603 18.0262 474 18.0262C467.398 18.0262 462.026 23.3979 462.026 30.0002C462.026 36.6025 467.398 41.9737 474 41.9737ZM474 19.9153C479.561 19.9153 484.085 24.4393 484.085 30.0002C484.085 35.5606 479.561 40.0851 474 40.0851C468.439 40.0851 463.915 35.5606 463.915 30.0002C463.915 24.4393 468.439 19.9153 474 19.9153Z" fill="#252775"/>
<path d="M469.083 35.0103C469.293 35.2167 469.566 35.3191 469.839 35.3191C470.118 35.3191 470.398 35.2113 470.609 34.9961L474 31.5406L477.391 34.9961C477.602 35.2113 477.882 35.3191 478.161 35.3191C478.434 35.3191 478.707 35.2168 478.917 35.0103C479.343 34.5928 479.349 33.9091 478.931 33.4839L475.512 30.0003L478.931 26.5162C479.349 26.091 479.343 25.4076 478.917 24.99C478.492 24.5727 477.809 24.5788 477.391 25.0041L474 28.4594L470.609 25.0041C470.191 24.5785 469.508 24.5727 469.082 24.99C468.657 25.4076 468.651 26.091 469.069 26.5162L472.488 30.0003L469.069 33.4839C468.651 33.9091 468.657 34.5928 469.083 35.0103Z" fill="#252775"/>
<defs>
<filter id="filter0_d_257_216" x="0" y="0" width="508" height="508" filterUnits="userSpaceOnUse" color-interpolation-filters="sRGB">
<feFlood flood-opacity="0" result="BackgroundImageFix"/>
<feColorMatrix in="SourceAlpha" type="matrix" values="0 0 0 0 0 0 0 0 0 0 0 0 0 0 0 0 0 0 127 0" result="hardAlpha"/>
<feOffset dy="4"/>
<feGaussianBlur stdDeviation="2"/>
<feComposite in2="hardAlpha" operator="out"/>
<feColorMatrix type="matrix" values="0 0 0 0 0 0 0 0 0 0 0 0 0 0 0 0 0 0 0.25 0"/>
<feBlend mode="normal" in2="BackgroundImageFix" result="effect1_dropShadow_257_216"/>
<feBlend mode="normal" in="SourceGraphic" in2="effect1_dropShadow_257_216" result="shape"/>
</filter>
</defs>
</svg>
