<svg width="61" height="61" viewBox="0 0 61 61" fill="none" xmlns="http://www.w3.org/2000/svg">
<path d="M30.5007 5.08398C16.463 5.08398 5.08398 16.463 5.08398 30.5007C5.08398 44.5383 16.463 55.9173 30.5007 55.9173C44.5383 55.9173 55.9173 44.5383 55.9173 30.5007C55.9173 16.463 44.5383 5.08398 30.5007 5.08398Z" fill="url(#paint0_linear_820_1083)"/>
<path d="M33.9407 37.2368H40.5186L41.5517 30.5548H33.9407V26.9024C33.9407 24.1269 34.8481 21.6653 37.4444 21.6653H41.6166V15.8347C40.8833 15.7356 39.3329 15.5195 36.4036 15.5195C30.2858 15.5195 26.6995 18.75 26.6995 26.1107V30.556H20.4102V37.2381H26.6982V55.6042C27.9437 55.7897 29.2056 55.9168 30.5006 55.9168C31.671 55.9168 32.8135 55.81 33.9407 55.6575V37.2368Z" fill="white"/>
<defs>
<linearGradient id="paint0_linear_820_1083" x1="12.7001" y1="12.7001" x2="51.6155" y2="51.6155" gradientUnits="userSpaceOnUse">
<stop stop-color="#2AA4F4"/>
<stop offset="1" stop-color="#007AD9"/>
</linearGradient>
</defs>
</svg>
