<svg width="52" height="52" viewBox="0 0 52 52" fill="none" xmlns="http://www.w3.org/2000/svg">
<path d="M25.2133 10.9394C28.5808 10.8687 31.697 11.9566 34.2057 13.8221L41.6295 6.43547C37.1433 2.64525 31.3278 0.391995 24.9945 0.525047C15.3974 0.726666 7.18862 6.3168 3.16696 14.3404L11.7307 20.8139C13.654 15.1818 18.9178 11.0717 25.2133 10.9394Z" fill="#F44336"/>
<path d="M50.3633 28.1271C50.4719 27.1004 50.5363 26.054 50.514 24.9945C50.4765 23.2077 50.2448 21.4719 49.8532 19.7989L25.4102 20.3124L25.6289 30.7267L39.1389 30.4429C38.1056 33.3064 36.2102 35.7509 33.7683 37.4728L42.3638 43.9704C46.7634 39.942 49.7149 34.3682 50.3633 28.1271Z" fill="#2196F3"/>
<path d="M10.9395 25.8259C10.9026 24.0691 11.1941 22.3857 11.7307 20.814L3.16697 14.3405C1.40406 17.8578 0.436747 21.8376 0.52513 26.0447C0.612526 30.2047 1.72589 34.097 3.59623 37.5097L11.8911 30.6735C11.3189 29.1612 10.9754 27.5348 10.9395 25.8259Z" fill="#FFC107"/>
<path d="M25.8259 40.0997C19.4824 40.233 14.0149 36.2876 11.891 30.6735L3.59619 37.5097C7.93215 45.4214 16.4006 50.7167 26.0447 50.5141C32.3511 50.3816 38.0527 47.9179 42.3639 43.9705L33.7683 37.4728C31.5162 39.061 28.8011 40.0372 25.8259 40.0997Z" fill="#00B060"/>
<path opacity="0.1" d="M26.0337 49.9933C18.6777 50.1479 11.9996 47.2517 7.22156 42.5145C11.9073 47.5557 18.6223 50.67 26.0447 50.514C33.3984 50.3595 39.923 47.0314 44.3843 41.8785C39.8216 46.7335 33.3199 49.8402 26.0337 49.9933Z" fill="black"/>
<path opacity="0.1" d="M25.618 30.2061L25.629 30.7268L39.1389 30.443L39.339 29.9178L25.618 30.2061Z" fill="black"/>
<path d="M50.509 25.301C50.5085 25.1984 50.5163 25.0974 50.5141 24.9945C50.5135 24.9654 50.5083 24.9374 50.5076 24.9083C50.509 25.0395 50.5051 25.1693 50.509 25.301Z" fill="#E6E6E6"/>
<path opacity="0.2" d="M25.4102 20.3124L25.4211 20.8331L49.969 20.3174C49.9325 20.1462 49.893 19.9687 49.8532 19.7989L25.4102 20.3124Z" fill="white"/>
<path d="M49.8532 19.7989L25.4102 20.3124L25.629 30.7267L39.1389 30.4429C37.1527 35.9475 32.027 39.9694 25.8259 40.0997C17.7736 40.2688 11.1086 33.8782 10.9395 25.8259C10.7703 17.7734 17.161 11.1086 25.2133 10.9394C28.1332 10.8781 30.8432 11.7186 33.1542 13.1496C33.5079 13.369 33.8724 13.5744 34.2056 13.8222L41.6295 6.4355L41.4559 6.30764C36.9927 2.60075 31.2505 0.393648 24.9945 0.525077C11.1904 0.815079 0.235092 12.2405 0.525094 26.0447C0.815094 39.8487 12.2405 50.804 26.0447 50.514C38.787 50.2464 49.0796 40.4838 50.3633 28.1271C50.4719 27.1004 50.5363 26.054 50.5141 24.9945C50.4765 23.2077 50.2448 21.4719 49.8532 19.7989Z" fill="url(#paint0_linear_193_144)"/>
<path opacity="0.1" d="M33.1432 12.6288C30.8322 11.1978 28.1222 10.3574 25.2023 10.4187C17.15 10.5879 10.7593 17.2527 10.9285 25.3051C10.9303 25.393 10.9329 25.4616 10.9363 25.5492C10.9102 17.6153 17.2488 11.1067 25.2132 10.9394C28.1331 10.8781 30.8431 11.7186 33.1541 13.1496C33.5079 13.369 33.8724 13.5744 34.2056 13.8221L41.6295 6.43548L34.1946 13.3014C33.8614 13.0537 33.4969 12.8483 33.1432 12.6288Z" fill="black"/>
<path opacity="0.2" d="M25.0054 1.0458C31.2021 0.915614 36.8903 3.08493 41.3353 6.72823L41.6295 6.4355L41.3962 6.24074C36.933 2.53385 31.2505 0.393648 24.9945 0.525077C11.1904 0.815079 0.235092 12.2405 0.525094 26.0447C0.52694 26.1325 0.540926 26.217 0.543658 26.3047C0.397319 12.6191 11.2891 1.33395 25.0054 1.0458Z" fill="white"/>
<defs>
<linearGradient id="paint0_linear_193_144" x1="0.525094" y1="26.0447" x2="50.5141" y2="24.9945" gradientUnits="userSpaceOnUse">
<stop stop-color="white" stop-opacity="0.2"/>
<stop offset="1" stop-color="white" stop-opacity="0"/>
</linearGradient>
</defs>
</svg>
