<svg width="1393" height="103" viewBox="0 0 1393 103" fill="none" xmlns="http://www.w3.org/2000/svg">
<path d="M49.9993 14.417L58.916 19.5837H69.2493L74.416 28.5837L83.416 33.7503V44.0837L88.5827 53.0003L83.416 61.917V72.2503L74.416 77.417L69.2493 86.417H58.916L49.9993 91.5837L41.0827 86.417H30.7493L25.5827 77.417L16.5827 72.2503V61.917L11.416 53.0003L16.5827 44.0837V33.7503L25.5827 28.5837L30.7493 19.5837H41.0827L49.9993 14.417Z" fill="#252775"/>
<path d="M50 81.25C34.4167 81.25 21.75 68.5833 21.75 53C21.75 37.4167 34.4167 24.75 50 24.75C65.5833 24.75 78.25 37.4167 78.25 53C78.25 68.5833 65.5833 81.25 50 81.25ZM50 27.1667C35.75 27.1667 24.1667 38.75 24.1667 53C24.1667 67.25 35.75 78.8333 50 78.8333C64.25 78.8333 75.8333 67.25 75.8333 53C75.8333 38.75 64.25 27.1667 50 27.1667Z" fill="white"/>
<path d="M46.9157 63.5001L34.6657 53.7501C33.6657 52.9168 33.4991 51.5001 34.3324 50.5001C35.1657 49.5001 36.5824 49.3334 37.5824 50.1668L48.0824 58.5834L62.0824 42.9168C62.9157 42.0001 64.4157 41.9168 65.3324 42.7501C66.2491 43.5834 66.3324 45.0834 65.4991 46.0001L50.0824 63.2501C49.2491 64.1668 47.8324 64.2501 46.9157 63.5001Z" fill="white"/>
<path d="M102.318 52V39.1152H104.92V44.1865H110.018V39.1152H112.619V52H110.018V46.3662H104.92V52H102.318ZM117.146 45.5137L114.904 45.1094C115.156 44.207 115.59 43.5391 116.205 43.1055C116.82 42.6719 117.734 42.4551 118.947 42.4551C120.049 42.4551 120.869 42.5869 121.408 42.8506C121.947 43.1084 122.325 43.4395 122.542 43.8438C122.765 44.2422 122.876 44.9775 122.876 46.0498L122.85 48.9326C122.85 49.7529 122.888 50.3594 122.964 50.752C123.046 51.1387 123.195 51.5547 123.412 52H120.969C120.904 51.8359 120.825 51.5928 120.731 51.2705C120.69 51.124 120.661 51.0273 120.644 50.9805C120.222 51.3906 119.771 51.6982 119.29 51.9033C118.81 52.1084 118.297 52.2109 117.752 52.2109C116.791 52.2109 116.032 51.9502 115.476 51.4287C114.925 50.9072 114.649 50.248 114.649 49.4512C114.649 48.9238 114.775 48.4551 115.027 48.0449C115.279 47.6289 115.631 47.3125 116.082 47.0957C116.539 46.873 117.195 46.6797 118.051 46.5156C119.205 46.2988 120.005 46.0967 120.45 45.9092V45.6631C120.45 45.1885 120.333 44.8516 120.099 44.6523C119.864 44.4473 119.422 44.3447 118.771 44.3447C118.332 44.3447 117.989 44.4326 117.743 44.6084C117.497 44.7783 117.298 45.0801 117.146 45.5137ZM120.45 47.5176C120.134 47.623 119.633 47.749 118.947 47.8955C118.262 48.042 117.813 48.1855 117.603 48.3262C117.28 48.5547 117.119 48.8447 117.119 49.1963C117.119 49.542 117.248 49.8408 117.506 50.0928C117.764 50.3447 118.092 50.4707 118.49 50.4707C118.936 50.4707 119.36 50.3242 119.765 50.0312C120.063 49.8086 120.26 49.5361 120.354 49.2139C120.418 49.0029 120.45 48.6016 120.45 48.0098V47.5176ZM120.274 41.5234H118.719L116.293 38.8955H119.062L120.274 41.5234ZM133.81 52H131.34V47.2363C131.34 46.2285 131.287 45.5781 131.182 45.2852C131.076 44.9863 130.903 44.7549 130.663 44.5908C130.429 44.4268 130.145 44.3447 129.811 44.3447C129.383 44.3447 128.999 44.4619 128.659 44.6963C128.319 44.9307 128.085 45.2412 127.956 45.6279C127.833 46.0146 127.771 46.7295 127.771 47.7725V52H125.302V42.666H127.596V44.0371C128.41 42.9824 129.436 42.4551 130.672 42.4551C131.217 42.4551 131.715 42.5547 132.166 42.7539C132.617 42.9473 132.957 43.1963 133.186 43.501C133.42 43.8057 133.581 44.1514 133.669 44.5381C133.763 44.9248 133.81 45.4785 133.81 46.1992V52ZM136.095 52.6152L138.916 52.958C138.963 53.2861 139.071 53.5117 139.241 53.6348C139.476 53.8105 139.845 53.8984 140.349 53.8984C140.993 53.8984 141.477 53.8018 141.799 53.6084C142.016 53.4795 142.18 53.2715 142.291 52.9844C142.367 52.7793 142.405 52.4014 142.405 51.8506V50.4883C141.667 51.4961 140.735 52 139.61 52C138.356 52 137.363 51.4697 136.631 50.4092C136.057 49.5713 135.77 48.5283 135.77 47.2803C135.77 45.7158 136.145 44.5205 136.895 43.6943C137.65 42.8682 138.588 42.4551 139.707 42.4551C140.861 42.4551 141.813 42.9619 142.563 43.9756V42.666H144.875V51.042C144.875 52.1436 144.784 52.9668 144.603 53.5117C144.421 54.0566 144.166 54.4844 143.838 54.7949C143.51 55.1055 143.07 55.3486 142.52 55.5244C141.975 55.7002 141.283 55.7881 140.445 55.7881C138.863 55.7881 137.741 55.5156 137.079 54.9707C136.417 54.4316 136.086 53.7461 136.086 52.9141C136.086 52.832 136.089 52.7324 136.095 52.6152ZM138.301 47.1396C138.301 48.1299 138.491 48.8564 138.872 49.3193C139.259 49.7764 139.733 50.0049 140.296 50.0049C140.899 50.0049 141.409 49.7705 141.825 49.3018C142.241 48.8271 142.449 48.127 142.449 47.2012C142.449 46.2344 142.25 45.5166 141.852 45.0479C141.453 44.5791 140.949 44.3447 140.34 44.3447C139.748 44.3447 139.259 44.5762 138.872 45.0391C138.491 45.4961 138.301 46.1963 138.301 47.1396ZM160.476 45.4258L158.041 45.8652C157.959 45.3789 157.771 45.0127 157.479 44.7666C157.191 44.5205 156.816 44.3975 156.354 44.3975C155.738 44.3975 155.246 44.6113 154.877 45.0391C154.514 45.4609 154.332 46.1699 154.332 47.166C154.332 48.2734 154.517 49.0557 154.886 49.5127C155.261 49.9697 155.762 50.1982 156.389 50.1982C156.857 50.1982 157.241 50.0664 157.54 49.8027C157.839 49.5332 158.05 49.0732 158.173 48.4229L160.599 48.8359C160.347 49.9492 159.863 50.79 159.148 51.3584C158.434 51.9268 157.476 52.2109 156.274 52.2109C154.909 52.2109 153.819 51.7803 153.005 50.9189C152.196 50.0576 151.792 48.8652 151.792 47.3418C151.792 45.8008 152.199 44.6025 153.014 43.7471C153.828 42.8857 154.93 42.4551 156.318 42.4551C157.455 42.4551 158.357 42.7012 159.025 43.1934C159.699 43.6797 160.183 44.4238 160.476 45.4258ZM164.817 39.1152V43.8525C165.614 42.9209 166.566 42.4551 167.674 42.4551C168.242 42.4551 168.755 42.5605 169.212 42.7715C169.669 42.9824 170.012 43.252 170.24 43.5801C170.475 43.9082 170.633 44.2715 170.715 44.6699C170.803 45.0684 170.847 45.6865 170.847 46.5244V52H168.377V47.0693C168.377 46.0908 168.33 45.4697 168.236 45.2061C168.143 44.9424 167.976 44.7344 167.735 44.582C167.501 44.4238 167.205 44.3447 166.848 44.3447C166.438 44.3447 166.071 44.4443 165.749 44.6436C165.427 44.8428 165.189 45.1445 165.037 45.5488C164.891 45.9473 164.817 46.5391 164.817 47.3242V52H162.348V39.1152H164.817ZM173.36 52V42.666H175.83V52H173.36ZM173.176 41.5234L174.389 38.8955H177.157L174.74 41.5234H173.176ZM186.86 52H184.391V47.2363C184.391 46.2285 184.338 45.5781 184.232 45.2852C184.127 44.9863 183.954 44.7549 183.714 44.5908C183.479 44.4268 183.195 44.3447 182.861 44.3447C182.434 44.3447 182.05 44.4619 181.71 44.6963C181.37 44.9307 181.136 45.2412 181.007 45.6279C180.884 46.0146 180.822 46.7295 180.822 47.7725V52H178.353V42.666H180.646V44.0371C181.461 42.9824 182.486 42.4551 183.723 42.4551C184.268 42.4551 184.766 42.5547 185.217 42.7539C185.668 42.9473 186.008 43.1963 186.236 43.501C186.471 43.8057 186.632 44.1514 186.72 44.5381C186.813 44.9248 186.86 45.4785 186.86 46.1992V52ZM191.835 39.1152V43.8525C192.632 42.9209 193.584 42.4551 194.691 42.4551C195.26 42.4551 195.772 42.5605 196.229 42.7715C196.687 42.9824 197.029 43.252 197.258 43.5801C197.492 43.9082 197.65 44.2715 197.732 44.6699C197.82 45.0684 197.864 45.6865 197.864 46.5244V52H195.395V47.0693C195.395 46.0908 195.348 45.4697 195.254 45.2061C195.16 44.9424 194.993 44.7344 194.753 44.582C194.519 44.4238 194.223 44.3447 193.865 44.3447C193.455 44.3447 193.089 44.4443 192.767 44.6436C192.444 44.8428 192.207 45.1445 192.055 45.5488C191.908 45.9473 191.835 46.5391 191.835 47.3242V52H189.365V39.1152H191.835ZM207.849 39.1152V43.8525C208.646 42.9209 209.598 42.4551 210.705 42.4551C211.273 42.4551 211.786 42.5605 212.243 42.7715C212.7 42.9824 213.043 43.252 213.271 43.5801C213.506 43.9082 213.664 44.2715 213.746 44.6699C213.834 45.0684 213.878 45.6865 213.878 46.5244V52H211.408V47.0693C211.408 46.0908 211.361 45.4697 211.268 45.2061C211.174 44.9424 211.007 44.7344 210.767 44.582C210.532 44.4238 210.236 44.3447 209.879 44.3447C209.469 44.3447 209.103 44.4443 208.78 44.6436C208.458 44.8428 208.221 45.1445 208.068 45.5488C207.922 45.9473 207.849 46.5391 207.849 47.3242V52H205.379V39.1152H207.849ZM218.237 45.5137L215.996 45.1094C216.248 44.207 216.682 43.5391 217.297 43.1055C217.912 42.6719 218.826 42.4551 220.039 42.4551C221.141 42.4551 221.961 42.5869 222.5 42.8506C223.039 43.1084 223.417 43.4395 223.634 43.8438C223.856 44.2422 223.968 44.9775 223.968 46.0498L223.941 48.9326C223.941 49.7529 223.979 50.3594 224.056 50.752C224.138 51.1387 224.287 51.5547 224.504 52H222.061C221.996 51.8359 221.917 51.5928 221.823 51.2705C221.782 51.124 221.753 51.0273 221.735 50.9805C221.313 51.3906 220.862 51.6982 220.382 51.9033C219.901 52.1084 219.389 52.2109 218.844 52.2109C217.883 52.2109 217.124 51.9502 216.567 51.4287C216.017 50.9072 215.741 50.248 215.741 49.4512C215.741 48.9238 215.867 48.4551 216.119 48.0449C216.371 47.6289 216.723 47.3125 217.174 47.0957C217.631 46.873 218.287 46.6797 219.143 46.5156C220.297 46.2988 221.097 46.0967 221.542 45.9092V45.6631C221.542 45.1885 221.425 44.8516 221.19 44.6523C220.956 44.4473 220.514 44.3447 219.863 44.3447C219.424 44.3447 219.081 44.4326 218.835 44.6084C218.589 44.7783 218.39 45.0801 218.237 45.5137ZM221.542 47.5176C221.226 47.623 220.725 47.749 220.039 47.8955C219.354 48.042 218.905 48.1855 218.694 48.3262C218.372 48.5547 218.211 48.8447 218.211 49.1963C218.211 49.542 218.34 49.8408 218.598 50.0928C218.855 50.3447 219.184 50.4707 219.582 50.4707C220.027 50.4707 220.452 50.3242 220.856 50.0312C221.155 49.8086 221.352 49.5361 221.445 49.2139C221.51 49.0029 221.542 48.6016 221.542 48.0098V47.5176ZM218.22 41.4092H217.095C217.089 41.2744 217.086 41.1689 217.086 41.0928C217.086 40.4775 217.235 40.0059 217.534 39.6777C217.833 39.3438 218.217 39.1768 218.686 39.1768C218.891 39.1768 219.081 39.2002 219.257 39.2471C219.433 39.2881 219.752 39.4141 220.215 39.625C220.684 39.8301 221.05 39.9326 221.313 39.9326C221.501 39.9326 221.656 39.874 221.779 39.7568C221.908 39.6396 221.99 39.4434 222.025 39.168H223.168C223.162 39.959 223.013 40.5244 222.72 40.8643C222.433 41.2041 222.061 41.374 221.604 41.374C221.404 41.374 221.208 41.3535 221.015 41.3125C220.88 41.2773 220.543 41.1572 220.004 40.9521C219.465 40.7471 219.072 40.6445 218.826 40.6445C218.639 40.6445 218.492 40.7031 218.387 40.8203C218.281 40.9316 218.226 41.1279 218.22 41.4092ZM234.901 52H232.432V47.2363C232.432 46.2285 232.379 45.5781 232.273 45.2852C232.168 44.9863 231.995 44.7549 231.755 44.5908C231.521 44.4268 231.236 44.3447 230.902 44.3447C230.475 44.3447 230.091 44.4619 229.751 44.6963C229.411 44.9307 229.177 45.2412 229.048 45.6279C228.925 46.0146 228.863 46.7295 228.863 47.7725V52H226.394V42.666H228.688V44.0371C229.502 42.9824 230.527 42.4551 231.764 42.4551C232.309 42.4551 232.807 42.5547 233.258 42.7539C233.709 42.9473 234.049 43.1963 234.277 43.501C234.512 43.8057 234.673 44.1514 234.761 44.5381C234.854 44.9248 234.901 45.4785 234.901 46.1992V52ZM237.187 52.6152L240.008 52.958C240.055 53.2861 240.163 53.5117 240.333 53.6348C240.567 53.8105 240.937 53.8984 241.44 53.8984C242.085 53.8984 242.568 53.8018 242.891 53.6084C243.107 53.4795 243.271 53.2715 243.383 52.9844C243.459 52.7793 243.497 52.4014 243.497 51.8506V50.4883C242.759 51.4961 241.827 52 240.702 52C239.448 52 238.455 51.4697 237.723 50.4092C237.148 49.5713 236.861 48.5283 236.861 47.2803C236.861 45.7158 237.236 44.5205 237.986 43.6943C238.742 42.8682 239.68 42.4551 240.799 42.4551C241.953 42.4551 242.905 42.9619 243.655 43.9756V42.666H245.967V51.042C245.967 52.1436 245.876 52.9668 245.694 53.5117C245.513 54.0566 245.258 54.4844 244.93 54.7949C244.602 55.1055 244.162 55.3486 243.611 55.5244C243.066 55.7002 242.375 55.7881 241.537 55.7881C239.955 55.7881 238.833 55.5156 238.171 54.9707C237.509 54.4316 237.178 53.7461 237.178 52.9141C237.178 52.832 237.181 52.7324 237.187 52.6152ZM239.393 47.1396C239.393 48.1299 239.583 48.8564 239.964 49.3193C240.351 49.7764 240.825 50.0049 241.388 50.0049C241.991 50.0049 242.501 49.7705 242.917 49.3018C243.333 48.8271 243.541 48.127 243.541 47.2012C243.541 46.2344 243.342 45.5166 242.943 45.0479C242.545 44.5791 242.041 44.3447 241.432 44.3447C240.84 44.3447 240.351 44.5762 239.964 45.0391C239.583 45.4961 239.393 46.1963 239.393 47.1396ZM102.371 73V60.1152H104.12L110.888 70.2314V60.1152H112.522V73H110.773L104.006 62.875V73H102.371ZM114.605 68.333C114.605 66.6045 115.086 65.3242 116.047 64.4922C116.85 63.8008 117.828 63.4551 118.982 63.4551C120.266 63.4551 121.314 63.877 122.129 64.7207C122.943 65.5586 123.351 66.7188 123.351 68.2012C123.351 69.4023 123.169 70.3486 122.806 71.04C122.448 71.7256 121.924 72.2588 121.232 72.6396C120.547 73.0205 119.797 73.2109 118.982 73.2109C117.676 73.2109 116.618 72.792 115.81 71.9541C115.007 71.1162 114.605 69.9092 114.605 68.333ZM116.231 68.333C116.231 69.5283 116.492 70.4248 117.014 71.0225C117.535 71.6143 118.191 71.9102 118.982 71.9102C119.768 71.9102 120.421 71.6113 120.942 71.0137C121.464 70.416 121.725 69.5049 121.725 68.2803C121.725 67.126 121.461 66.2529 120.934 65.6611C120.412 65.0635 119.762 64.7646 118.982 64.7646C118.191 64.7646 117.535 65.0605 117.014 65.6523C116.492 66.2441 116.231 67.1377 116.231 68.333ZM118.104 62.5059L119.272 60.0449H121.347L119.413 62.5059H118.104ZM125.223 61.9346V60.1152H126.805V61.9346H125.223ZM125.223 73V63.666H126.805V73H125.223ZM134.24 73V60.1152H135.822V67.4629L139.566 63.666H141.614L138.046 67.1289L141.975 73H140.023L136.938 68.2275L135.822 69.2998V73H134.24ZM143.231 73V60.1152H144.813V64.7383C145.552 63.8828 146.483 63.4551 147.608 63.4551C148.3 63.4551 148.9 63.5928 149.41 63.8682C149.92 64.1377 150.283 64.5127 150.5 64.9932C150.723 65.4736 150.834 66.1709 150.834 67.085V73H149.252V67.085C149.252 66.2939 149.079 65.7197 148.733 65.3623C148.394 64.999 147.91 64.8174 147.283 64.8174C146.814 64.8174 146.372 64.9404 145.956 65.1865C145.546 65.4268 145.253 65.7549 145.077 66.1709C144.901 66.5869 144.813 67.1611 144.813 67.8936V73H143.231ZM152.662 68.333C152.662 66.6045 153.143 65.3242 154.104 64.4922C154.906 63.8008 155.885 63.4551 157.039 63.4551C158.322 63.4551 159.371 63.877 160.186 64.7207C161 65.5586 161.407 66.7188 161.407 68.2012C161.407 69.4023 161.226 70.3486 160.862 71.04C160.505 71.7256 159.98 72.2588 159.289 72.6396C158.604 73.0205 157.854 73.2109 157.039 73.2109C155.732 73.2109 154.675 72.792 153.866 71.9541C153.063 71.1162 152.662 69.9092 152.662 68.333ZM154.288 68.333C154.288 69.5283 154.549 70.4248 155.07 71.0225C155.592 71.6143 156.248 71.9102 157.039 71.9102C157.824 71.9102 158.478 71.6113 158.999 71.0137C159.521 70.416 159.781 69.5049 159.781 68.2803C159.781 67.126 159.518 66.2529 158.99 65.6611C158.469 65.0635 157.818 64.7646 157.039 64.7646C156.248 64.7646 155.592 65.0605 155.07 65.6523C154.549 66.2441 154.288 67.1377 154.288 68.333ZM157.057 61.0117L156.063 62.5059H154.253L156.151 60.0449H157.839L159.816 62.5059H158.023L157.057 61.0117ZM163.271 73V63.666H164.694V64.9932C165.38 63.9678 166.37 63.4551 167.665 63.4551C168.228 63.4551 168.743 63.5576 169.212 63.7627C169.687 63.9619 170.041 64.2256 170.275 64.5537C170.51 64.8818 170.674 65.2715 170.768 65.7227C170.826 66.0156 170.855 66.5283 170.855 67.2607V73H169.273V67.3223C169.273 66.6777 169.212 66.1973 169.089 65.8809C168.966 65.5586 168.746 65.3037 168.43 65.1162C168.119 64.9229 167.753 64.8262 167.331 64.8262C166.657 64.8262 166.074 65.04 165.582 65.4678C165.096 65.8955 164.853 66.707 164.853 67.9023V73H163.271ZM173 73.7734L174.538 74.002C174.603 74.4766 174.781 74.8223 175.074 75.0391C175.467 75.332 176.003 75.4785 176.683 75.4785C177.415 75.4785 177.98 75.332 178.379 75.0391C178.777 74.7461 179.047 74.3359 179.188 73.8086C179.27 73.4863 179.308 72.8096 179.302 71.7783C178.61 72.5928 177.749 73 176.718 73C175.435 73 174.441 72.5371 173.738 71.6113C173.035 70.6855 172.684 69.5752 172.684 68.2803C172.684 67.3896 172.845 66.5693 173.167 65.8193C173.489 65.0635 173.955 64.4805 174.564 64.0703C175.18 63.6602 175.9 63.4551 176.727 63.4551C177.828 63.4551 178.736 63.9004 179.451 64.791V63.666H180.91V71.7344C180.91 73.1875 180.761 74.2158 180.462 74.8193C180.169 75.4287 179.7 75.9092 179.056 76.2607C178.417 76.6123 177.629 76.7881 176.691 76.7881C175.578 76.7881 174.679 76.5361 173.993 76.0322C173.308 75.5342 172.977 74.7812 173 73.7734ZM174.31 68.166C174.31 69.3906 174.553 70.2842 175.039 70.8467C175.525 71.4092 176.135 71.6904 176.867 71.6904C177.594 71.6904 178.203 71.4121 178.695 70.8555C179.188 70.293 179.434 69.4141 179.434 68.2188C179.434 67.0762 179.179 66.2148 178.669 65.6348C178.165 65.0547 177.556 64.7646 176.841 64.7646C176.138 64.7646 175.54 65.0518 175.048 65.626C174.556 66.1943 174.31 67.041 174.31 68.166ZM190.912 73L187.361 63.666H189.031L191.035 69.2559C191.252 69.8594 191.451 70.4863 191.633 71.1367C191.773 70.6445 191.97 70.0527 192.222 69.3613L194.296 63.666H195.922L192.389 73H190.912ZM198.356 68.333C198.356 69.4873 198.617 70.3809 199.139 71.0137C199.631 71.6113 200.287 71.9102 201.107 71.9102C201.928 71.9102 202.581 71.6113 203.067 71.0137C203.589 70.375 203.85 69.4639 203.85 68.2803C203.85 67.1611 203.586 66.2881 203.059 65.6611C202.566 65.0635 201.916 64.7646 201.107 64.7646C200.281 64.7646 199.625 65.0605 199.139 65.6523C198.617 66.2852 198.356 67.1787 198.356 68.333ZM205.687 65.2744V63.4375H207.383V64.8877C207.383 65.6143 207.271 66.1709 207.049 66.5576C206.762 67.0615 206.237 67.5244 205.476 67.9463C205.476 68.0283 205.476 68.1133 205.476 68.2012C205.476 70.3809 204.772 71.8604 203.366 72.6396C202.675 73.0205 201.922 73.2109 201.107 73.2109C199.771 73.2109 198.714 72.792 197.935 71.9541C197.132 71.0869 196.73 69.8799 196.73 68.333C196.73 66.6045 197.211 65.3242 198.172 64.4922C198.975 63.8008 199.953 63.4551 201.107 63.4551C202.391 63.4551 203.439 63.874 204.254 64.7119C204.869 65.3506 205.253 66.1738 205.405 67.1816C205.804 66.9355 206.088 66.6807 206.258 66.417C206.434 66.1533 206.519 65.7725 206.513 65.2744H205.687ZM200.229 62.5059L201.397 60.0449H203.472L201.538 62.5059H200.229ZM209.141 61.9346V60.1152H210.723V61.9346H209.141ZM209.141 73V63.666H210.723V73H209.141ZM218.149 73V60.1152H219.731V64.7383C220.47 63.8828 221.401 63.4551 222.526 63.4551C223.218 63.4551 223.818 63.5928 224.328 63.8682C224.838 64.1377 225.201 64.5127 225.418 64.9932C225.641 65.4736 225.752 66.1709 225.752 67.085V73H224.17V67.085C224.17 66.2939 223.997 65.7197 223.651 65.3623C223.312 64.999 222.828 64.8174 222.201 64.8174C221.732 64.8174 221.29 64.9404 220.874 65.1865C220.464 65.4268 220.171 65.7549 219.995 66.1709C219.819 66.5869 219.731 67.1611 219.731 67.8936V73H218.149ZM234.26 71.8486C233.674 72.3467 233.108 72.6982 232.563 72.9033C232.024 73.1084 231.444 73.2109 230.823 73.2109C229.798 73.2109 229.01 72.9619 228.459 72.4639C227.908 71.96 227.633 71.3184 227.633 70.5391C227.633 70.082 227.735 69.666 227.94 69.291C228.151 68.9102 228.424 68.6055 228.758 68.377C229.098 68.1484 229.479 67.9756 229.9 67.8584C230.211 67.7764 230.68 67.6973 231.307 67.6211C232.584 67.4688 233.524 67.2871 234.128 67.0762C234.134 66.8594 234.137 66.7217 234.137 66.6631C234.137 66.0186 233.987 65.5645 233.688 65.3008C233.284 64.9434 232.684 64.7646 231.887 64.7646C231.143 64.7646 230.592 64.8965 230.234 65.1602C229.883 65.418 229.622 65.8779 229.452 66.54L227.905 66.3291C228.046 65.667 228.277 65.1338 228.6 64.7295C228.922 64.3193 229.388 64.0059 229.997 63.7891C230.606 63.5664 231.312 63.4551 232.115 63.4551C232.912 63.4551 233.56 63.5488 234.058 63.7363C234.556 63.9238 234.922 64.1611 235.156 64.4482C235.391 64.7295 235.555 65.0869 235.648 65.5205C235.701 65.79 235.728 66.2764 235.728 66.9795V69.0889C235.728 70.5596 235.76 71.4912 235.824 71.8838C235.895 72.2705 236.029 72.6426 236.229 73H234.576C234.412 72.6719 234.307 72.2881 234.26 71.8486ZM234.128 68.3154C233.554 68.5498 232.692 68.749 231.544 68.9131C230.894 69.0068 230.434 69.1123 230.164 69.2295C229.895 69.3467 229.687 69.5195 229.54 69.748C229.394 69.9707 229.32 70.2197 229.32 70.4951C229.32 70.917 229.479 71.2686 229.795 71.5498C230.117 71.8311 230.586 71.9717 231.201 71.9717C231.811 71.9717 232.353 71.8398 232.827 71.5762C233.302 71.3066 233.65 70.9404 233.873 70.4775C234.043 70.1201 234.128 69.5928 234.128 68.8955V68.3154ZM233.267 62.5059H231.992L229.962 60.0449H232.08L233.267 62.5059ZM238.188 73V63.666H239.612V64.9932C240.298 63.9678 241.288 63.4551 242.583 63.4551C243.146 63.4551 243.661 63.5576 244.13 63.7627C244.604 63.9619 244.959 64.2256 245.193 64.5537C245.428 64.8818 245.592 65.2715 245.686 65.7227C245.744 66.0156 245.773 66.5283 245.773 67.2607V73H244.191V67.3223C244.191 66.6777 244.13 66.1973 244.007 65.8809C243.884 65.5586 243.664 65.3037 243.348 65.1162C243.037 64.9229 242.671 64.8262 242.249 64.8262C241.575 64.8262 240.992 65.04 240.5 65.4678C240.014 65.8955 239.771 66.707 239.771 67.9023V73H238.188ZM247.918 73.7734L249.456 74.002C249.521 74.4766 249.699 74.8223 249.992 75.0391C250.385 75.332 250.921 75.4785 251.601 75.4785C252.333 75.4785 252.898 75.332 253.297 75.0391C253.695 74.7461 253.965 74.3359 254.105 73.8086C254.188 73.4863 254.226 72.8096 254.22 71.7783C253.528 72.5928 252.667 73 251.636 73C250.353 73 249.359 72.5371 248.656 71.6113C247.953 70.6855 247.602 69.5752 247.602 68.2803C247.602 67.3896 247.763 66.5693 248.085 65.8193C248.407 65.0635 248.873 64.4805 249.482 64.0703C250.098 63.6602 250.818 63.4551 251.645 63.4551C252.746 63.4551 253.654 63.9004 254.369 64.791V63.666H255.828V71.7344C255.828 73.1875 255.679 74.2158 255.38 74.8193C255.087 75.4287 254.618 75.9092 253.974 76.2607C253.335 76.6123 252.547 76.7881 251.609 76.7881C250.496 76.7881 249.597 76.5361 248.911 76.0322C248.226 75.5342 247.895 74.7812 247.918 73.7734ZM249.228 68.166C249.228 69.3906 249.471 70.2842 249.957 70.8467C250.443 71.4092 251.053 71.6904 251.785 71.6904C252.512 71.6904 253.121 71.4121 253.613 70.8555C254.105 70.293 254.352 69.4141 254.352 68.2188C254.352 67.0762 254.097 66.2148 253.587 65.6348C253.083 65.0547 252.474 64.7646 251.759 64.7646C251.056 64.7646 250.458 65.0518 249.966 65.626C249.474 66.1943 249.228 67.041 249.228 68.166ZM262.947 73.7734L264.485 74.002C264.55 74.4766 264.729 74.8223 265.021 75.0391C265.414 75.332 265.95 75.4785 266.63 75.4785C267.362 75.4785 267.928 75.332 268.326 75.0391C268.725 74.7461 268.994 74.3359 269.135 73.8086C269.217 73.4863 269.255 72.8096 269.249 71.7783C268.558 72.5928 267.696 73 266.665 73C265.382 73 264.389 72.5371 263.686 71.6113C262.982 70.6855 262.631 69.5752 262.631 68.2803C262.631 67.3896 262.792 66.5693 263.114 65.8193C263.437 65.0635 263.902 64.4805 264.512 64.0703C265.127 63.6602 265.848 63.4551 266.674 63.4551C267.775 63.4551 268.684 63.9004 269.398 64.791V63.666H270.857V71.7344C270.857 73.1875 270.708 74.2158 270.409 74.8193C270.116 75.4287 269.647 75.9092 269.003 76.2607C268.364 76.6123 267.576 76.7881 266.639 76.7881C265.525 76.7881 264.626 76.5361 263.94 76.0322C263.255 75.5342 262.924 74.7812 262.947 73.7734ZM264.257 68.166C264.257 69.3906 264.5 70.2842 264.986 70.8467C265.473 71.4092 266.082 71.6904 266.814 71.6904C267.541 71.6904 268.15 71.4121 268.643 70.8555C269.135 70.293 269.381 69.4141 269.381 68.2188C269.381 67.0762 269.126 66.2148 268.616 65.6348C268.112 65.0547 267.503 64.7646 266.788 64.7646C266.085 64.7646 265.487 65.0518 264.995 65.626C264.503 66.1943 264.257 67.041 264.257 68.166ZM273.266 61.9346V60.1152H274.848V61.9346H273.266ZM273.266 73V63.666H274.848V73H273.266ZM283.355 71.8486C282.77 72.3467 282.204 72.6982 281.659 72.9033C281.12 73.1084 280.54 73.2109 279.919 73.2109C278.894 73.2109 278.105 72.9619 277.555 72.4639C277.004 71.96 276.729 71.3184 276.729 70.5391C276.729 70.082 276.831 69.666 277.036 69.291C277.247 68.9102 277.52 68.6055 277.854 68.377C278.193 68.1484 278.574 67.9756 278.996 67.8584C279.307 67.7764 279.775 67.6973 280.402 67.6211C281.68 67.4688 282.62 67.2871 283.224 67.0762C283.229 66.8594 283.232 66.7217 283.232 66.6631C283.232 66.0186 283.083 65.5645 282.784 65.3008C282.38 64.9434 281.779 64.7646 280.982 64.7646C280.238 64.7646 279.688 64.8965 279.33 65.1602C278.979 65.418 278.718 65.8779 278.548 66.54L277.001 66.3291C277.142 65.667 277.373 65.1338 277.695 64.7295C278.018 64.3193 278.483 64.0059 279.093 63.7891C279.702 63.5664 280.408 63.4551 281.211 63.4551C282.008 63.4551 282.655 63.5488 283.153 63.7363C283.651 63.9238 284.018 64.1611 284.252 64.4482C284.486 64.7295 284.65 65.0869 284.744 65.5205C284.797 65.79 284.823 66.2764 284.823 66.9795V69.0889C284.823 70.5596 284.855 71.4912 284.92 71.8838C284.99 72.2705 285.125 72.6426 285.324 73H283.672C283.508 72.6719 283.402 72.2881 283.355 71.8486ZM283.224 68.3154C282.649 68.5498 281.788 68.749 280.64 68.9131C279.989 69.0068 279.529 69.1123 279.26 69.2295C278.99 69.3467 278.782 69.5195 278.636 69.748C278.489 69.9707 278.416 70.2197 278.416 70.4951C278.416 70.917 278.574 71.2686 278.891 71.5498C279.213 71.8311 279.682 71.9717 280.297 71.9717C280.906 71.9717 281.448 71.8398 281.923 71.5762C282.397 71.3066 282.746 70.9404 282.969 70.4775C283.139 70.1201 283.224 69.5928 283.224 68.8955V68.3154ZM280.736 61.4512C281.07 61.416 281.284 61.3838 281.378 61.3545C281.688 61.249 281.847 61.085 281.853 60.8623C281.858 60.7275 281.776 60.6133 281.606 60.5195C281.36 60.3848 280.971 60.3174 280.438 60.3174C280.256 60.3174 279.98 60.3291 279.611 60.3525L279.515 59.4561C279.743 59.4092 280.165 59.3887 280.78 59.3945C281.501 59.4004 282.09 59.5176 282.547 59.7461C283.051 59.9922 283.309 60.335 283.32 60.7744C283.344 61.501 282.811 61.9316 281.721 62.0664V62.5059H280.736V61.4512Z" fill="black"/>
<path d="M594.274 51V38.1152H598.168L600.506 46.9043L602.817 38.1152H606.72V51H604.303V40.8574L601.745 51H599.24L596.691 40.8574V51H594.274ZM609.286 40.4004V38.1152H611.756V40.4004H609.286ZM609.286 51V41.666H611.756V51H609.286ZM619.701 48.0293L622.162 48.4424C621.846 49.3447 621.345 50.0332 620.659 50.5078C619.979 50.9766 619.127 51.2109 618.102 51.2109C616.479 51.2109 615.277 50.6807 614.498 49.6201C613.883 48.7705 613.575 47.6982 613.575 46.4033C613.575 44.8564 613.979 43.6465 614.788 42.7734C615.597 41.8945 616.619 41.4551 617.855 41.4551C619.244 41.4551 620.34 41.915 621.143 42.835C621.945 43.749 622.329 45.1523 622.294 47.0449H616.106C616.124 47.7773 616.323 48.3486 616.704 48.7588C617.085 49.1631 617.56 49.3652 618.128 49.3652C618.515 49.3652 618.84 49.2598 619.104 49.0488C619.367 48.8379 619.566 48.498 619.701 48.0293ZM619.842 45.5332C619.824 44.8184 619.64 44.2764 619.288 43.9072C618.937 43.5322 618.509 43.3447 618.005 43.3447C617.466 43.3447 617.021 43.541 616.669 43.9336C616.317 44.3262 616.145 44.8594 616.15 45.5332H619.842ZM614.964 40.4883L616.81 37.8955H619.095L620.914 40.4883H618.928L617.908 39.1787L616.959 40.4883H614.964ZM615.104 37.4033C615.099 36.8057 615.26 36.3223 615.588 35.9531C615.922 35.584 616.355 35.3994 616.889 35.3994C617.252 35.3994 617.747 35.5576 618.374 35.874C618.72 36.0498 618.995 36.1377 619.2 36.1377C619.558 36.1377 619.771 35.8828 619.842 35.373H620.984C620.949 36.709 620.375 37.377 619.262 37.377C618.893 37.377 618.406 37.2129 617.803 36.8848C617.41 36.6738 617.123 36.5684 616.941 36.5684C616.484 36.5684 616.262 36.8467 616.273 37.4033H615.104ZM632.806 51H630.336V46.2363C630.336 45.2285 630.283 44.5781 630.178 44.2852C630.072 43.9863 629.899 43.7549 629.659 43.5908C629.425 43.4268 629.141 43.3447 628.807 43.3447C628.379 43.3447 627.995 43.4619 627.655 43.6963C627.315 43.9307 627.081 44.2412 626.952 44.6279C626.829 45.0146 626.768 45.7295 626.768 46.7725V51H624.298V41.666H626.592V43.0371C627.406 41.9824 628.432 41.4551 629.668 41.4551C630.213 41.4551 630.711 41.5547 631.162 41.7539C631.613 41.9473 631.953 42.1963 632.182 42.501C632.416 42.8057 632.577 43.1514 632.665 43.5381C632.759 43.9248 632.806 44.4785 632.806 45.1992V51ZM640.259 41.666H642.562V43.0371C642.86 42.5684 643.265 42.1875 643.774 41.8945C644.284 41.6016 644.85 41.4551 645.471 41.4551C646.555 41.4551 647.475 41.8799 648.23 42.7295C648.986 43.5791 649.364 44.7627 649.364 46.2803C649.364 47.8389 648.983 49.0518 648.222 49.9189C647.46 50.7803 646.537 51.2109 645.453 51.2109C644.938 51.2109 644.469 51.1084 644.047 50.9033C643.631 50.6982 643.191 50.3467 642.729 49.8486V54.5508H640.259V41.666ZM642.702 46.1748C642.702 47.2236 642.91 48 643.326 48.5039C643.742 49.002 644.249 49.251 644.847 49.251C645.421 49.251 645.898 49.0225 646.279 48.5654C646.66 48.1025 646.851 47.3467 646.851 46.2979C646.851 45.3193 646.654 44.5928 646.262 44.1182C645.869 43.6436 645.383 43.4062 644.803 43.4062C644.199 43.4062 643.698 43.6406 643.3 44.1094C642.901 44.5723 642.702 45.2607 642.702 46.1748ZM653.794 38.1152V42.8525C654.591 41.9209 655.543 41.4551 656.65 41.4551C657.219 41.4551 657.731 41.5605 658.188 41.7715C658.646 41.9824 658.988 42.252 659.217 42.5801C659.451 42.9082 659.609 43.2715 659.691 43.6699C659.779 44.0684 659.823 44.6865 659.823 45.5244V51H657.354V46.0693C657.354 45.0908 657.307 44.4697 657.213 44.2061C657.119 43.9424 656.952 43.7344 656.712 43.582C656.478 43.4238 656.182 43.3447 655.824 43.3447C655.414 43.3447 655.048 43.4443 654.726 43.6436C654.403 43.8428 654.166 44.1445 654.014 44.5488C653.867 44.9473 653.794 45.5391 653.794 46.3242V51H651.324V38.1152H653.794ZM662.337 51V41.666H664.807V51H662.337ZM662.152 40.5234L663.365 37.8955H666.134L663.717 40.5234H662.152ZM674.923 51L671.161 41.666H673.754L675.512 46.4297L676.021 48.0205C676.156 47.6162 676.241 47.3496 676.276 47.2207C676.358 46.957 676.446 46.6934 676.54 46.4297L678.315 41.666H680.855L677.146 51H674.923ZM684.222 44.5137L681.98 44.1094C682.232 43.207 682.666 42.5391 683.281 42.1055C683.896 41.6719 684.811 41.4551 686.023 41.4551C687.125 41.4551 687.945 41.5869 688.484 41.8506C689.023 42.1084 689.401 42.4395 689.618 42.8438C689.841 43.2422 689.952 43.9775 689.952 45.0498L689.926 47.9326C689.926 48.7529 689.964 49.3594 690.04 49.752C690.122 50.1387 690.271 50.5547 690.488 51H688.045C687.98 50.8359 687.901 50.5928 687.808 50.2705C687.767 50.124 687.737 50.0273 687.72 49.9805C687.298 50.3906 686.847 50.6982 686.366 50.9033C685.886 51.1084 685.373 51.2109 684.828 51.2109C683.867 51.2109 683.108 50.9502 682.552 50.4287C682.001 49.9072 681.726 49.248 681.726 48.4512C681.726 47.9238 681.852 47.4551 682.104 47.0449C682.355 46.6289 682.707 46.3125 683.158 46.0957C683.615 45.873 684.271 45.6797 685.127 45.5156C686.281 45.2988 687.081 45.0967 687.526 44.9092V44.6631C687.526 44.1885 687.409 43.8516 687.175 43.6523C686.94 43.4473 686.498 43.3447 685.848 43.3447C685.408 43.3447 685.065 43.4326 684.819 43.6084C684.573 43.7783 684.374 44.0801 684.222 44.5137ZM687.526 46.5176C687.21 46.623 686.709 46.749 686.023 46.8955C685.338 47.042 684.89 47.1855 684.679 47.3262C684.356 47.5547 684.195 47.8447 684.195 48.1963C684.195 48.542 684.324 48.8408 684.582 49.0928C684.84 49.3447 685.168 49.4707 685.566 49.4707C686.012 49.4707 686.437 49.3242 686.841 49.0312C687.14 48.8086 687.336 48.5361 687.43 48.2139C687.494 48.0029 687.526 47.6016 687.526 47.0098V46.5176ZM683.132 40.4883L684.978 37.8955H687.263L689.082 40.4883H687.096L686.076 39.1787L685.127 40.4883H683.132ZM684.494 54.5244V52.0547H686.964V54.5244H684.494ZM700.886 51H698.416V46.2363C698.416 45.2285 698.363 44.5781 698.258 44.2852C698.152 43.9863 697.979 43.7549 697.739 43.5908C697.505 43.4268 697.221 43.3447 696.887 43.3447C696.459 43.3447 696.075 43.4619 695.735 43.6963C695.396 43.9307 695.161 44.2412 695.032 44.6279C694.909 45.0146 694.848 45.7295 694.848 46.7725V51H692.378V41.666H694.672V43.0371C695.486 41.9824 696.512 41.4551 697.748 41.4551C698.293 41.4551 698.791 41.5547 699.242 41.7539C699.693 41.9473 700.033 42.1963 700.262 42.501C700.496 42.8057 700.657 43.1514 700.745 43.5381C700.839 43.9248 700.886 44.4785 700.886 45.1992V51ZM716.548 44.4258L714.113 44.8652C714.031 44.3789 713.844 44.0127 713.551 43.7666C713.264 43.5205 712.889 43.3975 712.426 43.3975C711.811 43.3975 711.318 43.6113 710.949 44.0391C710.586 44.4609 710.404 45.1699 710.404 46.166C710.404 47.2734 710.589 48.0557 710.958 48.5127C711.333 48.9697 711.834 49.1982 712.461 49.1982C712.93 49.1982 713.313 49.0664 713.612 48.8027C713.911 48.5332 714.122 48.0732 714.245 47.4229L716.671 47.8359C716.419 48.9492 715.936 49.79 715.221 50.3584C714.506 50.9268 713.548 51.2109 712.347 51.2109C710.981 51.2109 709.892 50.7803 709.077 49.9189C708.269 49.0576 707.864 47.8652 707.864 46.3418C707.864 44.8008 708.271 43.6025 709.086 42.7471C709.9 41.8857 711.002 41.4551 712.391 41.4551C713.527 41.4551 714.43 41.7012 715.098 42.1934C715.771 42.6797 716.255 43.4238 716.548 44.4258ZM720.89 38.1152V42.8525C721.687 41.9209 722.639 41.4551 723.746 41.4551C724.314 41.4551 724.827 41.5605 725.284 41.7715C725.741 41.9824 726.084 42.252 726.312 42.5801C726.547 42.9082 726.705 43.2715 726.787 43.6699C726.875 44.0684 726.919 44.6865 726.919 45.5244V51H724.449V46.0693C724.449 45.0908 724.402 44.4697 724.309 44.2061C724.215 43.9424 724.048 43.7344 723.808 43.582C723.573 43.4238 723.277 43.3447 722.92 43.3447C722.51 43.3447 722.144 43.4443 721.821 43.6436C721.499 43.8428 721.262 44.1445 721.109 44.5488C720.963 44.9473 720.89 45.5391 720.89 46.3242V51H718.42V38.1152H720.89ZM735.576 51V49.6025C735.236 50.1006 734.788 50.4932 734.231 50.7803C733.681 51.0674 733.098 51.2109 732.482 51.2109C731.855 51.2109 731.293 51.0732 730.795 50.7979C730.297 50.5225 729.937 50.1357 729.714 49.6377C729.491 49.1396 729.38 48.4512 729.38 47.5723V41.666H731.85V45.9551C731.85 47.2676 731.894 48.0732 731.981 48.3721C732.075 48.665 732.242 48.8994 732.482 49.0752C732.723 49.2451 733.027 49.3301 733.396 49.3301C733.818 49.3301 734.196 49.2158 734.53 48.9873C734.864 48.7529 735.093 48.4658 735.216 48.126C735.339 47.7803 735.4 46.9395 735.4 45.6035V41.666H737.87V51H735.576ZM739.268 41.666H741.896L744.128 48.293L746.308 41.666H748.865L745.569 50.6484L744.98 52.2744C744.764 52.8193 744.556 53.2354 744.356 53.5225C744.163 53.8096 743.938 54.041 743.68 54.2168C743.428 54.3984 743.114 54.5391 742.739 54.6387C742.37 54.7383 741.951 54.7881 741.482 54.7881C741.008 54.7881 740.542 54.7383 740.085 54.6387L739.865 52.7051C740.252 52.7812 740.601 52.8193 740.911 52.8193C741.485 52.8193 741.91 52.6494 742.186 52.3096C742.461 51.9756 742.672 51.5479 742.818 51.0264L739.268 41.666ZM755.861 48.0293L758.322 48.4424C758.006 49.3447 757.505 50.0332 756.819 50.5078C756.14 50.9766 755.287 51.2109 754.262 51.2109C752.639 51.2109 751.438 50.6807 750.658 49.6201C750.043 48.7705 749.735 47.6982 749.735 46.4033C749.735 44.8564 750.14 43.6465 750.948 42.7734C751.757 41.8945 752.779 41.4551 754.016 41.4551C755.404 41.4551 756.5 41.915 757.303 42.835C758.105 43.749 758.489 45.1523 758.454 47.0449H752.267C752.284 47.7773 752.483 48.3486 752.864 48.7588C753.245 49.1631 753.72 49.3652 754.288 49.3652C754.675 49.3652 755 49.2598 755.264 49.0488C755.527 48.8379 755.727 48.498 755.861 48.0293ZM756.002 45.5332C755.984 44.8184 755.8 44.2764 755.448 43.9072C755.097 43.5322 754.669 43.3447 754.165 43.3447C753.626 43.3447 753.181 43.541 752.829 43.9336C752.478 44.3262 752.305 44.8594 752.311 45.5332H756.002ZM751.124 40.4883L752.97 37.8955H755.255L757.074 40.4883H755.088L754.068 39.1787L753.119 40.4883H751.124ZM753.576 36.6738C753.91 36.6387 754.124 36.6064 754.218 36.5771C754.528 36.501 754.687 36.3662 754.692 36.1729C754.698 36.0381 754.616 35.9238 754.446 35.8301C754.2 35.6953 753.811 35.6279 753.277 35.6279C753.096 35.6279 752.82 35.6396 752.451 35.6631L752.354 34.7666C752.583 34.7197 753.005 34.6992 753.62 34.7051C754.341 34.7109 754.93 34.8281 755.387 35.0566C755.891 35.3027 756.148 35.6455 756.16 36.085C756.184 36.6943 755.65 37.0664 754.561 37.2012V37.6406H753.576V36.6738ZM768.966 51H766.496V46.2363C766.496 45.2285 766.443 44.5781 766.338 44.2852C766.232 43.9863 766.06 43.7549 765.819 43.5908C765.585 43.4268 765.301 43.3447 764.967 43.3447C764.539 43.3447 764.155 43.4619 763.815 43.6963C763.476 43.9307 763.241 44.2412 763.112 44.6279C762.989 45.0146 762.928 45.7295 762.928 46.7725V51H760.458V41.666H762.752V43.0371C763.566 41.9824 764.592 41.4551 765.828 41.4551C766.373 41.4551 766.871 41.5547 767.322 41.7539C767.773 41.9473 768.113 42.1963 768.342 42.501C768.576 42.8057 768.737 43.1514 768.825 43.5381C768.919 43.9248 768.966 44.4785 768.966 45.1992V51ZM594.389 72V59.1152H598.827C599.829 59.1152 600.594 59.1768 601.121 59.2998C601.859 59.4697 602.489 59.7773 603.011 60.2227C603.69 60.7969 604.197 61.5322 604.531 62.4287C604.871 63.3193 605.041 64.3389 605.041 65.4873C605.041 66.4658 604.927 67.333 604.698 68.0889C604.47 68.8447 604.177 69.4717 603.819 69.9697C603.462 70.4619 603.069 70.8516 602.642 71.1387C602.22 71.4199 601.707 71.6338 601.104 71.7803C600.506 71.9268 599.817 72 599.038 72H594.389ZM596.094 70.4795H598.845C599.694 70.4795 600.359 70.4004 600.84 70.2422C601.326 70.084 601.713 69.8613 602 69.5742C602.404 69.1699 602.718 68.6279 602.94 67.9482C603.169 67.2627 603.283 66.4336 603.283 65.4609C603.283 64.1133 603.061 63.0791 602.615 62.3584C602.176 61.6318 601.64 61.1455 601.007 60.8994C600.55 60.7236 599.814 60.6357 598.801 60.6357H596.094V70.4795ZM613.285 70.8486C612.699 71.3467 612.134 71.6982 611.589 71.9033C611.05 72.1084 610.47 72.2109 609.849 72.2109C608.823 72.2109 608.035 71.9619 607.484 71.4639C606.934 70.96 606.658 70.3184 606.658 69.5391C606.658 69.082 606.761 68.666 606.966 68.291C607.177 67.9102 607.449 67.6055 607.783 67.377C608.123 67.1484 608.504 66.9756 608.926 66.8584C609.236 66.7764 609.705 66.6973 610.332 66.6211C611.609 66.4688 612.55 66.2871 613.153 66.0762C613.159 65.8594 613.162 65.7217 613.162 65.6631C613.162 65.0186 613.013 64.5645 612.714 64.3008C612.31 63.9434 611.709 63.7646 610.912 63.7646C610.168 63.7646 609.617 63.8965 609.26 64.1602C608.908 64.418 608.647 64.8779 608.478 65.54L606.931 65.3291C607.071 64.667 607.303 64.1338 607.625 63.7295C607.947 63.3193 608.413 63.0059 609.022 62.7891C609.632 62.5664 610.338 62.4551 611.141 62.4551C611.938 62.4551 612.585 62.5488 613.083 62.7363C613.581 62.9238 613.947 63.1611 614.182 63.4482C614.416 63.7295 614.58 64.0869 614.674 64.5205C614.727 64.79 614.753 65.2764 614.753 65.9795V68.0889C614.753 69.5596 614.785 70.4912 614.85 70.8838C614.92 71.2705 615.055 71.6426 615.254 72H613.602C613.438 71.6719 613.332 71.2881 613.285 70.8486ZM613.153 67.3154C612.579 67.5498 611.718 67.749 610.569 67.9131C609.919 68.0068 609.459 68.1123 609.189 68.2295C608.92 68.3467 608.712 68.5195 608.565 68.748C608.419 68.9707 608.346 69.2197 608.346 69.4951C608.346 69.917 608.504 70.2686 608.82 70.5498C609.143 70.8311 609.611 70.9717 610.227 70.9717C610.836 70.9717 611.378 70.8398 611.853 70.5762C612.327 70.3066 612.676 69.9404 612.898 69.4775C613.068 69.1201 613.153 68.5928 613.153 67.8955V67.3154ZM612.292 61.5059H611.018L608.987 59.0449H611.105L612.292 61.5059ZM617.214 72V62.666H618.638V63.9932C619.323 62.9678 620.313 62.4551 621.608 62.4551C622.171 62.4551 622.687 62.5576 623.155 62.7627C623.63 62.9619 623.984 63.2256 624.219 63.5537C624.453 63.8818 624.617 64.2715 624.711 64.7227C624.77 65.0156 624.799 65.5283 624.799 66.2607V72H623.217V66.3223C623.217 65.6777 623.155 65.1973 623.032 64.8809C622.909 64.5586 622.689 64.3037 622.373 64.1162C622.062 63.9229 621.696 63.8262 621.274 63.8262C620.601 63.8262 620.018 64.04 619.525 64.4678C619.039 64.8955 618.796 65.707 618.796 66.9023V72H617.214ZM627.233 72V59.1152H628.815V63.7383C629.554 62.8828 630.485 62.4551 631.61 62.4551C632.302 62.4551 632.902 62.5928 633.412 62.8682C633.922 63.1377 634.285 63.5127 634.502 63.9932C634.725 64.4736 634.836 65.1709 634.836 66.085V72H633.254V66.085C633.254 65.2939 633.081 64.7197 632.735 64.3623C632.396 63.999 631.912 63.8174 631.285 63.8174C630.816 63.8174 630.374 63.9404 629.958 64.1865C629.548 64.4268 629.255 64.7549 629.079 65.1709C628.903 65.5869 628.815 66.1611 628.815 66.8936V72H627.233ZM648.354 68.5811L649.909 68.7832C649.739 69.8555 649.303 70.6963 648.6 71.3057C647.902 71.9092 647.044 72.2109 646.024 72.2109C644.747 72.2109 643.719 71.7949 642.939 70.9629C642.166 70.125 641.779 68.9268 641.779 67.3682C641.779 66.3604 641.946 65.4785 642.28 64.7227C642.614 63.9668 643.121 63.4014 643.801 63.0264C644.486 62.6455 645.23 62.4551 646.033 62.4551C647.047 62.4551 647.876 62.7129 648.521 63.2285C649.165 63.7383 649.578 64.4648 649.76 65.4082L648.222 65.6455C648.075 65.0186 647.814 64.5469 647.439 64.2305C647.07 63.9141 646.622 63.7559 646.095 63.7559C645.298 63.7559 644.65 64.043 644.152 64.6172C643.654 65.1855 643.405 66.0879 643.405 67.3242C643.405 68.5781 643.646 69.4893 644.126 70.0576C644.606 70.626 645.233 70.9102 646.007 70.9102C646.628 70.9102 647.146 70.7197 647.562 70.3389C647.979 69.958 648.242 69.3721 648.354 68.5811ZM651.263 72V59.1152H652.845V63.7383C653.583 62.8828 654.515 62.4551 655.64 62.4551C656.331 62.4551 656.932 62.5928 657.441 62.8682C657.951 63.1377 658.314 63.5127 658.531 63.9932C658.754 64.4736 658.865 65.1709 658.865 66.085V72H657.283V66.085C657.283 65.2939 657.11 64.7197 656.765 64.3623C656.425 63.999 655.941 63.8174 655.314 63.8174C654.846 63.8174 654.403 63.9404 653.987 64.1865C653.577 64.4268 653.284 64.7549 653.108 65.1709C652.933 65.5869 652.845 66.1611 652.845 66.8936V72H651.263ZM660.693 67.333C660.693 65.6045 661.174 64.3242 662.135 63.4922C662.938 62.8008 663.916 62.4551 665.07 62.4551C666.354 62.4551 667.402 62.877 668.217 63.7207C669.031 64.5586 669.438 65.7188 669.438 67.2012C669.438 68.4023 669.257 69.3486 668.894 70.04C668.536 70.7256 668.012 71.2588 667.32 71.6396C666.635 72.0205 665.885 72.2109 665.07 72.2109C663.764 72.2109 662.706 71.792 661.897 70.9541C661.095 70.1162 660.693 68.9092 660.693 67.333ZM662.319 67.333C662.319 68.5283 662.58 69.4248 663.102 70.0225C663.623 70.6143 664.279 70.9102 665.07 70.9102C665.855 70.9102 666.509 70.6113 667.03 70.0137C667.552 69.416 667.812 68.5049 667.812 67.2803C667.812 66.126 667.549 65.2529 667.021 64.6611C666.5 64.0635 665.85 63.7646 665.07 63.7646C664.279 63.7646 663.623 64.0605 663.102 64.6523C662.58 65.2441 662.319 66.1377 662.319 67.333ZM682.262 61.2861H679.221V60.126H682.262V59.1152H683.835V60.126H685.109V61.2861H683.835V72H682.367V70.8223C681.775 71.748 680.905 72.2109 679.757 72.2109C679.013 72.2109 678.327 72.0059 677.7 71.5957C677.079 71.1855 676.596 70.6143 676.25 69.8818C675.91 69.1436 675.74 68.2969 675.74 67.3418C675.74 66.4102 675.896 65.5664 676.206 64.8105C676.517 64.0488 676.982 63.4658 677.604 63.0615C678.225 62.6572 678.919 62.4551 679.687 62.4551C680.249 62.4551 680.75 62.5752 681.189 62.8154C681.629 63.0498 681.986 63.3574 682.262 63.7383V61.2861ZM677.366 67.3418C677.366 68.5371 677.618 69.4307 678.122 70.0225C678.626 70.6143 679.221 70.9102 679.906 70.9102C680.598 70.9102 681.184 70.6289 681.664 70.0664C682.15 69.498 682.394 68.6338 682.394 67.4736C682.394 66.1963 682.147 65.2588 681.655 64.6611C681.163 64.0635 680.557 63.7646 679.836 63.7646C679.133 63.7646 678.544 64.0518 678.069 64.626C677.601 65.2002 677.366 66.1055 677.366 67.3418ZM687.368 67.333C687.368 68.4873 687.629 69.3809 688.15 70.0137C688.643 70.6113 689.299 70.9102 690.119 70.9102C690.939 70.9102 691.593 70.6113 692.079 70.0137C692.601 69.375 692.861 68.4639 692.861 67.2803C692.861 66.1611 692.598 65.2881 692.07 64.6611C691.578 64.0635 690.928 63.7646 690.119 63.7646C689.293 63.7646 688.637 64.0605 688.15 64.6523C687.629 65.2852 687.368 66.1787 687.368 67.333ZM694.698 64.2744V62.4375H696.395V63.8877C696.395 64.6143 696.283 65.1709 696.061 65.5576C695.773 66.0615 695.249 66.5244 694.487 66.9463C694.487 67.0283 694.487 67.1133 694.487 67.2012C694.487 69.3809 693.784 70.8604 692.378 71.6396C691.687 72.0205 690.934 72.2109 690.119 72.2109C688.783 72.2109 687.726 71.792 686.946 70.9541C686.144 70.0869 685.742 68.8799 685.742 67.333C685.742 65.6045 686.223 64.3242 687.184 63.4922C687.986 62.8008 688.965 62.4551 690.119 62.4551C691.402 62.4551 692.451 62.874 693.266 63.7119C693.881 64.3506 694.265 65.1738 694.417 66.1816C694.815 65.9355 695.1 65.6807 695.27 65.417C695.445 65.1533 695.53 64.7725 695.524 64.2744H694.698ZM698.144 72V62.666H699.567V63.9932C700.253 62.9678 701.243 62.4551 702.538 62.4551C703.101 62.4551 703.616 62.5576 704.085 62.7627C704.56 62.9619 704.914 63.2256 705.148 63.5537C705.383 63.8818 705.547 64.2715 705.641 64.7227C705.699 65.0156 705.729 65.5283 705.729 66.2607V72H704.146V66.3223C704.146 65.6777 704.085 65.1973 703.962 64.8809C703.839 64.5586 703.619 64.3037 703.303 64.1162C702.992 63.9229 702.626 63.8262 702.204 63.8262C701.53 63.8262 700.947 64.04 700.455 64.4678C699.969 64.8955 699.726 65.707 699.726 66.9023V72H698.144ZM713.173 72V59.1152H714.755V63.7383C715.493 62.8828 716.425 62.4551 717.55 62.4551C718.241 62.4551 718.842 62.5928 719.352 62.8682C719.861 63.1377 720.225 63.5127 720.441 63.9932C720.664 64.4736 720.775 65.1709 720.775 66.085V72H719.193V66.085C719.193 65.2939 719.021 64.7197 718.675 64.3623C718.335 63.999 717.852 63.8174 717.225 63.8174C716.756 63.8174 716.313 63.9404 715.897 64.1865C715.487 64.4268 715.194 64.7549 715.019 65.1709C714.843 65.5869 714.755 66.1611 714.755 66.8936V72H713.173ZM729.283 70.8486C728.697 71.3467 728.132 71.6982 727.587 71.9033C727.048 72.1084 726.468 72.2109 725.847 72.2109C724.821 72.2109 724.033 71.9619 723.482 71.4639C722.932 70.96 722.656 70.3184 722.656 69.5391C722.656 69.082 722.759 68.666 722.964 68.291C723.175 67.9102 723.447 67.6055 723.781 67.377C724.121 67.1484 724.502 66.9756 724.924 66.8584C725.234 66.7764 725.703 66.6973 726.33 66.6211C727.607 66.4688 728.548 66.2871 729.151 66.0762C729.157 65.8594 729.16 65.7217 729.16 65.6631C729.16 65.0186 729.011 64.5645 728.712 64.3008C728.308 63.9434 727.707 63.7646 726.91 63.7646C726.166 63.7646 725.615 63.8965 725.258 64.1602C724.906 64.418 724.646 64.8779 724.476 65.54L722.929 65.3291C723.069 64.667 723.301 64.1338 723.623 63.7295C723.945 63.3193 724.411 63.0059 725.021 62.7891C725.63 62.5664 726.336 62.4551 727.139 62.4551C727.936 62.4551 728.583 62.5488 729.081 62.7363C729.579 62.9238 729.945 63.1611 730.18 63.4482C730.414 63.7295 730.578 64.0869 730.672 64.5205C730.725 64.79 730.751 65.2764 730.751 65.9795V68.0889C730.751 69.5596 730.783 70.4912 730.848 70.8838C730.918 71.2705 731.053 71.6426 731.252 72H729.6C729.436 71.6719 729.33 71.2881 729.283 70.8486ZM729.151 67.3154C728.577 67.5498 727.716 67.749 726.567 67.9131C725.917 68.0068 725.457 68.1123 725.188 68.2295C724.918 68.3467 724.71 68.5195 724.563 68.748C724.417 68.9707 724.344 69.2197 724.344 69.4951C724.344 69.917 724.502 70.2686 724.818 70.5498C725.141 70.8311 725.609 70.9717 726.225 70.9717C726.834 70.9717 727.376 70.8398 727.851 70.5762C728.325 70.3066 728.674 69.9404 728.896 69.4775C729.066 69.1201 729.151 68.5928 729.151 67.8955V67.3154ZM728.29 61.5059H727.016L724.985 59.0449H727.104L728.29 61.5059ZM733.212 72V62.666H734.636V63.9932C735.321 62.9678 736.312 62.4551 737.606 62.4551C738.169 62.4551 738.685 62.5576 739.153 62.7627C739.628 62.9619 739.982 63.2256 740.217 63.5537C740.451 63.8818 740.615 64.2715 740.709 64.7227C740.768 65.0156 740.797 65.5283 740.797 66.2607V72H739.215V66.3223C739.215 65.6777 739.153 65.1973 739.03 64.8809C738.907 64.5586 738.688 64.3037 738.371 64.1162C738.061 63.9229 737.694 63.8262 737.272 63.8262C736.599 63.8262 736.016 64.04 735.523 64.4678C735.037 64.8955 734.794 65.707 734.794 66.9023V72H733.212ZM742.941 72.7734L744.479 73.002C744.544 73.4766 744.723 73.8223 745.016 74.0391C745.408 74.332 745.944 74.4785 746.624 74.4785C747.356 74.4785 747.922 74.332 748.32 74.0391C748.719 73.7461 748.988 73.3359 749.129 72.8086C749.211 72.4863 749.249 71.8096 749.243 70.7783C748.552 71.5928 747.69 72 746.659 72C745.376 72 744.383 71.5371 743.68 70.6113C742.977 69.6855 742.625 68.5752 742.625 67.2803C742.625 66.3896 742.786 65.5693 743.108 64.8193C743.431 64.0635 743.896 63.4805 744.506 63.0703C745.121 62.6602 745.842 62.4551 746.668 62.4551C747.77 62.4551 748.678 62.9004 749.393 63.791V62.666H750.852V70.7344C750.852 72.1875 750.702 73.2158 750.403 73.8193C750.11 74.4287 749.642 74.9092 748.997 75.2607C748.358 75.6123 747.57 75.7881 746.633 75.7881C745.52 75.7881 744.62 75.5361 743.935 75.0322C743.249 74.5342 742.918 73.7812 742.941 72.7734ZM744.251 67.166C744.251 68.3906 744.494 69.2842 744.98 69.8467C745.467 70.4092 746.076 70.6904 746.809 70.6904C747.535 70.6904 748.145 70.4121 748.637 69.8555C749.129 69.293 749.375 68.4141 749.375 67.2188C749.375 66.0762 749.12 65.2148 748.61 64.6348C748.106 64.0547 747.497 63.7646 746.782 63.7646C746.079 63.7646 745.481 64.0518 744.989 64.626C744.497 65.1943 744.251 66.041 744.251 67.166ZM761.715 70.585L761.943 71.9824C761.498 72.0762 761.1 72.123 760.748 72.123C760.174 72.123 759.729 72.0322 759.412 71.8506C759.096 71.6689 758.873 71.4316 758.744 71.1387C758.615 70.8398 758.551 70.2158 758.551 69.2666V63.8965H757.391V62.666H758.551V60.3545L760.124 59.4053V62.666H761.715V63.8965H760.124V69.3545C760.124 69.8057 760.15 70.0957 760.203 70.2246C760.262 70.3535 760.353 70.4561 760.476 70.5322C760.604 70.6084 760.786 70.6465 761.021 70.6465C761.196 70.6465 761.428 70.626 761.715 70.585ZM771.893 64.5029V62.666H773.589V64.1162C773.589 65.0361 773.483 65.6777 773.272 66.041C772.733 66.9785 771.91 67.5059 770.803 67.623V72H769.388V70.6289C768.661 71.6836 767.674 72.2109 766.426 72.2109C765.881 72.2109 765.368 72.1084 764.888 71.9033C764.413 71.6924 764.059 71.4258 763.824 71.1035C763.59 70.7812 763.426 70.3887 763.332 69.9258C763.268 69.6094 763.235 69.1172 763.235 68.4492V62.666H764.817V67.8428C764.817 68.6807 764.85 69.2373 764.914 69.5127C765.119 70.4033 765.729 70.8486 766.742 70.8486C767.229 70.8486 767.677 70.7256 768.087 70.4795C768.503 70.2334 768.796 69.9023 768.966 69.4863C769.136 69.0703 769.221 68.4639 769.221 67.667V62.666H770.803V66.9551C771.547 66.8262 772.104 66.4775 772.473 65.9092C772.637 65.6631 772.719 65.1943 772.719 64.5029H771.893ZM768.122 61.5059H766.848L764.817 59.0449H766.936L768.122 61.5059ZM785.858 72H784.276V61.9189C783.896 62.2822 783.395 62.6455 782.773 63.0088C782.158 63.3721 781.604 63.6445 781.112 63.8262V62.2969C781.997 61.8809 782.771 61.377 783.433 60.7852C784.095 60.1934 784.563 59.6191 784.839 59.0625H785.858V72ZM789.919 65.6455C789.919 64.1221 790.074 62.8975 790.385 61.9717C790.701 61.04 791.167 60.3223 791.782 59.8184C792.403 59.3145 793.183 59.0625 794.12 59.0625C794.812 59.0625 795.418 59.2031 795.939 59.4844C796.461 59.7598 796.892 60.1611 797.231 60.6885C797.571 61.21 797.838 61.8486 798.031 62.6045C798.225 63.3545 798.321 64.3682 798.321 65.6455C798.321 67.1572 798.166 68.3789 797.855 69.3105C797.545 70.2363 797.079 70.9541 796.458 71.4639C795.843 71.9678 795.063 72.2197 794.12 72.2197C792.878 72.2197 791.902 71.7744 791.193 70.8838C790.344 69.8115 789.919 68.0654 789.919 65.6455ZM791.545 65.6455C791.545 67.7607 791.791 69.1699 792.283 69.873C792.781 70.5703 793.394 70.9189 794.12 70.9189C794.847 70.9189 795.456 70.5674 795.948 69.8643C796.446 69.1611 796.695 67.7549 796.695 65.6455C796.695 63.5244 796.446 62.1152 795.948 61.418C795.456 60.7207 794.841 60.3721 794.103 60.3721C793.376 60.3721 792.796 60.6797 792.362 61.2949C791.817 62.0801 791.545 63.5303 791.545 65.6455ZM799.938 65.6455C799.938 64.1221 800.094 62.8975 800.404 61.9717C800.721 61.04 801.187 60.3223 801.802 59.8184C802.423 59.3145 803.202 59.0625 804.14 59.0625C804.831 59.0625 805.438 59.2031 805.959 59.4844C806.48 59.7598 806.911 60.1611 807.251 60.6885C807.591 61.21 807.857 61.8486 808.051 62.6045C808.244 63.3545 808.341 64.3682 808.341 65.6455C808.341 67.1572 808.186 68.3789 807.875 69.3105C807.564 70.2363 807.099 70.9541 806.478 71.4639C805.862 71.9678 805.083 72.2197 804.14 72.2197C802.897 72.2197 801.922 71.7744 801.213 70.8838C800.363 69.8115 799.938 68.0654 799.938 65.6455ZM801.564 65.6455C801.564 67.7607 801.811 69.1699 802.303 69.873C802.801 70.5703 803.413 70.9189 804.14 70.9189C804.866 70.9189 805.476 70.5674 805.968 69.8643C806.466 69.1611 806.715 67.7549 806.715 65.6455C806.715 63.5244 806.466 62.1152 805.968 61.418C805.476 60.7207 804.86 60.3721 804.122 60.3721C803.396 60.3721 802.815 60.6797 802.382 61.2949C801.837 62.0801 801.564 63.5303 801.564 65.6455ZM809.958 65.6455C809.958 64.1221 810.113 62.8975 810.424 61.9717C810.74 61.04 811.206 60.3223 811.821 59.8184C812.442 59.3145 813.222 59.0625 814.159 59.0625C814.851 59.0625 815.457 59.2031 815.979 59.4844C816.5 59.7598 816.931 60.1611 817.271 60.6885C817.61 61.21 817.877 61.8486 818.07 62.6045C818.264 63.3545 818.36 64.3682 818.36 65.6455C818.36 67.1572 818.205 68.3789 817.895 69.3105C817.584 70.2363 817.118 70.9541 816.497 71.4639C815.882 71.9678 815.103 72.2197 814.159 72.2197C812.917 72.2197 811.941 71.7744 811.232 70.8838C810.383 69.8115 809.958 68.0654 809.958 65.6455ZM811.584 65.6455C811.584 67.7607 811.83 69.1699 812.322 69.873C812.82 70.5703 813.433 70.9189 814.159 70.9189C814.886 70.9189 815.495 70.5674 815.987 69.8643C816.485 69.1611 816.734 67.7549 816.734 65.6455C816.734 63.5244 816.485 62.1152 815.987 61.418C815.495 60.7207 814.88 60.3721 814.142 60.3721C813.415 60.3721 812.835 60.6797 812.401 61.2949C811.856 62.0801 811.584 63.5303 811.584 65.6455ZM819.978 65.6455C819.978 64.1221 820.133 62.8975 820.443 61.9717C820.76 61.04 821.226 60.3223 821.841 59.8184C822.462 59.3145 823.241 59.0625 824.179 59.0625C824.87 59.0625 825.477 59.2031 825.998 59.4844C826.52 59.7598 826.95 60.1611 827.29 60.6885C827.63 61.21 827.896 61.8486 828.09 62.6045C828.283 63.3545 828.38 64.3682 828.38 65.6455C828.38 67.1572 828.225 68.3789 827.914 69.3105C827.604 70.2363 827.138 70.9541 826.517 71.4639C825.901 71.9678 825.122 72.2197 824.179 72.2197C822.937 72.2197 821.961 71.7744 821.252 70.8838C820.402 69.8115 819.978 68.0654 819.978 65.6455ZM821.604 65.6455C821.604 67.7607 821.85 69.1699 822.342 69.873C822.84 70.5703 823.452 70.9189 824.179 70.9189C824.905 70.9189 825.515 70.5674 826.007 69.8643C826.505 69.1611 826.754 67.7549 826.754 65.6455C826.754 63.5244 826.505 62.1152 826.007 61.418C825.515 60.7207 824.899 60.3721 824.161 60.3721C823.435 60.3721 822.854 60.6797 822.421 61.2949C821.876 62.0801 821.604 63.5303 821.604 65.6455ZM829.997 65.6455C829.997 64.1221 830.152 62.8975 830.463 61.9717C830.779 61.04 831.245 60.3223 831.86 59.8184C832.481 59.3145 833.261 59.0625 834.198 59.0625C834.89 59.0625 835.496 59.2031 836.018 59.4844C836.539 59.7598 836.97 60.1611 837.31 60.6885C837.649 61.21 837.916 61.8486 838.109 62.6045C838.303 63.3545 838.399 64.3682 838.399 65.6455C838.399 67.1572 838.244 68.3789 837.934 69.3105C837.623 70.2363 837.157 70.9541 836.536 71.4639C835.921 71.9678 835.142 72.2197 834.198 72.2197C832.956 72.2197 831.98 71.7744 831.271 70.8838C830.422 69.8115 829.997 68.0654 829.997 65.6455ZM831.623 65.6455C831.623 67.7607 831.869 69.1699 832.361 69.873C832.859 70.5703 833.472 70.9189 834.198 70.9189C834.925 70.9189 835.534 70.5674 836.026 69.8643C836.524 69.1611 836.773 67.7549 836.773 65.6455C836.773 63.5244 836.524 62.1152 836.026 61.418C835.534 60.7207 834.919 60.3721 834.181 60.3721C833.454 60.3721 832.874 60.6797 832.44 61.2949C831.896 62.0801 831.623 63.5303 831.623 65.6455ZM840.017 65.6455C840.017 64.1221 840.172 62.8975 840.482 61.9717C840.799 61.04 841.265 60.3223 841.88 59.8184C842.501 59.3145 843.28 59.0625 844.218 59.0625C844.909 59.0625 845.516 59.2031 846.037 59.4844C846.559 59.7598 846.989 60.1611 847.329 60.6885C847.669 61.21 847.936 61.8486 848.129 62.6045C848.322 63.3545 848.419 64.3682 848.419 65.6455C848.419 67.1572 848.264 68.3789 847.953 69.3105C847.643 70.2363 847.177 70.9541 846.556 71.4639C845.94 71.9678 845.161 72.2197 844.218 72.2197C842.976 72.2197 842 71.7744 841.291 70.8838C840.441 69.8115 840.017 68.0654 840.017 65.6455ZM841.643 65.6455C841.643 67.7607 841.889 69.1699 842.381 69.873C842.879 70.5703 843.491 70.9189 844.218 70.9189C844.944 70.9189 845.554 70.5674 846.046 69.8643C846.544 69.1611 846.793 67.7549 846.793 65.6455C846.793 63.5244 846.544 62.1152 846.046 61.418C845.554 60.7207 844.938 60.3721 844.2 60.3721C843.474 60.3721 842.894 60.6797 842.46 61.2949C841.915 62.0801 841.643 63.5303 841.643 65.6455ZM850.036 65.6455C850.036 64.1221 850.191 62.8975 850.502 61.9717C850.818 61.04 851.284 60.3223 851.899 59.8184C852.521 59.3145 853.3 59.0625 854.237 59.0625C854.929 59.0625 855.535 59.2031 856.057 59.4844C856.578 59.7598 857.009 60.1611 857.349 60.6885C857.688 61.21 857.955 61.8486 858.148 62.6045C858.342 63.3545 858.438 64.3682 858.438 65.6455C858.438 67.1572 858.283 68.3789 857.973 69.3105C857.662 70.2363 857.196 70.9541 856.575 71.4639C855.96 71.9678 855.181 72.2197 854.237 72.2197C852.995 72.2197 852.02 71.7744 851.311 70.8838C850.461 69.8115 850.036 68.0654 850.036 65.6455ZM851.662 65.6455C851.662 67.7607 851.908 69.1699 852.4 69.873C852.898 70.5703 853.511 70.9189 854.237 70.9189C854.964 70.9189 855.573 70.5674 856.065 69.8643C856.563 69.1611 856.812 67.7549 856.812 65.6455C856.812 63.5244 856.563 62.1152 856.065 61.418C855.573 60.7207 854.958 60.3721 854.22 60.3721C853.493 60.3721 852.913 60.6797 852.479 61.2949C851.935 62.0801 851.662 63.5303 851.662 65.6455ZM871.455 61.2861H868.414V60.126H871.455V59.1152H873.028V60.126H874.303V61.2861H873.028V72H871.561V70.8223C870.969 71.748 870.099 72.2109 868.95 72.2109C868.206 72.2109 867.521 72.0059 866.894 71.5957C866.272 71.1855 865.789 70.6143 865.443 69.8818C865.104 69.1436 864.934 68.2969 864.934 67.3418C864.934 66.4102 865.089 65.5664 865.399 64.8105C865.71 64.0488 866.176 63.4658 866.797 63.0615C867.418 62.6572 868.112 62.4551 868.88 62.4551C869.442 62.4551 869.943 62.5752 870.383 62.8154C870.822 63.0498 871.18 63.3574 871.455 63.7383V61.2861ZM866.56 67.3418C866.56 68.5371 866.812 69.4307 867.315 70.0225C867.819 70.6143 868.414 70.9102 869.1 70.9102C869.791 70.9102 870.377 70.6289 870.857 70.0664C871.344 69.498 871.587 68.6338 871.587 67.4736C871.587 66.1963 871.341 65.2588 870.849 64.6611C870.356 64.0635 869.75 63.7646 869.029 63.7646C868.326 63.7646 867.737 64.0518 867.263 64.626C866.794 65.2002 866.56 66.1055 866.56 67.3418ZM874.936 67.333C874.936 65.6045 875.416 64.3242 876.377 63.4922C877.18 62.8008 878.158 62.4551 879.312 62.4551C880.596 62.4551 881.645 62.877 882.459 63.7207C883.273 64.5586 883.681 65.7188 883.681 67.2012C883.681 68.4023 883.499 69.3486 883.136 70.04C882.778 70.7256 882.254 71.2588 881.562 71.6396C880.877 72.0205 880.127 72.2109 879.312 72.2109C878.006 72.2109 876.948 71.792 876.14 70.9541C875.337 70.1162 874.936 68.9092 874.936 67.333ZM876.562 67.333C876.562 68.5283 876.822 69.4248 877.344 70.0225C877.865 70.6143 878.521 70.9102 879.312 70.9102C880.098 70.9102 880.751 70.6113 881.272 70.0137C881.794 69.416 882.055 68.5049 882.055 67.2803C882.055 66.126 881.791 65.2529 881.264 64.6611C880.742 64.0635 880.092 63.7646 879.312 63.7646C878.521 63.7646 877.865 64.0605 877.344 64.6523C876.822 65.2441 876.562 66.1377 876.562 67.333ZM879.33 60.0117L878.337 61.5059H876.526L878.425 59.0449H880.112L882.09 61.5059H880.297L879.33 60.0117ZM880.112 58.4033H878.838L876.808 55.9424H878.926L880.112 58.4033ZM885.544 72V62.666H886.968V63.9932C887.653 62.9678 888.644 62.4551 889.938 62.4551C890.501 62.4551 891.017 62.5576 891.485 62.7627C891.96 62.9619 892.314 63.2256 892.549 63.5537C892.783 63.8818 892.947 64.2715 893.041 64.7227C893.1 65.0156 893.129 65.5283 893.129 66.2607V72H891.547V66.3223C891.547 65.6777 891.485 65.1973 891.362 64.8809C891.239 64.5586 891.02 64.3037 890.703 64.1162C890.393 63.9229 890.026 63.8262 889.604 63.8262C888.931 63.8262 888.348 64.04 887.855 64.4678C887.369 64.8955 887.126 65.707 887.126 66.9023V72H885.544ZM895.273 72.7734L896.812 73.002C896.876 73.4766 897.055 73.8223 897.348 74.0391C897.74 74.332 898.276 74.4785 898.956 74.4785C899.688 74.4785 900.254 74.332 900.652 74.0391C901.051 73.7461 901.32 73.3359 901.461 72.8086C901.543 72.4863 901.581 71.8096 901.575 70.7783C900.884 71.5928 900.022 72 898.991 72C897.708 72 896.715 71.5371 896.012 70.6113C895.309 69.6855 894.957 68.5752 894.957 67.2803C894.957 66.3896 895.118 65.5693 895.44 64.8193C895.763 64.0635 896.229 63.4805 896.838 63.0703C897.453 62.6602 898.174 62.4551 899 62.4551C900.102 62.4551 901.01 62.9004 901.725 63.791V62.666H903.184V70.7344C903.184 72.1875 903.034 73.2158 902.735 73.8193C902.442 74.4287 901.974 74.9092 901.329 75.2607C900.69 75.6123 899.902 75.7881 898.965 75.7881C897.852 75.7881 896.952 75.5361 896.267 75.0322C895.581 74.5342 895.25 73.7812 895.273 72.7734ZM896.583 67.166C896.583 68.3906 896.826 69.2842 897.312 69.8467C897.799 70.4092 898.408 70.6904 899.141 70.6904C899.867 70.6904 900.477 70.4121 900.969 69.8555C901.461 69.293 901.707 68.4141 901.707 67.2188C901.707 66.0762 901.452 65.2148 900.942 64.6348C900.438 64.0547 899.829 63.7646 899.114 63.7646C898.411 63.7646 897.813 64.0518 897.321 64.626C896.829 65.1943 896.583 66.041 896.583 67.166Z" fill="black"/>
<path d="M562.6 36.7656C562.019 35.8969 561.044 35.375 560 35.375H556.875C555.147 35.375 553.75 36.7719 553.75 38.5V57.25C553.75 58.9781 555.147 60.375 556.875 60.375H569.375C571.103 60.375 572.5 58.9781 572.5 57.25V52.5625C572.5 51.9469 572.316 51.3406 571.975 50.8281L562.6 36.7656ZM569.375 57.25H556.875V38.5H560L569.375 52.5625V57.25Z" fill="#252775"/>
<path d="M583.425 48.925L570.925 30.175C569.181 27.5594 566.262 26 563.125 26H550.625V19.75C550.625 14.5812 546.419 10.375 541.25 10.375H494.375C489.206 10.375 485 14.5812 485 19.75V54.125C485 59.2938 489.206 63.5 494.375 63.5V72.875C494.375 78.0437 498.581 82.25 503.75 82.25H507.319C508.716 87.6281 513.569 91.625 519.378 91.625C525.181 91.625 530.034 87.6281 531.431 82.25H547.938C549.334 87.6281 554.188 91.625 559.997 91.625C565.8 91.625 570.653 87.6281 572.05 82.25H575.625C580.794 82.25 585 78.0437 585 72.875V54.125C585 52.2687 584.456 50.4688 583.425 48.925ZM494.375 57.25C492.65 57.25 491.25 55.8531 491.25 54.125V19.75C491.25 18.0219 492.65 16.625 494.375 16.625H541.25C542.978 16.625 544.375 18.0219 544.375 19.75V26V32.25V54.125C544.375 55.8531 542.978 57.25 541.25 57.25H494.375ZM519.378 85.375C515.925 85.375 513.128 82.575 513.128 79.125C513.128 75.675 515.925 72.875 519.378 72.875C522.828 72.875 525.628 75.675 525.628 79.125C525.628 82.575 522.825 85.375 519.378 85.375ZM560 85.375C556.547 85.375 553.75 82.575 553.75 79.125C553.75 75.675 556.547 72.875 560 72.875C563.45 72.875 566.25 75.675 566.25 79.125C566.25 82.575 563.45 85.375 560 85.375ZM578.75 72.875C578.75 74.6031 577.353 76 575.625 76H572.053C570.656 70.6219 565.803 66.625 560 66.625C554.191 66.625 549.338 70.6219 547.941 76H531.434C530.038 70.6219 525.184 66.625 519.381 66.625C513.572 66.625 508.719 70.6219 507.322 76H503.75C502.025 76 500.625 74.6031 500.625 72.875V63.5H541.25C546.419 63.5 550.625 59.2938 550.625 54.125V32.25H563.125C564.169 32.25 565.144 32.7719 565.725 33.6406L578.225 52.3906C578.566 52.9031 578.75 53.5094 578.75 54.125V72.875Z" fill="#252775"/>
<path d="M1200.32 51V38.1152H1202.92V43.1865H1208.02V38.1152H1210.62V51H1208.02V45.3662H1202.92V51H1200.32ZM1212.73 46.2012C1212.73 45.3809 1212.93 44.5869 1213.33 43.8193C1213.74 43.0518 1214.31 42.4658 1215.05 42.0615C1215.79 41.6572 1216.62 41.4551 1217.54 41.4551C1218.95 41.4551 1220.11 41.915 1221.01 42.835C1221.91 43.749 1222.36 44.9062 1222.36 46.3066C1222.36 47.7188 1221.9 48.8906 1220.99 49.8223C1220.08 50.748 1218.94 51.2109 1217.55 51.2109C1216.7 51.2109 1215.88 51.0176 1215.1 50.6309C1214.33 50.2441 1213.74 49.6787 1213.33 48.9346C1212.93 48.1846 1212.73 47.2734 1212.73 46.2012ZM1215.26 46.333C1215.26 47.2588 1215.48 47.9678 1215.92 48.46C1216.36 48.9521 1216.9 49.1982 1217.54 49.1982C1218.19 49.1982 1218.73 48.9521 1219.16 48.46C1219.6 47.9678 1219.82 47.2529 1219.82 46.3154C1219.82 45.4014 1219.6 44.6982 1219.16 44.2061C1218.73 43.7139 1218.19 43.4678 1217.54 43.4678C1216.9 43.4678 1216.36 43.7139 1215.92 44.2061C1215.48 44.6982 1215.26 45.4072 1215.26 46.333ZM1214.57 40.4883L1216.41 37.8955H1218.7L1220.52 40.4883H1218.53L1217.51 39.1787L1216.56 40.4883H1214.57ZM1214.55 37.4033C1214.54 36.8057 1214.7 36.3223 1215.03 35.9531C1215.37 35.584 1215.8 35.3994 1216.33 35.3994C1216.7 35.3994 1217.19 35.5576 1217.82 35.874C1218.16 36.0498 1218.44 36.1377 1218.64 36.1377C1219 36.1377 1219.21 35.8828 1219.29 35.373H1220.43C1220.39 36.709 1219.82 37.377 1218.71 37.377C1218.34 37.377 1217.85 37.2129 1217.25 36.8848C1216.85 36.6738 1216.57 36.5684 1216.38 36.5684C1215.93 36.5684 1215.71 36.8467 1215.72 37.4033H1214.55ZM1233.59 41.666V43.6348H1231.91V47.3965C1231.91 48.1582 1231.92 48.6035 1231.95 48.7324C1231.99 48.8555 1232.06 48.958 1232.17 49.04C1232.29 49.1221 1232.43 49.1631 1232.59 49.1631C1232.82 49.1631 1233.15 49.084 1233.58 48.9258L1233.8 50.8418C1233.22 51.0879 1232.57 51.2109 1231.84 51.2109C1231.4 51.2109 1231 51.1377 1230.64 50.9912C1230.28 50.8389 1230.02 50.6455 1229.85 50.4111C1229.69 50.1709 1229.57 49.8486 1229.51 49.4443C1229.45 49.1572 1229.43 48.5771 1229.43 47.7041V43.6348H1228.29V41.666H1229.43V39.8115L1231.91 38.3701V41.666H1233.59ZM1237.67 51H1235.2V41.666H1237.5V42.9932C1237.89 42.3662 1238.24 41.9531 1238.55 41.7539C1238.87 41.5547 1239.22 41.4551 1239.62 41.4551C1240.19 41.4551 1240.73 41.6104 1241.25 41.9209L1240.48 44.0742C1240.07 43.8047 1239.68 43.6699 1239.32 43.6699C1238.98 43.6699 1238.69 43.7666 1238.45 43.96C1238.21 44.1475 1238.01 44.4902 1237.87 44.9883C1237.74 45.4863 1237.67 46.5293 1237.67 48.1172V51ZM1244.28 46.333C1244.28 47.2295 1244.5 47.9385 1244.94 48.46C1245.36 48.9521 1245.9 49.1982 1246.57 49.1982C1247.23 49.1982 1247.77 48.9521 1248.18 48.46C1248.62 47.9385 1248.84 47.2236 1248.84 46.3154C1248.84 45.4248 1248.62 44.7217 1248.18 44.2061C1247.77 43.7139 1247.23 43.4678 1246.57 43.4678C1245.9 43.4678 1245.36 43.7139 1244.94 44.2061C1244.5 44.7275 1244.28 45.4365 1244.28 46.333ZM1251.36 41.666H1253.83V43.4326C1253.83 44.1592 1253.76 44.7275 1253.63 45.1377C1253.51 45.5479 1253.28 45.9141 1252.94 46.2363C1252.55 46.6172 1252.01 46.916 1251.33 47.1328C1251.18 48.1816 1250.75 49.0752 1250.02 49.8135C1249.11 50.7451 1247.96 51.2109 1246.58 51.2109C1245.69 51.2109 1244.88 51.0176 1244.13 50.6309C1243.34 50.2207 1242.75 49.6494 1242.35 48.917C1241.95 48.1787 1241.75 47.2734 1241.75 46.2012C1241.75 45.3574 1241.95 44.5635 1242.36 43.8193C1242.78 43.04 1243.36 42.4512 1244.09 42.0527C1244.82 41.6543 1245.64 41.4551 1246.56 41.4551C1247.97 41.4551 1249.13 41.9121 1250.03 42.8262C1250.84 43.6582 1251.29 44.6865 1251.37 45.9111C1252.14 45.6006 1252.53 45.0088 1252.55 44.1357H1251.36V41.666ZM1245.23 54.5244V52.0547H1247.7V54.5244H1245.23ZM1267.94 48.7061V51H1259.28C1259.38 50.1328 1259.66 49.3125 1260.13 48.5391C1260.6 47.7598 1261.52 46.7285 1262.91 45.4453C1264.02 44.4082 1264.7 43.7051 1264.95 43.3359C1265.29 42.8262 1265.46 42.3223 1265.46 41.8242C1265.46 41.2734 1265.31 40.8516 1265.01 40.5586C1264.72 40.2598 1264.31 40.1104 1263.79 40.1104C1263.28 40.1104 1262.87 40.2656 1262.56 40.5762C1262.26 40.8867 1262.08 41.4023 1262.04 42.123L1259.57 41.877C1259.72 40.5176 1260.18 39.542 1260.95 38.9502C1261.73 38.3584 1262.69 38.0625 1263.85 38.0625C1265.13 38.0625 1266.12 38.4053 1266.85 39.0908C1267.58 39.7764 1267.94 40.6289 1267.94 41.6484C1267.94 42.2285 1267.84 42.7822 1267.62 43.3096C1267.42 43.8311 1267.09 44.3789 1266.64 44.9531C1266.34 45.334 1265.8 45.8818 1265.02 46.5967C1264.24 47.3115 1263.75 47.7861 1263.54 48.0205C1263.33 48.2549 1263.17 48.4834 1263.04 48.7061H1267.94ZM1274.46 51V48.4072H1269.19V46.2451L1274.78 38.0625H1276.85V46.2363H1278.45V48.4072H1276.85V51H1274.46ZM1274.46 46.2363V41.833L1271.5 46.2363H1274.46ZM1278.85 51.2197L1282.04 37.8955H1283.89L1280.67 51.2197H1278.85ZM1292.99 48.7061V51H1284.33C1284.43 50.1328 1284.71 49.3125 1285.18 48.5391C1285.65 47.7598 1286.57 46.7285 1287.95 45.4453C1289.07 44.4082 1289.75 43.7051 1290 43.3359C1290.34 42.8262 1290.51 42.3223 1290.51 41.8242C1290.51 41.2734 1290.36 40.8516 1290.06 40.5586C1289.77 40.2598 1289.36 40.1104 1288.84 40.1104C1288.33 40.1104 1287.92 40.2656 1287.61 40.5762C1287.31 40.8867 1287.13 41.4023 1287.08 42.123L1284.62 41.877C1284.77 40.5176 1285.23 39.542 1286 38.9502C1286.78 38.3584 1287.74 38.0625 1288.9 38.0625C1290.17 38.0625 1291.17 38.4053 1291.9 39.0908C1292.63 39.7764 1292.99 40.6289 1292.99 41.6484C1292.99 42.2285 1292.88 42.7822 1292.67 43.3096C1292.47 43.8311 1292.14 44.3789 1291.69 44.9531C1291.39 45.334 1290.85 45.8818 1290.07 46.5967C1289.29 47.3115 1288.8 47.7861 1288.59 48.0205C1288.38 48.2549 1288.21 48.4834 1288.09 48.7061H1292.99ZM1299.51 51V48.4072H1294.24V46.2451L1299.83 38.0625H1301.9V46.2363H1303.5V48.4072H1301.9V51H1299.51ZM1299.51 46.2363V41.833L1296.55 46.2363H1299.51ZM1200.32 72V59.1152H1202.02V70.4795H1208.37V72H1200.32ZM1216.32 72V70.6289C1215.6 71.6836 1214.61 72.2109 1213.36 72.2109C1212.81 72.2109 1212.29 72.1055 1211.81 71.8945C1211.34 71.6836 1210.99 71.4199 1210.75 71.1035C1210.52 70.7812 1210.36 70.3887 1210.27 69.9258C1210.2 69.6152 1210.17 69.123 1210.17 68.4492V62.666H1211.75V67.8428C1211.75 68.6689 1211.79 69.2256 1211.85 69.5127C1211.95 69.9287 1212.16 70.2568 1212.48 70.4971C1212.8 70.7314 1213.2 70.8486 1213.68 70.8486C1214.15 70.8486 1214.6 70.7285 1215.01 70.4883C1215.43 70.2422 1215.72 69.9111 1215.89 69.4951C1216.07 69.0732 1216.16 68.4639 1216.16 67.667V62.666H1217.74V72H1216.32ZM1219.64 67.333C1219.64 65.6045 1220.12 64.3242 1221.08 63.4922C1221.88 62.8008 1222.86 62.4551 1224.01 62.4551C1225.3 62.4551 1226.35 62.877 1227.16 63.7207C1227.97 64.5586 1228.38 65.7188 1228.38 67.2012C1228.38 68.4023 1228.2 69.3486 1227.84 70.04C1227.48 70.7256 1226.96 71.2588 1226.26 71.6396C1225.58 72.0205 1224.83 72.2109 1224.01 72.2109C1222.71 72.2109 1221.65 71.792 1220.84 70.9541C1220.04 70.1162 1219.64 68.9092 1219.64 67.333ZM1221.26 67.333C1221.26 68.5283 1221.52 69.4248 1222.04 70.0225C1222.57 70.6143 1223.22 70.9102 1224.01 70.9102C1224.8 70.9102 1225.45 70.6113 1225.97 70.0137C1226.5 69.416 1226.76 68.5049 1226.76 67.2803C1226.76 66.126 1226.49 65.2529 1225.96 64.6611C1225.44 64.0635 1224.79 63.7646 1224.01 63.7646C1223.22 63.7646 1222.57 64.0605 1222.04 64.6523C1221.52 65.2441 1221.26 66.1377 1221.26 67.333ZM1224.03 60.0117L1223.04 61.5059H1221.23L1223.13 59.0449H1224.81L1226.79 61.5059H1225L1224.03 60.0117ZM1230.25 72V62.666H1231.67V63.9932C1232.35 62.9678 1233.34 62.4551 1234.64 62.4551C1235.2 62.4551 1235.72 62.5576 1236.19 62.7627C1236.66 62.9619 1237.02 63.2256 1237.25 63.5537C1237.48 63.8818 1237.65 64.2715 1237.74 64.7227C1237.8 65.0156 1237.83 65.5283 1237.83 66.2607V72H1236.25V66.3223C1236.25 65.6777 1236.19 65.1973 1236.06 64.8809C1235.94 64.5586 1235.72 64.3037 1235.4 64.1162C1235.09 63.9229 1234.73 63.8262 1234.31 63.8262C1233.63 63.8262 1233.05 64.04 1232.56 64.4678C1232.07 64.8955 1231.83 65.707 1231.83 66.9023V72H1230.25ZM1244.64 69.2139L1246.21 68.9678C1246.29 69.5947 1246.54 70.0752 1246.94 70.4092C1247.34 70.7432 1247.9 70.9102 1248.62 70.9102C1249.35 70.9102 1249.89 70.7637 1250.24 70.4707C1250.59 70.1719 1250.77 69.8232 1250.77 69.4248C1250.77 69.0674 1250.61 68.7861 1250.3 68.5811C1250.08 68.4404 1249.55 68.2617 1248.68 68.0449C1247.52 67.752 1246.72 67.5 1246.27 67.2891C1245.82 67.0723 1245.48 66.7764 1245.25 66.4014C1245.02 66.0205 1244.91 65.6016 1244.91 65.1445C1244.91 64.7285 1245 64.3447 1245.19 63.9932C1245.38 63.6357 1245.64 63.3398 1245.97 63.1055C1246.21 62.9238 1246.55 62.7715 1246.97 62.6484C1247.4 62.5195 1247.86 62.4551 1248.34 62.4551C1249.07 62.4551 1249.72 62.5605 1250.27 62.7715C1250.82 62.9824 1251.23 63.2695 1251.5 63.6328C1251.76 63.9902 1251.94 64.4707 1252.04 65.0742L1250.5 65.2852C1250.42 64.8047 1250.22 64.4297 1249.88 64.1602C1249.55 63.8906 1249.07 63.7559 1248.46 63.7559C1247.73 63.7559 1247.21 63.876 1246.9 64.1162C1246.59 64.3564 1246.43 64.6377 1246.43 64.96C1246.43 65.165 1246.5 65.3496 1246.63 65.5137C1246.76 65.6836 1246.96 65.8242 1247.23 65.9355C1247.39 65.9941 1247.86 66.1289 1248.63 66.3398C1249.75 66.6387 1250.53 66.8848 1250.97 67.0781C1251.42 67.2656 1251.76 67.541 1252.02 67.9043C1252.27 68.2676 1252.39 68.7188 1252.39 69.2578C1252.39 69.7852 1252.24 70.2832 1251.93 70.752C1251.62 71.2148 1251.18 71.5752 1250.6 71.833C1250.02 72.085 1249.36 72.2109 1248.63 72.2109C1247.42 72.2109 1246.49 71.959 1245.85 71.4551C1245.22 70.9512 1244.82 70.2041 1244.64 69.2139ZM1260.37 70.8486C1259.78 71.3467 1259.21 71.6982 1258.67 71.9033C1258.13 72.1084 1257.55 72.2109 1256.93 72.2109C1255.9 72.2109 1255.12 71.9619 1254.56 71.4639C1254.01 70.96 1253.74 70.3184 1253.74 69.5391C1253.74 69.082 1253.84 68.666 1254.05 68.291C1254.26 67.9102 1254.53 67.6055 1254.86 67.377C1255.2 67.1484 1255.58 66.9756 1256.01 66.8584C1256.32 66.7764 1256.79 66.6973 1257.41 66.6211C1258.69 66.4688 1259.63 66.2871 1260.23 66.0762C1260.24 65.8594 1260.24 65.7217 1260.24 65.6631C1260.24 65.0186 1260.09 64.5645 1259.79 64.3008C1259.39 63.9434 1258.79 63.7646 1257.99 63.7646C1257.25 63.7646 1256.7 63.8965 1256.34 64.1602C1255.99 64.418 1255.73 64.8779 1255.56 65.54L1254.01 65.3291C1254.15 64.667 1254.38 64.1338 1254.71 63.7295C1255.03 63.3193 1255.49 63.0059 1256.1 62.7891C1256.71 62.5664 1257.42 62.4551 1258.22 62.4551C1259.02 62.4551 1259.67 62.5488 1260.16 62.7363C1260.66 62.9238 1261.03 63.1611 1261.26 63.4482C1261.5 63.7295 1261.66 64.0869 1261.75 64.5205C1261.81 64.79 1261.83 65.2764 1261.83 65.9795V68.0889C1261.83 69.5596 1261.87 70.4912 1261.93 70.8838C1262 71.2705 1262.13 71.6426 1262.33 72H1260.68C1260.52 71.6719 1260.41 71.2881 1260.37 70.8486ZM1260.23 67.3154C1259.66 67.5498 1258.8 67.749 1257.65 67.9131C1257 68.0068 1256.54 68.1123 1256.27 68.2295C1256 68.3467 1255.79 68.5195 1255.65 68.748C1255.5 68.9707 1255.43 69.2197 1255.43 69.4951C1255.43 69.917 1255.58 70.2686 1255.9 70.5498C1256.22 70.8311 1256.69 70.9717 1257.31 70.9717C1257.92 70.9717 1258.46 70.8398 1258.93 70.5762C1259.41 70.3066 1259.76 69.9404 1259.98 69.4775C1260.15 69.1201 1260.23 68.5928 1260.23 67.8955V67.3154ZM1259.76 59.1328H1260.84C1260.75 59.8652 1260.48 60.4277 1260.03 60.8203C1259.59 61.2129 1258.99 61.4092 1258.25 61.4092C1257.5 61.4092 1256.9 61.2158 1256.45 60.8291C1256 60.4365 1255.73 59.8711 1255.65 59.1328H1256.73C1256.81 59.5312 1256.97 59.8301 1257.21 60.0293C1257.46 60.2227 1257.78 60.3193 1258.19 60.3193C1258.67 60.3193 1259.03 60.2256 1259.27 60.0381C1259.51 59.8447 1259.68 59.543 1259.76 59.1328ZM1255.47 58.4033C1255.46 57.8057 1255.62 57.3223 1255.95 56.9531C1256.29 56.584 1256.72 56.3994 1257.25 56.3994C1257.62 56.3994 1258.11 56.5576 1258.74 56.874C1259.08 57.0498 1259.36 57.1377 1259.57 57.1377C1259.92 57.1377 1260.14 56.8828 1260.21 56.373H1261.35C1261.31 57.709 1260.74 58.377 1259.63 58.377C1259.26 58.377 1258.77 58.2129 1258.17 57.8848C1257.78 57.6738 1257.49 57.5684 1257.31 57.5684C1256.85 57.5684 1256.63 57.8467 1256.64 58.4033H1255.47ZM1264.29 72V62.666H1265.72V63.9932C1266.4 62.9678 1267.39 62.4551 1268.69 62.4551C1269.25 62.4551 1269.77 62.5576 1270.24 62.7627C1270.71 62.9619 1271.06 63.2256 1271.3 63.5537C1271.53 63.8818 1271.7 64.2715 1271.79 64.7227C1271.85 65.0156 1271.88 65.5283 1271.88 66.2607V72H1270.3V66.3223C1270.3 65.6777 1270.24 65.1973 1270.11 64.8809C1269.99 64.5586 1269.77 64.3037 1269.45 64.1162C1269.14 63.9229 1268.78 63.8262 1268.35 63.8262C1267.68 63.8262 1267.1 64.04 1266.61 64.4678C1266.12 64.8955 1265.88 65.707 1265.88 66.9023V72H1264.29ZM1278.69 69.2139L1280.25 68.9678C1280.34 69.5947 1280.59 70.0752 1280.98 70.4092C1281.39 70.7432 1281.95 70.9102 1282.67 70.9102C1283.4 70.9102 1283.94 70.7637 1284.29 70.4707C1284.64 70.1719 1284.82 69.8232 1284.82 69.4248C1284.82 69.0674 1284.66 68.7861 1284.35 68.5811C1284.13 68.4404 1283.59 68.2617 1282.73 68.0449C1281.57 67.752 1280.77 67.5 1280.32 67.2891C1279.87 67.0723 1279.53 66.7764 1279.3 66.4014C1279.07 66.0205 1278.95 65.6016 1278.95 65.1445C1278.95 64.7285 1279.05 64.3447 1279.24 63.9932C1279.43 63.6357 1279.69 63.3398 1280.02 63.1055C1280.26 62.9238 1280.6 62.7715 1281.02 62.6484C1281.45 62.5195 1281.9 62.4551 1282.39 62.4551C1283.12 62.4551 1283.76 62.5605 1284.32 62.7715C1284.87 62.9824 1285.28 63.2695 1285.55 63.6328C1285.81 63.9902 1285.99 64.4707 1286.09 65.0742L1284.54 65.2852C1284.47 64.8047 1284.27 64.4297 1283.93 64.1602C1283.59 63.8906 1283.12 63.7559 1282.5 63.7559C1281.78 63.7559 1281.26 63.876 1280.95 64.1162C1280.64 64.3564 1280.48 64.6377 1280.48 64.96C1280.48 65.165 1280.55 65.3496 1280.68 65.5137C1280.81 65.6836 1281.01 65.8242 1281.28 65.9355C1281.44 65.9941 1281.91 66.1289 1282.68 66.3398C1283.8 66.6387 1284.58 66.8848 1285.02 67.0781C1285.46 67.2656 1285.81 67.541 1286.06 67.9043C1286.32 68.2676 1286.44 68.7188 1286.44 69.2578C1286.44 69.7852 1286.29 70.2832 1285.98 70.752C1285.67 71.2148 1285.23 71.5752 1284.65 71.833C1284.07 72.085 1283.41 72.2109 1282.68 72.2109C1281.47 72.2109 1280.54 71.959 1279.9 71.4551C1279.27 70.9512 1278.87 70.2041 1278.69 69.2139ZM1294.41 70.8486C1293.83 71.3467 1293.26 71.6982 1292.72 71.9033C1292.18 72.1084 1291.6 72.2109 1290.98 72.2109C1289.95 72.2109 1289.16 71.9619 1288.61 71.4639C1288.06 70.96 1287.79 70.3184 1287.79 69.5391C1287.79 69.082 1287.89 68.666 1288.09 68.291C1288.31 67.9102 1288.58 67.6055 1288.91 67.377C1289.25 67.1484 1289.63 66.9756 1290.05 66.8584C1290.37 66.7764 1290.83 66.6973 1291.46 66.6211C1292.74 66.4688 1293.68 66.2871 1294.28 66.0762C1294.29 65.8594 1294.29 65.7217 1294.29 65.6631C1294.29 65.0186 1294.14 64.5645 1293.84 64.3008C1293.44 63.9434 1292.84 63.7646 1292.04 63.7646C1291.3 63.7646 1290.75 63.8965 1290.39 64.1602C1290.04 64.418 1289.78 64.8779 1289.61 65.54L1288.06 65.3291C1288.2 64.667 1288.43 64.1338 1288.75 63.7295C1289.08 63.3193 1289.54 63.0059 1290.15 62.7891C1290.76 62.5664 1291.47 62.4551 1292.27 62.4551C1293.07 62.4551 1293.71 62.5488 1294.21 62.7363C1294.71 62.9238 1295.08 63.1611 1295.31 63.4482C1295.54 63.7295 1295.71 64.0869 1295.8 64.5205C1295.86 64.79 1295.88 65.2764 1295.88 65.9795V68.0889C1295.88 69.5596 1295.91 70.4912 1295.98 70.8838C1296.05 71.2705 1296.18 71.6426 1296.38 72H1294.73C1294.57 71.6719 1294.46 71.2881 1294.41 70.8486ZM1294.28 67.3154C1293.71 67.5498 1292.85 67.749 1291.7 67.9131C1291.05 68.0068 1290.59 68.1123 1290.32 68.2295C1290.05 68.3467 1289.84 68.5195 1289.69 68.748C1289.55 68.9707 1289.47 69.2197 1289.47 69.4951C1289.47 69.917 1289.63 70.2686 1289.95 70.5498C1290.27 70.8311 1290.74 70.9717 1291.36 70.9717C1291.96 70.9717 1292.51 70.8398 1292.98 70.5762C1293.46 70.3066 1293.8 69.9404 1294.03 69.4775C1294.2 69.1201 1294.28 68.5928 1294.28 67.8955V67.3154ZM1293.42 61.5059H1292.15L1290.12 59.0449H1292.23L1293.42 61.5059ZM1298.34 72V62.666H1299.77V63.9932C1300.45 62.9678 1301.44 62.4551 1302.74 62.4551C1303.3 62.4551 1303.82 62.5576 1304.28 62.7627C1304.76 62.9619 1305.11 63.2256 1305.35 63.5537C1305.58 63.8818 1305.75 64.2715 1305.84 64.7227C1305.9 65.0156 1305.93 65.5283 1305.93 66.2607V72H1304.35V66.3223C1304.35 65.6777 1304.28 65.1973 1304.16 64.8809C1304.04 64.5586 1303.82 64.3037 1303.5 64.1162C1303.19 63.9229 1302.83 63.8262 1302.4 63.8262C1301.73 63.8262 1301.15 64.04 1300.65 64.4678C1300.17 64.8955 1299.92 65.707 1299.92 66.9023V72H1298.34ZM1308.07 72.7734L1309.61 73.002C1309.67 73.4766 1309.85 73.8223 1310.15 74.0391C1310.54 74.332 1311.08 74.4785 1311.75 74.4785C1312.49 74.4785 1313.05 74.332 1313.45 74.0391C1313.85 73.7461 1314.12 73.3359 1314.26 72.8086C1314.34 72.4863 1314.38 71.8096 1314.37 70.7783C1313.68 71.5928 1312.82 72 1311.79 72C1310.51 72 1309.51 71.5371 1308.81 70.6113C1308.11 69.6855 1307.76 68.5752 1307.76 67.2803C1307.76 66.3896 1307.92 65.5693 1308.24 64.8193C1308.56 64.0635 1309.03 63.4805 1309.64 63.0703C1310.25 62.6602 1310.97 62.4551 1311.8 62.4551C1312.9 62.4551 1313.81 62.9004 1314.52 63.791V62.666H1315.98V70.7344C1315.98 72.1875 1315.83 73.2158 1315.53 73.8193C1315.24 74.4287 1314.77 74.9092 1314.13 75.2607C1313.49 75.6123 1312.7 75.7881 1311.76 75.7881C1310.65 75.7881 1309.75 75.5361 1309.07 75.0322C1308.38 74.5342 1308.05 73.7812 1308.07 72.7734ZM1309.38 67.166C1309.38 68.3906 1309.62 69.2842 1310.11 69.8467C1310.6 70.4092 1311.21 70.6904 1311.94 70.6904C1312.67 70.6904 1313.28 70.4121 1313.77 69.8555C1314.26 69.293 1314.51 68.4141 1314.51 67.2188C1314.51 66.0762 1314.25 65.2148 1313.74 64.6348C1313.24 64.0547 1312.63 63.7646 1311.91 63.7646C1311.21 63.7646 1310.61 64.0518 1310.12 64.626C1309.63 65.1943 1309.38 66.041 1309.38 67.166ZM1323.39 75.5771V62.666H1324.83V63.8789C1325.17 63.4043 1325.56 63.0498 1325.98 62.8154C1326.41 62.5752 1326.93 62.4551 1327.54 62.4551C1328.34 62.4551 1329.04 62.6602 1329.65 63.0703C1330.26 63.4805 1330.72 64.0605 1331.03 64.8105C1331.34 65.5547 1331.5 66.3721 1331.5 67.2627C1331.5 68.2178 1331.32 69.0791 1330.98 69.8467C1330.64 70.6084 1330.14 71.1943 1329.48 71.6045C1328.83 72.0088 1328.15 72.2109 1327.43 72.2109C1326.9 72.2109 1326.42 72.0996 1326 71.877C1325.59 71.6543 1325.24 71.373 1324.97 71.0332V75.5771H1323.39ZM1324.82 67.3857C1324.82 68.5869 1325.07 69.4746 1325.55 70.0488C1326.04 70.623 1326.63 70.9102 1327.32 70.9102C1328.02 70.9102 1328.62 70.6143 1329.12 70.0225C1329.63 69.4248 1329.88 68.502 1329.88 67.2539C1329.88 66.0645 1329.63 65.1738 1329.14 64.582C1328.65 63.9902 1328.07 63.6943 1327.39 63.6943C1326.72 63.6943 1326.12 64.0107 1325.6 64.6436C1325.08 65.2705 1324.82 66.1846 1324.82 67.3857ZM1333.41 72V59.1152H1334.99V63.7383C1335.73 62.8828 1336.66 62.4551 1337.79 62.4551C1338.48 62.4551 1339.08 62.5928 1339.59 62.8682C1340.1 63.1377 1340.46 63.5127 1340.68 63.9932C1340.9 64.4736 1341.01 65.1709 1341.01 66.085V72H1339.43V66.085C1339.43 65.2939 1339.26 64.7197 1338.91 64.3623C1338.57 63.999 1338.09 63.8174 1337.46 63.8174C1336.99 63.8174 1336.55 63.9404 1336.14 64.1865C1335.73 64.4268 1335.43 64.7549 1335.26 65.1709C1335.08 65.5869 1334.99 66.1611 1334.99 66.8936V72H1333.41ZM1349.55 72V70.6289C1348.82 71.6836 1347.83 72.2109 1346.59 72.2109C1346.04 72.2109 1345.52 72.1055 1345.04 71.8945C1344.56 71.6836 1344.21 71.4199 1343.98 71.1035C1343.75 70.7812 1343.59 70.3887 1343.49 69.9258C1343.43 69.6152 1343.4 69.123 1343.4 68.4492V62.666H1344.98V67.8428C1344.98 68.6689 1345.01 69.2256 1345.07 69.5127C1345.17 69.9287 1345.38 70.2568 1345.71 70.4971C1346.03 70.7314 1346.43 70.8486 1346.9 70.8486C1347.38 70.8486 1347.82 70.7285 1348.24 70.4883C1348.65 70.2422 1348.95 69.9111 1349.12 69.4951C1349.29 69.0732 1349.38 68.4639 1349.38 67.667V62.666H1350.96V72H1349.55ZM1345.99 74.8564V73.0547H1347.79V74.8564H1345.99ZM1359.54 68.5811L1361.1 68.7832C1360.93 69.8555 1360.49 70.6963 1359.79 71.3057C1359.09 71.9092 1358.23 72.2109 1357.21 72.2109C1355.93 72.2109 1354.91 71.7949 1354.13 70.9629C1353.35 70.125 1352.97 68.9268 1352.97 67.3682C1352.97 66.3604 1353.13 65.4785 1353.47 64.7227C1353.8 63.9668 1354.31 63.4014 1354.99 63.0264C1355.67 62.6455 1356.42 62.4551 1357.22 62.4551C1358.23 62.4551 1359.06 62.7129 1359.71 63.2285C1360.35 63.7383 1360.77 64.4648 1360.95 65.4082L1359.41 65.6455C1359.26 65.0186 1359 64.5469 1358.63 64.2305C1358.26 63.9141 1357.81 63.7559 1357.28 63.7559C1356.49 63.7559 1355.84 64.043 1355.34 64.6172C1354.84 65.1855 1354.59 66.0879 1354.59 67.3242C1354.59 68.5781 1354.83 69.4893 1355.31 70.0576C1355.79 70.626 1356.42 70.9102 1357.19 70.9102C1357.82 70.9102 1358.33 70.7197 1358.75 70.3389C1359.17 69.958 1359.43 69.3721 1359.54 68.5811ZM1370.05 72L1366.5 62.666H1368.17L1370.18 68.2559C1370.39 68.8594 1370.59 69.4863 1370.77 70.1367C1370.91 69.6445 1371.11 69.0527 1371.36 68.3613L1373.44 62.666H1375.06L1371.53 72H1370.05ZM1382.58 72V70.6289C1381.85 71.6836 1380.86 72.2109 1379.62 72.2109C1379.06 72.2109 1378.55 72.1055 1378.07 71.8945C1377.59 71.6836 1377.24 71.4199 1377 71.1035C1376.78 70.7812 1376.62 70.3887 1376.52 69.9258C1376.46 69.6152 1376.42 69.123 1376.42 68.4492V62.666H1378.01V67.8428C1378.01 68.6689 1378.04 69.2256 1378.1 69.5127C1378.2 69.9287 1378.41 70.2568 1378.74 70.4971C1379.06 70.7314 1379.46 70.8486 1379.93 70.8486C1380.41 70.8486 1380.85 70.7285 1381.27 70.4883C1381.68 70.2422 1381.98 69.9111 1382.15 69.4951C1382.32 69.0732 1382.41 68.4639 1382.41 67.667V62.666H1383.99V72H1382.58ZM1379.02 74.8564V73.0547H1380.82V74.8564H1379.02Z" fill="black"/>
<path d="M1146 8.33301C1123.03 8.33301 1104.33 27.0247 1104.33 49.9997V67.2622C1104.33 71.5288 1108.07 74.9997 1112.67 74.9997H1116.83C1117.94 74.9997 1119 74.5607 1119.78 73.7793C1120.56 72.9979 1121 71.9381 1121 70.833V49.4038C1121 48.2988 1120.56 47.239 1119.78 46.4576C1119 45.6762 1117.94 45.2372 1116.83 45.2372H1113.05C1115.37 29.1122 1129.24 16.6663 1146 16.6663C1162.76 16.6663 1176.63 29.1122 1178.95 45.2372H1175.17C1174.06 45.2372 1173 45.6762 1172.22 46.4576C1171.44 47.239 1171 48.2988 1171 49.4038V74.9997C1171 79.5955 1167.26 83.333 1162.67 83.333H1154.33V79.1663H1137.67V91.6663H1162.67C1171.86 91.6663 1179.33 84.1913 1179.33 74.9997C1183.93 74.9997 1187.67 71.5288 1187.67 67.2622V49.9997C1187.67 27.0247 1168.98 8.33301 1146 8.33301Z" fill="#252775"/>
</svg>
