<svg width="30" height="30" viewBox="0 0 30 30" fill="none" xmlns="http://www.w3.org/2000/svg">
<path d="M11.7025 11.4475C11.7025 11.4475 7.7525 11.885 5.1175 12.1775C4.88 12.2062 4.67 12.365 4.59125 12.6062C4.5125 12.8475 4.59125 13.0987 4.76625 13.2575C6.72375 15.0437 9.665 17.7187 9.665 17.7187C9.6625 17.7187 8.8575 21.61 8.3225 24.2062C8.2775 24.4412 8.3625 24.69 8.5675 24.8387C8.77125 24.9875 9.03375 24.99 9.24 24.8737C11.545 23.5637 14.9975 21.5937 14.9975 21.5937C14.9975 21.5937 18.4512 23.5637 20.7525 24.875C20.9625 24.99 21.225 24.9875 21.4287 24.8387C21.6337 24.69 21.7187 24.4412 21.6725 24.2075C21.1375 21.61 20.3337 17.7187 20.3337 17.7187C20.3337 17.7187 23.275 15.0437 25.2325 13.2612C25.4075 13.0975 25.485 12.8462 25.4075 12.6062C25.33 12.3662 25.12 12.2075 24.8825 12.18C22.2475 11.885 18.2962 11.4475 18.2962 11.4475C18.2962 11.4475 16.6587 7.82498 15.5675 5.40998C15.465 5.19373 15.25 5.04248 14.9975 5.04248C14.745 5.04248 14.5287 5.19498 14.4312 5.40998C13.3387 7.82498 11.7025 11.4475 11.7025 11.4475Z" fill="white"/>
<path d="M11.7025 11.4475C11.7025 11.4475 7.7525 11.885 5.1175 12.1775C4.88 12.2062 4.67 12.365 4.59125 12.6062C4.5125 12.8475 4.59125 13.0987 4.76625 13.2575C6.72375 15.0437 9.665 17.7187 9.665 17.7187C9.6625 17.7187 8.8575 21.61 8.3225 24.2062C8.2775 24.4412 8.3625 24.69 8.5675 24.8387C8.77125 24.9875 9.03375 24.99 9.24 24.8737C11.545 23.5637 14.9975 21.5937 14.9975 21.5937C14.9975 21.5937 18.4512 23.5637 20.7525 24.875C20.9625 24.99 21.225 24.9875 21.4287 24.8387C21.6337 24.69 21.7187 24.4412 21.6725 24.2075C21.1375 21.61 20.3337 17.7187 20.3337 17.7187C20.3337 17.7187 23.275 15.0437 25.2325 13.2612C25.4075 13.0975 25.485 12.8462 25.4075 12.6062C25.33 12.3662 25.12 12.2075 24.8825 12.18C22.2475 11.885 18.2962 11.4475 18.2962 11.4475C18.2962 11.4475 16.6587 7.82498 15.5675 5.40998C15.465 5.19373 15.25 5.04248 14.9975 5.04248C14.745 5.04248 14.5287 5.19498 14.4312 5.40998C13.3387 7.82498 11.7025 11.4475 11.7025 11.4475Z" fill="black" fill-opacity="0.2"/>
</svg>
