<svg width="80" height="80" viewBox="0 0 80 80" fill="none" xmlns="http://www.w3.org/2000/svg">
<g clip-path="url(#clip0_1817_1117)">
<path d="M40 75C30.7174 75 21.815 71.3125 15.2513 64.7487C8.68749 58.185 5 49.2826 5 40C5 30.7174 8.68749 21.815 15.2513 15.2513C21.815 8.68749 30.7174 5 40 5C49.2826 5 58.185 8.68749 64.7487 15.2513C71.3125 21.815 75 30.7174 75 40C75 49.2826 71.3125 58.185 64.7487 64.7487C58.185 71.3125 49.2826 75 40 75ZM40 80C50.6087 80 60.7828 75.7857 68.2843 68.2843C75.7857 60.7828 80 50.6087 80 40C80 29.3913 75.7857 19.2172 68.2843 11.7157C60.7828 4.21427 50.6087 0 40 0C29.3913 0 19.2172 4.21427 11.7157 11.7157C4.21427 19.2172 0 29.3913 0 40C0 50.6087 4.21427 60.7828 11.7157 68.2843C19.2172 75.7857 29.3913 80 40 80Z" fill="#252775"/>
<path d="M23.2301 23.2301C23.4623 22.9973 23.7382 22.8125 24.0419 22.6865C24.3456 22.5605 24.6712 22.4956 25.0001 22.4956C25.3289 22.4956 25.6545 22.5605 25.9582 22.6865C26.262 22.8125 26.5378 22.9973 26.7701 23.2301L40.0001 36.4651L53.2301 23.2301C53.4625 22.9976 53.7385 22.8133 54.0422 22.6875C54.3459 22.5617 54.6714 22.4969 55.0001 22.4969C55.3288 22.4969 55.6543 22.5617 55.958 22.6875C56.2617 22.8133 56.5376 22.9976 56.7701 23.2301C57.0025 23.4625 57.1869 23.7385 57.3127 24.0422C57.4385 24.3459 57.5032 24.6714 57.5032 25.0001C57.5032 25.3288 57.4385 25.6543 57.3127 25.958C57.1869 26.2617 57.0025 26.5376 56.7701 26.7701L43.5351 40.0001L56.7701 53.2301C57.0025 53.4625 57.1869 53.7385 57.3127 54.0422C57.4385 54.3459 57.5032 54.6714 57.5032 55.0001C57.5032 55.3288 57.4385 55.6543 57.3127 55.958C57.1869 56.2617 57.0025 56.5376 56.7701 56.7701C56.5376 57.0025 56.2617 57.1869 55.958 57.3127C55.6543 57.4385 55.3288 57.5032 55.0001 57.5032C54.6714 57.5032 54.3459 57.4385 54.0422 57.3127C53.7385 57.1869 53.4625 57.0025 53.2301 56.7701L40.0001 43.5351L26.7701 56.7701C26.5376 57.0025 26.2617 57.1869 25.958 57.3127C25.6543 57.4385 25.3288 57.5032 25.0001 57.5032C24.6714 57.5032 24.3459 57.4385 24.0422 57.3127C23.7385 57.1869 23.4625 57.0025 23.2301 56.7701C22.9976 56.5376 22.8133 56.2617 22.6875 55.958C22.5617 55.6543 22.4969 55.3288 22.4969 55.0001C22.4969 54.6714 22.5617 54.3459 22.6875 54.0422C22.8133 53.7385 22.9976 53.4625 23.2301 53.2301L36.4651 40.0001L23.2301 26.7701C22.9973 26.5378 22.8125 26.262 22.6865 25.9582C22.5605 25.6545 22.4956 25.3289 22.4956 25.0001C22.4956 24.6712 22.5605 24.3456 22.6865 24.0419C22.8125 23.7382 22.9973 23.4623 23.2301 23.2301Z" fill="#252775"/>
</g>
<defs>
<clipPath id="clip0_1817_1117">
<rect width="80" height="80" fill="white"/>
</clipPath>
</defs>
</svg>
