<svg width="100" height="100" viewBox="0 0 100 100" fill="none" xmlns="http://www.w3.org/2000/svg">
<path d="M87.7098 77.9453L54.4227 16.1289C52.0633 11.7461 45.7782 11.7461 43.4169 16.1289L10.1317 77.9453C9.61942 78.8968 9.36259 79.9648 9.38627 81.0452C9.40995 82.1255 9.71334 83.1813 10.2668 84.1094C10.8203 85.0375 11.605 85.8063 12.5442 86.3406C13.4835 86.875 14.5452 87.1567 15.6258 87.1582H82.2059C83.2874 87.1583 84.3503 86.8779 85.2909 86.3442C86.2315 85.8106 87.0176 85.042 87.5722 84.1136C88.1268 83.1852 88.4311 82.1288 88.4552 81.0476C88.4793 79.9664 88.2225 78.8975 87.7098 77.9453ZM48.9208 77.5879C48.1482 77.5879 47.3929 77.3588 46.7506 76.9296C46.1082 76.5003 45.6075 75.8903 45.3119 75.1765C45.0162 74.4627 44.9388 73.6773 45.0896 72.9196C45.2403 72.1618 45.6123 71.4658 46.1586 70.9195C46.7049 70.3732 47.401 70.0012 48.1587 69.8505C48.9164 69.6997 49.7018 69.7771 50.4156 70.0727C51.1294 70.3684 51.7395 70.8691 52.1687 71.5114C52.5979 72.1538 52.827 72.9091 52.827 73.6816C52.827 74.1946 52.726 74.7026 52.5297 75.1765C52.3334 75.6504 52.0456 76.0811 51.6829 76.4438C51.3202 76.8065 50.8895 77.0942 50.4156 77.2906C49.9417 77.4869 49.4337 77.5879 48.9208 77.5879ZM53.163 38.3008L52.0419 62.1289C52.0419 62.9577 51.7126 63.7526 51.1266 64.3386C50.5405 64.9247 49.7457 65.2539 48.9169 65.2539C48.0881 65.2539 47.2932 64.9247 46.7071 64.3386C46.1211 63.7526 45.7919 62.9577 45.7919 62.1289L44.6708 38.3105C44.6456 37.7414 44.7352 37.173 44.9344 36.6392C45.1335 36.1054 45.4381 35.6172 45.83 35.2037C46.2219 34.7901 46.693 34.4597 47.2152 34.2321C47.7375 34.0045 48.3003 33.8844 48.87 33.8789H48.911C49.4846 33.8786 50.0523 33.9945 50.5798 34.2197C51.1074 34.4448 51.5838 34.7745 51.9804 35.1888C52.3771 35.6031 52.6856 36.0935 52.8875 36.6304C53.0894 37.1673 53.1805 37.7395 53.1551 38.3125L53.163 38.3008Z" fill="#252775"/>
</svg>
