<svg width="826" height="52" viewBox="0 0 826 52" fill="none" xmlns="http://www.w3.org/2000/svg">
<path d="M25.0007 5.70801L29.459 8.29134H34.6257L37.209 12.7913L41.709 15.3747V20.5413L44.2923 24.9997L41.709 29.458V34.6247L37.209 37.208L34.6257 41.708H29.459L25.0007 44.2913L20.5423 41.708H15.3757L12.7923 37.208L8.29232 34.6247V29.458L5.70898 24.9997L8.29232 20.5413V15.3747L12.7923 12.7913L15.3757 8.29134H20.5423L25.0007 5.70801Z" fill="#252775"/>
<path d="M25 39.125C17.2083 39.125 10.875 32.7917 10.875 25C10.875 17.2083 17.2083 10.875 25 10.875C32.7917 10.875 39.125 17.2083 39.125 25C39.125 32.7917 32.7917 39.125 25 39.125ZM25 12.0833C17.875 12.0833 12.0833 17.875 12.0833 25C12.0833 32.125 17.875 37.9167 25 37.9167C32.125 37.9167 37.9167 32.125 37.9167 25C37.9167 17.875 32.125 12.0833 25 12.0833Z" fill="white"/>
<path d="M23.4588 30.25L17.3338 25.375C16.8338 24.9584 16.7505 24.25 17.1672 23.75C17.5838 23.25 18.2922 23.1667 18.7922 23.5834L24.0422 27.7917L31.0422 19.9584C31.4588 19.5 32.2088 19.4584 32.6672 19.875C33.1255 20.2917 33.1672 21.0417 32.7505 21.5L25.0422 30.125C24.6255 30.5834 23.9172 30.625 23.4588 30.25Z" fill="white"/>
<path d="M55.0254 25V14.9785H57.0488V18.9229H61.0137V14.9785H63.0371V25H61.0137V20.6182H57.0488V25H55.0254ZM66.5576 19.9551L64.8145 19.6406C65.0104 18.9388 65.3477 18.4193 65.8262 18.082C66.3047 17.7448 67.0156 17.5762 67.959 17.5762C68.8158 17.5762 69.4538 17.6787 69.873 17.8838C70.2923 18.0843 70.5863 18.3418 70.7549 18.6562C70.9281 18.9661 71.0146 19.5381 71.0146 20.3721L70.9941 22.6143C70.9941 23.2523 71.0238 23.724 71.083 24.0293C71.1468 24.3301 71.263 24.6536 71.4316 25H69.5312C69.4811 24.8724 69.4196 24.6833 69.3467 24.4326C69.3148 24.3187 69.292 24.2435 69.2783 24.207C68.9502 24.526 68.5993 24.7653 68.2256 24.9248C67.8519 25.0843 67.4531 25.1641 67.0293 25.1641C66.2819 25.1641 65.6917 24.9613 65.2588 24.5557C64.8304 24.1501 64.6162 23.6374 64.6162 23.0176C64.6162 22.6074 64.7142 22.2428 64.9102 21.9238C65.1061 21.6003 65.3796 21.3542 65.7305 21.1855C66.0859 21.0124 66.5964 20.862 67.2617 20.7344C68.1595 20.5658 68.7816 20.4085 69.1279 20.2627V20.0713C69.1279 19.7021 69.0368 19.4401 68.8545 19.2852C68.6722 19.1257 68.3281 19.0459 67.8223 19.0459C67.4805 19.0459 67.2139 19.1143 67.0225 19.251C66.8311 19.3831 66.6761 19.6178 66.5576 19.9551ZM69.1279 21.5137C68.8818 21.5957 68.4922 21.6937 67.959 21.8076C67.4258 21.9215 67.0771 22.0332 66.9131 22.1426C66.6624 22.3203 66.5371 22.5459 66.5371 22.8193C66.5371 23.0882 66.6374 23.3206 66.8379 23.5166C67.0384 23.7126 67.2936 23.8105 67.6035 23.8105C67.9499 23.8105 68.2803 23.6966 68.5947 23.4688C68.8271 23.2956 68.9798 23.0837 69.0527 22.833C69.1029 22.6689 69.1279 22.3568 69.1279 21.8965V21.5137ZM68.9912 16.8516H67.7812L65.8945 14.8076H68.0479L68.9912 16.8516ZM79.5186 25H77.5977V21.2949C77.5977 20.5111 77.5566 20.0052 77.4746 19.7773C77.3926 19.5449 77.2581 19.3649 77.0713 19.2373C76.889 19.1097 76.668 19.0459 76.4082 19.0459C76.0755 19.0459 75.777 19.137 75.5127 19.3193C75.2484 19.5016 75.0661 19.7432 74.9658 20.0439C74.8701 20.3447 74.8223 20.9007 74.8223 21.7119V25H72.9014V17.7402H74.6855V18.8066C75.319 17.9863 76.1165 17.5762 77.0781 17.5762C77.502 17.5762 77.8893 17.6536 78.2402 17.8086C78.5911 17.959 78.8555 18.1527 79.0332 18.3896C79.2155 18.6266 79.3408 18.8955 79.4092 19.1963C79.4821 19.4971 79.5186 19.9277 79.5186 20.4883V25ZM81.2959 25.4785L83.4902 25.7451C83.5267 26.0003 83.611 26.1758 83.7432 26.2715C83.9255 26.4082 84.2126 26.4766 84.6045 26.4766C85.1058 26.4766 85.4818 26.4014 85.7324 26.251C85.901 26.1507 86.0286 25.9889 86.1152 25.7656C86.1745 25.6061 86.2041 25.3122 86.2041 24.8838V23.8242C85.6299 24.6081 84.9053 25 84.0303 25C83.055 25 82.2826 24.5876 81.7129 23.7627C81.2663 23.111 81.043 22.2998 81.043 21.3291C81.043 20.1123 81.3346 19.1826 81.918 18.54C82.5059 17.8975 83.235 17.5762 84.1055 17.5762C85.0033 17.5762 85.7438 17.9704 86.3271 18.7588V17.7402H88.125V24.2549C88.125 25.1117 88.0544 25.752 87.9131 26.1758C87.7718 26.5996 87.5736 26.9323 87.3184 27.1738C87.0632 27.4154 86.7214 27.6045 86.293 27.7412C85.8691 27.8779 85.3314 27.9463 84.6797 27.9463C83.4492 27.9463 82.5765 27.7344 82.0615 27.3105C81.5465 26.8913 81.2891 26.3581 81.2891 25.7109C81.2891 25.6471 81.2913 25.5697 81.2959 25.4785ZM83.0117 21.2197C83.0117 21.9899 83.1598 22.555 83.4561 22.915C83.7568 23.2705 84.126 23.4482 84.5635 23.4482C85.0329 23.4482 85.4294 23.266 85.7529 22.9014C86.0765 22.5322 86.2383 21.9876 86.2383 21.2676C86.2383 20.5156 86.0833 19.9574 85.7734 19.5928C85.4635 19.2282 85.0716 19.0459 84.5977 19.0459C84.1374 19.0459 83.7568 19.2259 83.4561 19.5859C83.1598 19.9414 83.0117 20.486 83.0117 21.2197ZM100.259 19.8867L98.3652 20.2285C98.3014 19.8503 98.1556 19.5654 97.9277 19.374C97.7044 19.1826 97.4128 19.0869 97.0527 19.0869C96.5742 19.0869 96.1914 19.2533 95.9043 19.5859C95.6217 19.9141 95.4805 20.4655 95.4805 21.2402C95.4805 22.1016 95.624 22.71 95.9111 23.0654C96.2028 23.4209 96.5924 23.5986 97.0801 23.5986C97.4447 23.5986 97.7432 23.4961 97.9756 23.291C98.208 23.0814 98.3721 22.7236 98.4678 22.2178L100.354 22.5391C100.159 23.4049 99.7826 24.0589 99.2266 24.501C98.6706 24.943 97.9255 25.1641 96.9912 25.1641C95.9294 25.1641 95.0817 24.8291 94.4482 24.1592C93.8193 23.4893 93.5049 22.5618 93.5049 21.377C93.5049 20.1784 93.8216 19.2464 94.4551 18.5811C95.0885 17.9111 95.9453 17.5762 97.0254 17.5762C97.9095 17.5762 98.6113 17.7676 99.1309 18.1504C99.6549 18.5286 100.031 19.1074 100.259 19.8867ZM103.636 14.9785V18.6631C104.256 17.9385 104.996 17.5762 105.857 17.5762C106.299 17.5762 106.698 17.6582 107.054 17.8223C107.409 17.9863 107.676 18.196 107.854 18.4512C108.036 18.7064 108.159 18.9889 108.223 19.2988C108.291 19.6087 108.325 20.0895 108.325 20.7412V25H106.404V21.165C106.404 20.404 106.368 19.9209 106.295 19.7158C106.222 19.5107 106.092 19.349 105.905 19.2305C105.723 19.1074 105.493 19.0459 105.215 19.0459C104.896 19.0459 104.611 19.1234 104.36 19.2783C104.11 19.4333 103.925 19.668 103.807 19.9824C103.693 20.2923 103.636 20.7526 103.636 21.3633V25H101.715V14.9785H103.636ZM110.28 25V17.7402H112.201V25H110.28ZM110.137 16.8516L111.08 14.8076H113.233L111.354 16.8516H110.137ZM120.78 25H118.859V21.2949C118.859 20.5111 118.818 20.0052 118.736 19.7773C118.654 19.5449 118.52 19.3649 118.333 19.2373C118.151 19.1097 117.93 19.0459 117.67 19.0459C117.337 19.0459 117.039 19.137 116.774 19.3193C116.51 19.5016 116.328 19.7432 116.228 20.0439C116.132 20.3447 116.084 20.9007 116.084 21.7119V25H114.163V17.7402H115.947V18.8066C116.581 17.9863 117.378 17.5762 118.34 17.5762C118.764 17.5762 119.151 17.6536 119.502 17.8086C119.853 17.959 120.117 18.1527 120.295 18.3896C120.477 18.6266 120.603 18.8955 120.671 19.1963C120.744 19.4971 120.78 19.9277 120.78 20.4883V25ZM124.649 14.9785V18.6631C125.269 17.9385 126.01 17.5762 126.871 17.5762C127.313 17.5762 127.712 17.6582 128.067 17.8223C128.423 17.9863 128.689 18.196 128.867 18.4512C129.049 18.7064 129.173 18.9889 129.236 19.2988C129.305 19.6087 129.339 20.0895 129.339 20.7412V25H127.418V21.165C127.418 20.404 127.382 19.9209 127.309 19.7158C127.236 19.5107 127.106 19.349 126.919 19.2305C126.737 19.1074 126.507 19.0459 126.229 19.0459C125.91 19.0459 125.625 19.1234 125.374 19.2783C125.123 19.4333 124.939 19.668 124.82 19.9824C124.706 20.2923 124.649 20.7526 124.649 21.3633V25H122.729V14.9785H124.649ZM137.104 14.9785V18.6631C137.724 17.9385 138.465 17.5762 139.326 17.5762C139.768 17.5762 140.167 17.6582 140.522 17.8223C140.878 17.9863 141.145 18.196 141.322 18.4512C141.505 18.7064 141.628 18.9889 141.691 19.2988C141.76 19.6087 141.794 20.0895 141.794 20.7412V25H139.873V21.165C139.873 20.404 139.837 19.9209 139.764 19.7158C139.691 19.5107 139.561 19.349 139.374 19.2305C139.192 19.1074 138.962 19.0459 138.684 19.0459C138.365 19.0459 138.08 19.1234 137.829 19.2783C137.578 19.4333 137.394 19.668 137.275 19.9824C137.161 20.2923 137.104 20.7526 137.104 21.3633V25H135.184V14.9785H137.104ZM145.185 19.9551L143.441 19.6406C143.637 18.9388 143.975 18.4193 144.453 18.082C144.932 17.7448 145.643 17.5762 146.586 17.5762C147.443 17.5762 148.081 17.6787 148.5 17.8838C148.919 18.0843 149.213 18.3418 149.382 18.6562C149.555 18.9661 149.642 19.5381 149.642 20.3721L149.621 22.6143C149.621 23.2523 149.651 23.724 149.71 24.0293C149.774 24.3301 149.89 24.6536 150.059 25H148.158C148.108 24.8724 148.047 24.6833 147.974 24.4326C147.942 24.3187 147.919 24.2435 147.905 24.207C147.577 24.526 147.226 24.7653 146.853 24.9248C146.479 25.0843 146.08 25.1641 145.656 25.1641C144.909 25.1641 144.319 24.9613 143.886 24.5557C143.457 24.1501 143.243 23.6374 143.243 23.0176C143.243 22.6074 143.341 22.2428 143.537 21.9238C143.733 21.6003 144.007 21.3542 144.357 21.1855C144.713 21.0124 145.223 20.862 145.889 20.7344C146.786 20.5658 147.409 20.4085 147.755 20.2627V20.0713C147.755 19.7021 147.664 19.4401 147.481 19.2852C147.299 19.1257 146.955 19.0459 146.449 19.0459C146.107 19.0459 145.841 19.1143 145.649 19.251C145.458 19.3831 145.303 19.6178 145.185 19.9551ZM147.755 21.5137C147.509 21.5957 147.119 21.6937 146.586 21.8076C146.053 21.9215 145.704 22.0332 145.54 22.1426C145.289 22.3203 145.164 22.5459 145.164 22.8193C145.164 23.0882 145.264 23.3206 145.465 23.5166C145.665 23.7126 145.921 23.8105 146.23 23.8105C146.577 23.8105 146.907 23.6966 147.222 23.4688C147.454 23.2956 147.607 23.0837 147.68 22.833C147.73 22.6689 147.755 22.3568 147.755 21.8965V21.5137ZM145.171 16.7627H144.296C144.291 16.6579 144.289 16.5758 144.289 16.5166C144.289 16.0381 144.405 15.6712 144.638 15.416C144.87 15.1562 145.169 15.0264 145.533 15.0264C145.693 15.0264 145.841 15.0446 145.978 15.0811C146.114 15.113 146.363 15.2109 146.723 15.375C147.087 15.5345 147.372 15.6143 147.577 15.6143C147.723 15.6143 147.844 15.5687 147.939 15.4775C148.04 15.3864 148.104 15.2337 148.131 15.0195H149.02C149.015 15.6348 148.899 16.0745 148.671 16.3389C148.448 16.6032 148.158 16.7354 147.803 16.7354C147.648 16.7354 147.495 16.7194 147.345 16.6875C147.24 16.6602 146.978 16.5667 146.559 16.4072C146.139 16.2477 145.834 16.168 145.643 16.168C145.497 16.168 145.383 16.2135 145.301 16.3047C145.219 16.3913 145.175 16.5439 145.171 16.7627ZM158.146 25H156.225V21.2949C156.225 20.5111 156.184 20.0052 156.102 19.7773C156.02 19.5449 155.885 19.3649 155.698 19.2373C155.516 19.1097 155.295 19.0459 155.035 19.0459C154.702 19.0459 154.404 19.137 154.14 19.3193C153.875 19.5016 153.693 19.7432 153.593 20.0439C153.497 20.3447 153.449 20.9007 153.449 21.7119V25H151.528V17.7402H153.312V18.8066C153.946 17.9863 154.743 17.5762 155.705 17.5762C156.129 17.5762 156.516 17.6536 156.867 17.8086C157.218 17.959 157.482 18.1527 157.66 18.3896C157.842 18.6266 157.968 18.8955 158.036 19.1963C158.109 19.4971 158.146 19.9277 158.146 20.4883V25ZM159.923 25.4785L162.117 25.7451C162.154 26.0003 162.238 26.1758 162.37 26.2715C162.552 26.4082 162.84 26.4766 163.231 26.4766C163.733 26.4766 164.109 26.4014 164.359 26.251C164.528 26.1507 164.656 25.9889 164.742 25.7656C164.801 25.6061 164.831 25.3122 164.831 24.8838V23.8242C164.257 24.6081 163.532 25 162.657 25C161.682 25 160.91 24.5876 160.34 23.7627C159.893 23.111 159.67 22.2998 159.67 21.3291C159.67 20.1123 159.962 19.1826 160.545 18.54C161.133 17.8975 161.862 17.5762 162.732 17.5762C163.63 17.5762 164.371 17.9704 164.954 18.7588V17.7402H166.752V24.2549C166.752 25.1117 166.681 25.752 166.54 26.1758C166.399 26.5996 166.201 26.9323 165.945 27.1738C165.69 27.4154 165.348 27.6045 164.92 27.7412C164.496 27.8779 163.958 27.9463 163.307 27.9463C162.076 27.9463 161.203 27.7344 160.688 27.3105C160.174 26.8913 159.916 26.3581 159.916 25.7109C159.916 25.6471 159.918 25.5697 159.923 25.4785ZM161.639 21.2197C161.639 21.9899 161.787 22.555 162.083 22.915C162.384 23.2705 162.753 23.4482 163.19 23.4482C163.66 23.4482 164.056 23.266 164.38 22.9014C164.703 22.5322 164.865 21.9876 164.865 21.2676C164.865 20.5156 164.71 19.9574 164.4 19.5928C164.09 19.2282 163.699 19.0459 163.225 19.0459C162.764 19.0459 162.384 19.2259 162.083 19.5859C161.787 19.9414 161.639 20.486 161.639 21.2197ZM55.0664 41V30.9785H56.4268L61.6904 38.8467V30.9785H62.9619V41H61.6016L56.3379 33.125V41H55.0664ZM64.582 37.3701C64.582 36.0257 64.9557 35.0299 65.7031 34.3828C66.3275 33.8451 67.0885 33.5762 67.9863 33.5762C68.9844 33.5762 69.8001 33.9043 70.4336 34.5605C71.0671 35.2122 71.3838 36.1146 71.3838 37.2676C71.3838 38.2018 71.2425 38.9378 70.96 39.4756C70.682 40.0088 70.2741 40.4235 69.7363 40.7197C69.2031 41.016 68.6198 41.1641 67.9863 41.1641C66.9701 41.1641 66.1475 40.8382 65.5186 40.1865C64.8942 39.5348 64.582 38.596 64.582 37.3701ZM65.8467 37.3701C65.8467 38.2998 66.0495 38.9971 66.4551 39.4619C66.8607 39.9222 67.3711 40.1523 67.9863 40.1523C68.597 40.1523 69.1051 39.9199 69.5107 39.4551C69.9163 38.9902 70.1191 38.2816 70.1191 37.3291C70.1191 36.4313 69.9141 35.7523 69.5039 35.292C69.0983 34.8271 68.5924 34.5947 67.9863 34.5947C67.3711 34.5947 66.8607 34.8249 66.4551 35.2852C66.0495 35.7454 65.8467 36.4404 65.8467 37.3701ZM67.3027 32.8379L68.2119 30.9238H69.8252L68.3213 32.8379H67.3027ZM72.8398 32.3936V30.9785H74.0703V32.3936H72.8398ZM72.8398 41V33.7402H74.0703V41H72.8398ZM79.8535 41V30.9785H81.084V36.6934L83.9961 33.7402H85.5889L82.8135 36.4336L85.8691 41H84.3516L81.9521 37.2881L81.084 38.1221V41H79.8535ZM86.8467 41V30.9785H88.0771V34.5742C88.6514 33.9089 89.376 33.5762 90.251 33.5762C90.7887 33.5762 91.2559 33.6833 91.6523 33.8975C92.0488 34.1071 92.3314 34.3988 92.5 34.7725C92.6732 35.1462 92.7598 35.6885 92.7598 36.3994V41H91.5293V36.3994C91.5293 35.7842 91.3949 35.3376 91.126 35.0596C90.8617 34.777 90.4857 34.6357 89.998 34.6357C89.6335 34.6357 89.2894 34.7314 88.9658 34.9229C88.6468 35.1097 88.4189 35.3649 88.2822 35.6885C88.1455 36.012 88.0771 36.4587 88.0771 37.0283V41H86.8467ZM94.1816 37.3701C94.1816 36.0257 94.5553 35.0299 95.3027 34.3828C95.9271 33.8451 96.6882 33.5762 97.5859 33.5762C98.584 33.5762 99.3997 33.9043 100.033 34.5605C100.667 35.2122 100.983 36.1146 100.983 37.2676C100.983 38.2018 100.842 38.9378 100.56 39.4756C100.282 40.0088 99.8737 40.4235 99.3359 40.7197C98.8027 41.016 98.2194 41.1641 97.5859 41.1641C96.5697 41.1641 95.7471 40.8382 95.1182 40.1865C94.4938 39.5348 94.1816 38.596 94.1816 37.3701ZM95.4463 37.3701C95.4463 38.2998 95.6491 38.9971 96.0547 39.4619C96.4603 39.9222 96.9707 40.1523 97.5859 40.1523C98.1966 40.1523 98.7048 39.9199 99.1104 39.4551C99.516 38.9902 99.7188 38.2816 99.7188 37.3291C99.7188 36.4313 99.5137 35.7523 99.1035 35.292C98.6979 34.8271 98.1921 34.5947 97.5859 34.5947C96.9707 34.5947 96.4603 34.8249 96.0547 35.2852C95.6491 35.7454 95.4463 36.4404 95.4463 37.3701ZM97.5996 31.6758L96.8271 32.8379H95.4189L96.8955 30.9238H98.208L99.7461 32.8379H98.3516L97.5996 31.6758ZM102.433 41V33.7402H103.54V34.7725C104.073 33.9749 104.843 33.5762 105.851 33.5762C106.288 33.5762 106.689 33.6559 107.054 33.8154C107.423 33.9704 107.699 34.1755 107.881 34.4307C108.063 34.6859 108.191 34.9889 108.264 35.3398C108.309 35.5677 108.332 35.9665 108.332 36.5361V41H107.102V36.584C107.102 36.0827 107.054 35.709 106.958 35.4629C106.862 35.2122 106.691 35.014 106.445 34.8682C106.204 34.7178 105.919 34.6426 105.591 34.6426C105.067 34.6426 104.613 34.8089 104.23 35.1416C103.852 35.4743 103.663 36.1055 103.663 37.0352V41H102.433ZM110 41.6016L111.196 41.7793C111.246 42.1484 111.385 42.4173 111.613 42.5859C111.919 42.8138 112.336 42.9277 112.864 42.9277C113.434 42.9277 113.874 42.8138 114.184 42.5859C114.493 42.3581 114.703 42.0391 114.812 41.6289C114.876 41.3783 114.906 40.8519 114.901 40.0498C114.364 40.6833 113.694 41 112.892 41C111.894 41 111.121 40.64 110.574 39.9199C110.027 39.1999 109.754 38.3363 109.754 37.3291C109.754 36.6364 109.879 35.9984 110.13 35.415C110.381 34.8271 110.743 34.3737 111.217 34.0547C111.695 33.7357 112.256 33.5762 112.898 33.5762C113.755 33.5762 114.462 33.9225 115.018 34.6152V33.7402H116.152V40.0156C116.152 41.1458 116.036 41.9456 115.804 42.415C115.576 42.889 115.211 43.2627 114.71 43.5361C114.213 43.8096 113.6 43.9463 112.871 43.9463C112.005 43.9463 111.306 43.7503 110.772 43.3584C110.239 42.971 109.982 42.3854 110 41.6016ZM111.019 37.2402C111.019 38.1927 111.208 38.8877 111.586 39.3252C111.964 39.7627 112.438 39.9814 113.008 39.9814C113.573 39.9814 114.047 39.765 114.43 39.332C114.812 38.8945 115.004 38.2109 115.004 37.2812C115.004 36.3926 114.806 35.7227 114.409 35.2715C114.017 34.8203 113.543 34.5947 112.987 34.5947C112.44 34.5947 111.976 34.818 111.593 35.2646C111.21 35.7067 111.019 36.3652 111.019 37.2402ZM123.932 41L121.17 33.7402H122.469L124.027 38.0879C124.196 38.5573 124.351 39.0449 124.492 39.5508C124.602 39.168 124.754 38.7077 124.95 38.1699L126.563 33.7402H127.828L125.08 41H123.932ZM129.722 37.3701C129.722 38.2679 129.924 38.9629 130.33 39.4551C130.713 39.9199 131.223 40.1523 131.861 40.1523C132.499 40.1523 133.007 39.9199 133.386 39.4551C133.791 38.9583 133.994 38.2497 133.994 37.3291C133.994 36.4587 133.789 35.7796 133.379 35.292C132.996 34.8271 132.49 34.5947 131.861 34.5947C131.219 34.5947 130.708 34.8249 130.33 35.2852C129.924 35.7773 129.722 36.4723 129.722 37.3701ZM135.423 34.9912V33.5625H136.742V34.6904C136.742 35.2555 136.656 35.6885 136.482 35.9893C136.259 36.3812 135.851 36.7412 135.259 37.0693C135.259 37.1331 135.259 37.1992 135.259 37.2676C135.259 38.9629 134.712 40.1136 133.618 40.7197C133.08 41.016 132.495 41.1641 131.861 41.1641C130.822 41.1641 130 40.8382 129.394 40.1865C128.769 39.512 128.457 38.5732 128.457 37.3701C128.457 36.0257 128.831 35.0299 129.578 34.3828C130.202 33.8451 130.964 33.5762 131.861 33.5762C132.859 33.5762 133.675 33.902 134.309 34.5537C134.787 35.0505 135.086 35.6908 135.204 36.4746C135.514 36.2832 135.735 36.085 135.867 35.8799C136.004 35.6748 136.07 35.3786 136.065 34.9912H135.423ZM131.178 32.8379L132.087 30.9238H133.7L132.196 32.8379H131.178ZM138.109 32.3936V30.9785H139.34V32.3936H138.109ZM138.109 41V33.7402H139.34V41H138.109ZM145.116 41V30.9785H146.347V34.5742C146.921 33.9089 147.646 33.5762 148.521 33.5762C149.058 33.5762 149.525 33.6833 149.922 33.8975C150.318 34.1071 150.601 34.3988 150.77 34.7725C150.943 35.1462 151.029 35.6885 151.029 36.3994V41H149.799V36.3994C149.799 35.7842 149.664 35.3376 149.396 35.0596C149.131 34.777 148.755 34.6357 148.268 34.6357C147.903 34.6357 147.559 34.7314 147.235 34.9229C146.916 35.1097 146.688 35.3649 146.552 35.6885C146.415 36.012 146.347 36.4587 146.347 37.0283V41H145.116ZM157.646 40.1045C157.191 40.4919 156.751 40.7653 156.327 40.9248C155.908 41.0843 155.457 41.1641 154.974 41.1641C154.176 41.1641 153.563 40.9704 153.135 40.583C152.706 40.1911 152.492 39.6921 152.492 39.0859C152.492 38.7305 152.572 38.4069 152.731 38.1152C152.896 37.819 153.107 37.582 153.367 37.4043C153.632 37.2266 153.928 37.0921 154.256 37.001C154.497 36.9372 154.862 36.8757 155.35 36.8164C156.343 36.6979 157.075 36.5566 157.544 36.3926C157.549 36.224 157.551 36.1169 157.551 36.0713C157.551 35.57 157.435 35.2168 157.202 35.0117C156.888 34.7337 156.421 34.5947 155.801 34.5947C155.222 34.5947 154.794 34.6973 154.516 34.9023C154.242 35.1029 154.039 35.4606 153.907 35.9756L152.704 35.8115C152.813 35.2965 152.993 34.8818 153.244 34.5674C153.495 34.2484 153.857 34.0046 154.331 33.8359C154.805 33.6628 155.354 33.5762 155.979 33.5762C156.598 33.5762 157.102 33.6491 157.489 33.7949C157.877 33.9408 158.161 34.1253 158.344 34.3486C158.526 34.5674 158.654 34.8454 158.727 35.1826C158.768 35.3923 158.788 35.7705 158.788 36.3174V37.958C158.788 39.1019 158.813 39.8265 158.863 40.1318C158.918 40.4326 159.023 40.722 159.178 41H157.893C157.765 40.7448 157.683 40.4463 157.646 40.1045ZM157.544 37.3564C157.097 37.5387 156.427 37.6937 155.534 37.8213C155.028 37.8942 154.671 37.9762 154.461 38.0674C154.251 38.1585 154.09 38.293 153.976 38.4707C153.862 38.6439 153.805 38.8376 153.805 39.0518C153.805 39.3799 153.928 39.6533 154.174 39.8721C154.424 40.0908 154.789 40.2002 155.268 40.2002C155.742 40.2002 156.163 40.0977 156.532 39.8926C156.901 39.6829 157.173 39.3981 157.346 39.0381C157.478 38.7601 157.544 38.3499 157.544 37.8076V37.3564ZM156.874 32.8379H155.883L154.304 30.9238H155.951L156.874 32.8379ZM160.702 41V33.7402H161.81V34.7725C162.343 33.9749 163.113 33.5762 164.12 33.5762C164.558 33.5762 164.959 33.6559 165.323 33.8154C165.692 33.9704 165.968 34.1755 166.15 34.4307C166.333 34.6859 166.46 34.9889 166.533 35.3398C166.579 35.5677 166.602 35.9665 166.602 36.5361V41H165.371V36.584C165.371 36.0827 165.323 35.709 165.228 35.4629C165.132 35.2122 164.961 35.014 164.715 34.8682C164.473 34.7178 164.188 34.6426 163.86 34.6426C163.336 34.6426 162.883 34.8089 162.5 35.1416C162.122 35.4743 161.933 36.1055 161.933 37.0352V41H160.702ZM168.27 41.6016L169.466 41.7793C169.516 42.1484 169.655 42.4173 169.883 42.5859C170.188 42.8138 170.605 42.9277 171.134 42.9277C171.703 42.9277 172.143 42.8138 172.453 42.5859C172.763 42.3581 172.973 42.0391 173.082 41.6289C173.146 41.3783 173.175 40.8519 173.171 40.0498C172.633 40.6833 171.963 41 171.161 41C170.163 41 169.391 40.64 168.844 39.9199C168.297 39.1999 168.023 38.3363 168.023 37.3291C168.023 36.6364 168.149 35.9984 168.399 35.415C168.65 34.8271 169.012 34.3737 169.486 34.0547C169.965 33.7357 170.525 33.5762 171.168 33.5762C172.025 33.5762 172.731 33.9225 173.287 34.6152V33.7402H174.422V40.0156C174.422 41.1458 174.306 41.9456 174.073 42.415C173.845 42.889 173.481 43.2627 172.979 43.5361C172.483 43.8096 171.87 43.9463 171.141 43.9463C170.275 43.9463 169.575 43.7503 169.042 43.3584C168.509 42.971 168.251 42.3854 168.27 41.6016ZM169.288 37.2402C169.288 38.1927 169.477 38.8877 169.855 39.3252C170.234 39.7627 170.708 39.9814 171.277 39.9814C171.842 39.9814 172.316 39.765 172.699 39.332C173.082 38.8945 173.273 38.2109 173.273 37.2812C173.273 36.3926 173.075 35.7227 172.679 35.2715C172.287 34.8203 171.813 34.5947 171.257 34.5947C170.71 34.5947 170.245 34.818 169.862 35.2646C169.479 35.7067 169.288 36.3652 169.288 37.2402ZM179.959 41.6016L181.155 41.7793C181.205 42.1484 181.344 42.4173 181.572 42.5859C181.878 42.8138 182.295 42.9277 182.823 42.9277C183.393 42.9277 183.833 42.8138 184.143 42.5859C184.452 42.3581 184.662 42.0391 184.771 41.6289C184.835 41.3783 184.865 40.8519 184.86 40.0498C184.323 40.6833 183.653 41 182.851 41C181.853 41 181.08 40.64 180.533 39.9199C179.986 39.1999 179.713 38.3363 179.713 37.3291C179.713 36.6364 179.838 35.9984 180.089 35.415C180.34 34.8271 180.702 34.3737 181.176 34.0547C181.654 33.7357 182.215 33.5762 182.857 33.5762C183.714 33.5762 184.421 33.9225 184.977 34.6152V33.7402H186.111V40.0156C186.111 41.1458 185.995 41.9456 185.763 42.415C185.535 42.889 185.17 43.2627 184.669 43.5361C184.172 43.8096 183.559 43.9463 182.83 43.9463C181.964 43.9463 181.265 43.7503 180.731 43.3584C180.198 42.971 179.941 42.3854 179.959 41.6016ZM180.978 37.2402C180.978 38.1927 181.167 38.8877 181.545 39.3252C181.923 39.7627 182.397 39.9814 182.967 39.9814C183.532 39.9814 184.006 39.765 184.389 39.332C184.771 38.8945 184.963 38.2109 184.963 37.2812C184.963 36.3926 184.765 35.7227 184.368 35.2715C183.976 34.8203 183.502 34.5947 182.946 34.5947C182.399 34.5947 181.935 34.818 181.552 35.2646C181.169 35.7067 180.978 36.3652 180.978 37.2402ZM187.984 32.3936V30.9785H189.215V32.3936H187.984ZM187.984 41V33.7402H189.215V41H187.984ZM195.832 40.1045C195.376 40.4919 194.937 40.7653 194.513 40.9248C194.093 41.0843 193.642 41.1641 193.159 41.1641C192.362 41.1641 191.749 40.9704 191.32 40.583C190.892 40.1911 190.678 39.6921 190.678 39.0859C190.678 38.7305 190.757 38.4069 190.917 38.1152C191.081 37.819 191.293 37.582 191.553 37.4043C191.817 37.2266 192.113 37.0921 192.441 37.001C192.683 36.9372 193.048 36.8757 193.535 36.8164C194.529 36.6979 195.26 36.5566 195.729 36.3926C195.734 36.224 195.736 36.1169 195.736 36.0713C195.736 35.57 195.62 35.2168 195.388 35.0117C195.073 34.7337 194.606 34.5947 193.986 34.5947C193.408 34.5947 192.979 34.6973 192.701 34.9023C192.428 35.1029 192.225 35.4606 192.093 35.9756L190.89 35.8115C190.999 35.2965 191.179 34.8818 191.43 34.5674C191.68 34.2484 192.043 34.0046 192.517 33.8359C192.991 33.6628 193.54 33.5762 194.164 33.5762C194.784 33.5762 195.287 33.6491 195.675 33.7949C196.062 33.9408 196.347 34.1253 196.529 34.3486C196.712 34.5674 196.839 34.8454 196.912 35.1826C196.953 35.3923 196.974 35.7705 196.974 36.3174V37.958C196.974 39.1019 196.999 39.8265 197.049 40.1318C197.104 40.4326 197.208 40.722 197.363 41H196.078C195.951 40.7448 195.868 40.4463 195.832 40.1045ZM195.729 37.3564C195.283 37.5387 194.613 37.6937 193.72 37.8213C193.214 37.8942 192.856 37.9762 192.646 38.0674C192.437 38.1585 192.275 38.293 192.161 38.4707C192.047 38.6439 191.99 38.8376 191.99 39.0518C191.99 39.3799 192.113 39.6533 192.359 39.8721C192.61 40.0908 192.975 40.2002 193.453 40.2002C193.927 40.2002 194.349 40.0977 194.718 39.8926C195.087 39.6829 195.358 39.3981 195.531 39.0381C195.663 38.7601 195.729 38.3499 195.729 37.8076V37.3564ZM193.795 32.0176C194.055 31.9902 194.221 31.9652 194.294 31.9424C194.535 31.8604 194.659 31.7327 194.663 31.5596C194.668 31.4548 194.604 31.3659 194.472 31.293C194.28 31.1882 193.977 31.1357 193.562 31.1357C193.421 31.1357 193.207 31.1449 192.92 31.1631L192.845 30.4658C193.022 30.4294 193.351 30.4134 193.829 30.418C194.39 30.4225 194.848 30.5137 195.203 30.6914C195.595 30.8828 195.796 31.1494 195.805 31.4912C195.823 32.0563 195.408 32.3913 194.561 32.4961V32.8379H193.795V32.0176Z" fill="black"/>
<path d="M318.991 25V14.9785H322.02L323.838 21.8145L325.636 14.9785H328.671V25H326.791V17.1113L324.802 25H322.854L320.871 17.1113V25H318.991ZM330.667 16.7559V14.9785H332.588V16.7559H330.667ZM330.667 25V17.7402H332.588V25H330.667ZM338.768 22.6895L340.682 23.0107C340.436 23.7126 340.046 24.248 339.513 24.6172C338.984 24.9818 338.321 25.1641 337.523 25.1641C336.261 25.1641 335.327 24.7516 334.721 23.9268C334.242 23.266 334.003 22.432 334.003 21.4248C334.003 20.2217 334.317 19.2806 334.946 18.6016C335.575 17.918 336.37 17.5762 337.332 17.5762C338.412 17.5762 339.264 17.9339 339.889 18.6494C340.513 19.3604 340.812 20.4518 340.784 21.9238H335.972C335.985 22.4935 336.14 22.9378 336.437 23.2568C336.733 23.5713 337.102 23.7285 337.544 23.7285C337.845 23.7285 338.098 23.6465 338.303 23.4824C338.508 23.3184 338.663 23.054 338.768 22.6895ZM338.877 20.748C338.863 20.1921 338.72 19.7705 338.446 19.4834C338.173 19.1917 337.84 19.0459 337.448 19.0459C337.029 19.0459 336.683 19.1986 336.409 19.5039C336.136 19.8092 336.001 20.224 336.006 20.748H338.877ZM335.083 16.8242L336.519 14.8076H338.296L339.711 16.8242H338.166L337.373 15.8057L336.635 16.8242H335.083ZM335.192 14.4248C335.188 13.96 335.313 13.584 335.568 13.2969C335.828 13.0098 336.165 12.8662 336.58 12.8662C336.863 12.8662 337.248 12.9893 337.735 13.2354C338.004 13.3721 338.218 13.4404 338.378 13.4404C338.656 13.4404 338.822 13.2422 338.877 12.8457H339.766C339.738 13.8848 339.292 14.4043 338.426 14.4043C338.139 14.4043 337.76 14.2767 337.291 14.0215C336.986 13.8574 336.762 13.7754 336.621 13.7754C336.266 13.7754 336.092 13.9919 336.102 14.4248H335.192ZM348.96 25H347.039V21.2949C347.039 20.5111 346.998 20.0052 346.916 19.7773C346.834 19.5449 346.7 19.3649 346.513 19.2373C346.33 19.1097 346.109 19.0459 345.85 19.0459C345.517 19.0459 345.218 19.137 344.954 19.3193C344.69 19.5016 344.507 19.7432 344.407 20.0439C344.312 20.3447 344.264 20.9007 344.264 21.7119V25H342.343V17.7402H344.127V18.8066C344.76 17.9863 345.558 17.5762 346.52 17.5762C346.943 17.5762 347.331 17.6536 347.682 17.8086C348.033 17.959 348.297 18.1527 348.475 18.3896C348.657 18.6266 348.782 18.8955 348.851 19.1963C348.924 19.4971 348.96 19.9277 348.96 20.4883V25ZM354.757 17.7402H356.548V18.8066C356.78 18.4421 357.095 18.1458 357.491 17.918C357.888 17.6901 358.327 17.5762 358.811 17.5762C359.654 17.5762 360.369 17.9066 360.957 18.5674C361.545 19.2282 361.839 20.1488 361.839 21.3291C361.839 22.5413 361.543 23.4847 360.95 24.1592C360.358 24.8291 359.64 25.1641 358.797 25.1641C358.396 25.1641 358.031 25.0843 357.703 24.9248C357.38 24.7653 357.038 24.4919 356.678 24.1045V27.7617H354.757V17.7402ZM356.657 21.2471C356.657 22.0628 356.819 22.6667 357.143 23.0586C357.466 23.446 357.86 23.6396 358.325 23.6396C358.772 23.6396 359.143 23.4619 359.439 23.1064C359.736 22.7464 359.884 22.1585 359.884 21.3428C359.884 20.5817 359.731 20.0166 359.426 19.6475C359.12 19.2783 358.742 19.0938 358.291 19.0938C357.822 19.0938 357.432 19.276 357.122 19.6406C356.812 20.0007 356.657 20.5361 356.657 21.2471ZM365.284 14.9785V18.6631C365.904 17.9385 366.645 17.5762 367.506 17.5762C367.948 17.5762 368.347 17.6582 368.702 17.8223C369.058 17.9863 369.324 18.196 369.502 18.4512C369.684 18.7064 369.807 18.9889 369.871 19.2988C369.939 19.6087 369.974 20.0895 369.974 20.7412V25H368.053V21.165C368.053 20.404 368.016 19.9209 367.943 19.7158C367.87 19.5107 367.741 19.349 367.554 19.2305C367.371 19.1074 367.141 19.0459 366.863 19.0459C366.544 19.0459 366.259 19.1234 366.009 19.2783C365.758 19.4333 365.574 19.668 365.455 19.9824C365.341 20.2923 365.284 20.7526 365.284 21.3633V25H363.363V14.9785H365.284ZM371.929 25V17.7402H373.85V25H371.929ZM371.785 16.8516L372.729 14.8076H374.882L373.002 16.8516H371.785ZM381.718 25L378.792 17.7402H380.809L382.176 21.4453L382.572 22.6826C382.677 22.3682 382.743 22.1608 382.771 22.0605C382.834 21.8555 382.903 21.6504 382.976 21.4453L384.356 17.7402H386.332L383.447 25H381.718ZM388.95 19.9551L387.207 19.6406C387.403 18.9388 387.74 18.4193 388.219 18.082C388.697 17.7448 389.408 17.5762 390.352 17.5762C391.208 17.5762 391.846 17.6787 392.266 17.8838C392.685 18.0843 392.979 18.3418 393.147 18.6562C393.321 18.9661 393.407 19.5381 393.407 20.3721L393.387 22.6143C393.387 23.2523 393.416 23.724 393.476 24.0293C393.539 24.3301 393.656 24.6536 393.824 25H391.924C391.874 24.8724 391.812 24.6833 391.739 24.4326C391.707 24.3187 391.685 24.2435 391.671 24.207C391.343 24.526 390.992 24.7653 390.618 24.9248C390.244 25.0843 389.846 25.1641 389.422 25.1641C388.674 25.1641 388.084 24.9613 387.651 24.5557C387.223 24.1501 387.009 23.6374 387.009 23.0176C387.009 22.6074 387.107 22.2428 387.303 21.9238C387.499 21.6003 387.772 21.3542 388.123 21.1855C388.479 21.0124 388.989 20.862 389.654 20.7344C390.552 20.5658 391.174 20.4085 391.521 20.2627V20.0713C391.521 19.7021 391.429 19.4401 391.247 19.2852C391.065 19.1257 390.721 19.0459 390.215 19.0459C389.873 19.0459 389.606 19.1143 389.415 19.251C389.224 19.3831 389.069 19.6178 388.95 19.9551ZM391.521 21.5137C391.274 21.5957 390.885 21.6937 390.352 21.8076C389.818 21.9215 389.47 22.0332 389.306 22.1426C389.055 22.3203 388.93 22.5459 388.93 22.8193C388.93 23.0882 389.03 23.3206 389.23 23.5166C389.431 23.7126 389.686 23.8105 389.996 23.8105C390.342 23.8105 390.673 23.6966 390.987 23.4688C391.22 23.2956 391.372 23.0837 391.445 22.833C391.495 22.6689 391.521 22.3568 391.521 21.8965V21.5137ZM388.103 16.8242L389.538 14.8076H391.315L392.73 16.8242H391.186L390.393 15.8057L389.654 16.8242H388.103ZM389.162 27.7412V25.8203H391.083V27.7412H389.162ZM401.911 25H399.99V21.2949C399.99 20.5111 399.949 20.0052 399.867 19.7773C399.785 19.5449 399.651 19.3649 399.464 19.2373C399.282 19.1097 399.061 19.0459 398.801 19.0459C398.468 19.0459 398.17 19.137 397.905 19.3193C397.641 19.5016 397.459 19.7432 397.358 20.0439C397.263 20.3447 397.215 20.9007 397.215 21.7119V25H395.294V17.7402H397.078V18.8066C397.712 17.9863 398.509 17.5762 399.471 17.5762C399.895 17.5762 400.282 17.6536 400.633 17.8086C400.984 17.959 401.248 18.1527 401.426 18.3896C401.608 18.6266 401.733 18.8955 401.802 19.1963C401.875 19.4971 401.911 19.9277 401.911 20.4883V25ZM414.093 19.8867L412.199 20.2285C412.135 19.8503 411.99 19.5654 411.762 19.374C411.538 19.1826 411.247 19.0869 410.887 19.0869C410.408 19.0869 410.025 19.2533 409.738 19.5859C409.456 19.9141 409.314 20.4655 409.314 21.2402C409.314 22.1016 409.458 22.71 409.745 23.0654C410.037 23.4209 410.426 23.5986 410.914 23.5986C411.279 23.5986 411.577 23.4961 411.81 23.291C412.042 23.0814 412.206 22.7236 412.302 22.2178L414.188 22.5391C413.993 23.4049 413.617 24.0589 413.061 24.501C412.505 24.943 411.759 25.1641 410.825 25.1641C409.763 25.1641 408.916 24.8291 408.282 24.1592C407.653 23.4893 407.339 22.5618 407.339 21.377C407.339 20.1784 407.656 19.2464 408.289 18.5811C408.923 17.9111 409.779 17.5762 410.859 17.5762C411.743 17.5762 412.445 17.7676 412.965 18.1504C413.489 18.5286 413.865 19.1074 414.093 19.8867ZM417.47 14.9785V18.6631C418.09 17.9385 418.83 17.5762 419.691 17.5762C420.133 17.5762 420.532 17.6582 420.888 17.8223C421.243 17.9863 421.51 18.196 421.688 18.4512C421.87 18.7064 421.993 18.9889 422.057 19.2988C422.125 19.6087 422.159 20.0895 422.159 20.7412V25H420.238V21.165C420.238 20.404 420.202 19.9209 420.129 19.7158C420.056 19.5107 419.926 19.349 419.739 19.2305C419.557 19.1074 419.327 19.0459 419.049 19.0459C418.73 19.0459 418.445 19.1234 418.194 19.2783C417.944 19.4333 417.759 19.668 417.641 19.9824C417.527 20.2923 417.47 20.7526 417.47 21.3633V25H415.549V14.9785H417.47ZM428.893 25V23.9131C428.628 24.3005 428.28 24.6058 427.847 24.8291C427.418 25.0524 426.965 25.1641 426.486 25.1641C425.999 25.1641 425.561 25.057 425.174 24.8428C424.786 24.6286 424.506 24.3278 424.333 23.9404C424.16 23.5531 424.073 23.0176 424.073 22.334V17.7402H425.994V21.0762C425.994 22.097 426.028 22.7236 426.097 22.9561C426.17 23.1839 426.299 23.3662 426.486 23.5029C426.673 23.6351 426.91 23.7012 427.197 23.7012C427.525 23.7012 427.819 23.6123 428.079 23.4346C428.339 23.2523 428.517 23.029 428.612 22.7646C428.708 22.4958 428.756 21.8418 428.756 20.8027V17.7402H430.677V25H428.893ZM431.764 17.7402H433.808L435.544 22.8945L437.239 17.7402H439.229L436.665 24.7266L436.207 25.9912C436.038 26.415 435.877 26.7386 435.722 26.9619C435.571 27.1852 435.396 27.3652 435.195 27.502C434.999 27.6432 434.756 27.7526 434.464 27.8301C434.177 27.9076 433.851 27.9463 433.486 27.9463C433.117 27.9463 432.755 27.9076 432.399 27.8301L432.229 26.3262C432.529 26.3854 432.8 26.415 433.042 26.415C433.489 26.415 433.819 26.2829 434.033 26.0186C434.247 25.7588 434.411 25.4261 434.525 25.0205L431.764 17.7402ZM444.67 22.6895L446.584 23.0107C446.338 23.7126 445.948 24.248 445.415 24.6172C444.886 24.9818 444.223 25.1641 443.426 25.1641C442.163 25.1641 441.229 24.7516 440.623 23.9268C440.145 23.266 439.905 22.432 439.905 21.4248C439.905 20.2217 440.22 19.2806 440.849 18.6016C441.478 17.918 442.273 17.5762 443.234 17.5762C444.314 17.5762 445.167 17.9339 445.791 18.6494C446.415 19.3604 446.714 20.4518 446.687 21.9238H441.874C441.888 22.4935 442.043 22.9378 442.339 23.2568C442.635 23.5713 443.004 23.7285 443.446 23.7285C443.747 23.7285 444 23.6465 444.205 23.4824C444.41 23.3184 444.565 23.054 444.67 22.6895ZM444.779 20.748C444.766 20.1921 444.622 19.7705 444.349 19.4834C444.075 19.1917 443.743 19.0459 443.351 19.0459C442.931 19.0459 442.585 19.1986 442.312 19.5039C442.038 19.8092 441.904 20.224 441.908 20.748H444.779ZM440.985 16.8242L442.421 14.8076H444.198L445.613 16.8242H444.068L443.275 15.8057L442.537 16.8242H440.985ZM442.893 13.8574C443.152 13.8301 443.319 13.805 443.392 13.7822C443.633 13.723 443.756 13.6182 443.761 13.4678C443.765 13.363 443.701 13.2741 443.569 13.2012C443.378 13.0964 443.075 13.0439 442.66 13.0439C442.519 13.0439 442.305 13.0531 442.018 13.0713L441.942 12.374C442.12 12.3376 442.448 12.3216 442.927 12.3262C443.487 12.3307 443.945 12.4219 444.301 12.5996C444.693 12.791 444.893 13.0576 444.902 13.3994C444.921 13.8734 444.506 14.1628 443.658 14.2676V14.6094H442.893V13.8574ZM454.862 25H452.941V21.2949C452.941 20.5111 452.9 20.0052 452.818 19.7773C452.736 19.5449 452.602 19.3649 452.415 19.2373C452.233 19.1097 452.012 19.0459 451.752 19.0459C451.419 19.0459 451.121 19.137 450.856 19.3193C450.592 19.5016 450.41 19.7432 450.31 20.0439C450.214 20.3447 450.166 20.9007 450.166 21.7119V25H448.245V17.7402H450.029V18.8066C450.663 17.9863 451.46 17.5762 452.422 17.5762C452.846 17.5762 453.233 17.6536 453.584 17.8086C453.935 17.959 454.199 18.1527 454.377 18.3896C454.559 18.6266 454.685 18.8955 454.753 19.1963C454.826 19.4971 454.862 19.9277 454.862 20.4883V25ZM319.08 41V30.9785H322.532C323.312 30.9785 323.906 31.0264 324.316 31.1221C324.891 31.2542 325.381 31.4935 325.786 31.8398C326.315 32.2865 326.709 32.8584 326.969 33.5557C327.233 34.2484 327.365 35.0413 327.365 35.9346C327.365 36.6956 327.276 37.3701 327.099 37.958C326.921 38.5459 326.693 39.0335 326.415 39.4209C326.137 39.8037 325.832 40.1068 325.499 40.3301C325.171 40.5488 324.772 40.7152 324.303 40.8291C323.838 40.943 323.302 41 322.696 41H319.08ZM320.406 39.8174H322.546C323.207 39.8174 323.724 39.7559 324.098 39.6328C324.476 39.5098 324.777 39.3366 325 39.1133C325.314 38.7988 325.558 38.3773 325.731 37.8486C325.909 37.3154 325.998 36.6706 325.998 35.9141C325.998 34.8659 325.825 34.0615 325.479 33.501C325.137 32.9359 324.72 32.5576 324.228 32.3662C323.872 32.2295 323.3 32.1611 322.512 32.1611H320.406V39.8174ZM333.777 40.1045C333.322 40.4919 332.882 40.7653 332.458 40.9248C332.039 41.0843 331.588 41.1641 331.104 41.1641C330.307 41.1641 329.694 40.9704 329.266 40.583C328.837 40.1911 328.623 39.6921 328.623 39.0859C328.623 38.7305 328.703 38.4069 328.862 38.1152C329.026 37.819 329.238 37.582 329.498 37.4043C329.762 37.2266 330.059 37.0921 330.387 37.001C330.628 36.9372 330.993 36.8757 331.48 36.8164C332.474 36.6979 333.205 36.5566 333.675 36.3926C333.679 36.224 333.682 36.1169 333.682 36.0713C333.682 35.57 333.565 35.2168 333.333 35.0117C333.019 34.7337 332.551 34.5947 331.932 34.5947C331.353 34.5947 330.924 34.6973 330.646 34.9023C330.373 35.1029 330.17 35.4606 330.038 35.9756L328.835 35.8115C328.944 35.2965 329.124 34.8818 329.375 34.5674C329.626 34.2484 329.988 34.0046 330.462 33.8359C330.936 33.6628 331.485 33.5762 332.109 33.5762C332.729 33.5762 333.233 33.6491 333.62 33.7949C334.007 33.9408 334.292 34.1253 334.475 34.3486C334.657 34.5674 334.785 34.8454 334.857 35.1826C334.898 35.3923 334.919 35.7705 334.919 36.3174V37.958C334.919 39.1019 334.944 39.8265 334.994 40.1318C335.049 40.4326 335.154 40.722 335.309 41H334.023C333.896 40.7448 333.814 40.4463 333.777 40.1045ZM333.675 37.3564C333.228 37.5387 332.558 37.6937 331.665 37.8213C331.159 37.8942 330.801 37.9762 330.592 38.0674C330.382 38.1585 330.22 38.293 330.106 38.4707C329.993 38.6439 329.936 38.8376 329.936 39.0518C329.936 39.3799 330.059 39.6533 330.305 39.8721C330.555 40.0908 330.92 40.2002 331.398 40.2002C331.872 40.2002 332.294 40.0977 332.663 39.8926C333.032 39.6829 333.303 39.3981 333.477 39.0381C333.609 38.7601 333.675 38.3499 333.675 37.8076V37.3564ZM333.005 32.8379H332.014L330.435 30.9238H332.082L333.005 32.8379ZM336.833 41V33.7402H337.94V34.7725C338.474 33.9749 339.244 33.5762 340.251 33.5762C340.688 33.5762 341.09 33.6559 341.454 33.8154C341.823 33.9704 342.099 34.1755 342.281 34.4307C342.464 34.6859 342.591 34.9889 342.664 35.3398C342.71 35.5677 342.732 35.9665 342.732 36.5361V41H341.502V36.584C341.502 36.0827 341.454 35.709 341.358 35.4629C341.263 35.2122 341.092 35.014 340.846 34.8682C340.604 34.7178 340.319 34.6426 339.991 34.6426C339.467 34.6426 339.014 34.8089 338.631 35.1416C338.253 35.4743 338.063 36.1055 338.063 37.0352V41H336.833ZM344.626 41V30.9785H345.856V34.5742C346.431 33.9089 347.155 33.5762 348.03 33.5762C348.568 33.5762 349.035 33.6833 349.432 33.8975C349.828 34.1071 350.111 34.3988 350.279 34.7725C350.452 35.1462 350.539 35.6885 350.539 36.3994V41H349.309V36.3994C349.309 35.7842 349.174 35.3376 348.905 35.0596C348.641 34.777 348.265 34.6357 347.777 34.6357C347.413 34.6357 347.069 34.7314 346.745 34.9229C346.426 35.1097 346.198 35.3649 346.062 35.6885C345.925 36.012 345.856 36.4587 345.856 37.0283V41H344.626ZM361.053 38.3408L362.263 38.498C362.131 39.332 361.791 39.986 361.244 40.46C360.702 40.9294 360.034 41.1641 359.241 41.1641C358.248 41.1641 357.448 40.8405 356.842 40.1934C356.24 39.5417 355.939 38.6097 355.939 37.3975C355.939 36.6136 356.069 35.9277 356.329 35.3398C356.589 34.752 356.983 34.3122 357.512 34.0205C358.045 33.7243 358.624 33.5762 359.248 33.5762C360.036 33.5762 360.681 33.7767 361.183 34.1777C361.684 34.5742 362.005 35.1393 362.146 35.873L360.95 36.0576C360.836 35.57 360.633 35.2031 360.342 34.957C360.055 34.7109 359.706 34.5879 359.296 34.5879C358.676 34.5879 358.173 34.8112 357.785 35.2578C357.398 35.6999 357.204 36.4017 357.204 37.3633C357.204 38.3385 357.391 39.0472 357.765 39.4893C358.138 39.9313 358.626 40.1523 359.228 40.1523C359.711 40.1523 360.114 40.0042 360.438 39.708C360.761 39.4118 360.966 38.9561 361.053 38.3408ZM363.315 41V30.9785H364.546V34.5742C365.12 33.9089 365.845 33.5762 366.72 33.5762C367.257 33.5762 367.725 33.6833 368.121 33.8975C368.518 34.1071 368.8 34.3988 368.969 34.7725C369.142 35.1462 369.229 35.6885 369.229 36.3994V41H367.998V36.3994C367.998 35.7842 367.864 35.3376 367.595 35.0596C367.33 34.777 366.954 34.6357 366.467 34.6357C366.102 34.6357 365.758 34.7314 365.435 34.9229C365.116 35.1097 364.888 35.3649 364.751 35.6885C364.614 36.012 364.546 36.4587 364.546 37.0283V41H363.315ZM370.65 37.3701C370.65 36.0257 371.024 35.0299 371.771 34.3828C372.396 33.8451 373.157 33.5762 374.055 33.5762C375.053 33.5762 375.868 33.9043 376.502 34.5605C377.135 35.2122 377.452 36.1146 377.452 37.2676C377.452 38.2018 377.311 38.9378 377.028 39.4756C376.75 40.0088 376.342 40.4235 375.805 40.7197C375.271 41.016 374.688 41.1641 374.055 41.1641C373.038 41.1641 372.216 40.8382 371.587 40.1865C370.963 39.5348 370.65 38.596 370.65 37.3701ZM371.915 37.3701C371.915 38.2998 372.118 38.9971 372.523 39.4619C372.929 39.9222 373.439 40.1523 374.055 40.1523C374.665 40.1523 375.174 39.9199 375.579 39.4551C375.985 38.9902 376.188 38.2816 376.188 37.3291C376.188 36.4313 375.982 35.7523 375.572 35.292C375.167 34.8271 374.661 34.5947 374.055 34.5947C373.439 34.5947 372.929 34.8249 372.523 35.2852C372.118 35.7454 371.915 36.4404 371.915 37.3701ZM387.426 32.667H385.061V31.7646H387.426V30.9785H388.649V31.7646H389.641V32.667H388.649V41H387.508V40.084C387.048 40.804 386.371 41.1641 385.478 41.1641C384.899 41.1641 384.366 41.0046 383.878 40.6855C383.395 40.3665 383.019 39.9222 382.75 39.3525C382.486 38.7783 382.354 38.1198 382.354 37.377C382.354 36.6523 382.474 35.9961 382.716 35.4082C382.957 34.8158 383.32 34.3623 383.803 34.0479C384.286 33.7334 384.826 33.5762 385.423 33.5762C385.86 33.5762 386.25 33.6696 386.592 33.8564C386.934 34.0387 387.212 34.278 387.426 34.5742V32.667ZM383.618 37.377C383.618 38.3066 383.814 39.0016 384.206 39.4619C384.598 39.9222 385.061 40.1523 385.594 40.1523C386.132 40.1523 386.587 39.9336 386.961 39.4961C387.339 39.054 387.528 38.3818 387.528 37.4795C387.528 36.486 387.337 35.7568 386.954 35.292C386.571 34.8271 386.1 34.5947 385.539 34.5947C384.992 34.5947 384.534 34.818 384.165 35.2646C383.8 35.7113 383.618 36.4154 383.618 37.377ZM391.397 37.3701C391.397 38.2679 391.6 38.9629 392.006 39.4551C392.389 39.9199 392.899 40.1523 393.537 40.1523C394.175 40.1523 394.683 39.9199 395.062 39.4551C395.467 38.9583 395.67 38.2497 395.67 37.3291C395.67 36.4587 395.465 35.7796 395.055 35.292C394.672 34.8271 394.166 34.5947 393.537 34.5947C392.895 34.5947 392.384 34.8249 392.006 35.2852C391.6 35.7773 391.397 36.4723 391.397 37.3701ZM397.099 34.9912V33.5625H398.418V34.6904C398.418 35.2555 398.331 35.6885 398.158 35.9893C397.935 36.3812 397.527 36.7412 396.935 37.0693C396.935 37.1331 396.935 37.1992 396.935 37.2676C396.935 38.9629 396.388 40.1136 395.294 40.7197C394.756 41.016 394.171 41.1641 393.537 41.1641C392.498 41.1641 391.675 40.8382 391.069 40.1865C390.445 39.512 390.133 38.5732 390.133 37.3701C390.133 36.0257 390.507 35.0299 391.254 34.3828C391.878 33.8451 392.639 33.5762 393.537 33.5762C394.535 33.5762 395.351 33.902 395.984 34.5537C396.463 35.0505 396.761 35.6908 396.88 36.4746C397.19 36.2832 397.411 36.085 397.543 35.8799C397.68 35.6748 397.746 35.3786 397.741 34.9912H397.099ZM399.778 41V33.7402H400.886V34.7725C401.419 33.9749 402.189 33.5762 403.196 33.5762C403.634 33.5762 404.035 33.6559 404.399 33.8154C404.769 33.9704 405.044 34.1755 405.227 34.4307C405.409 34.6859 405.536 34.9889 405.609 35.3398C405.655 35.5677 405.678 35.9665 405.678 36.5361V41H404.447V36.584C404.447 36.0827 404.399 35.709 404.304 35.4629C404.208 35.2122 404.037 35.014 403.791 34.8682C403.549 34.7178 403.265 34.6426 402.937 34.6426C402.412 34.6426 401.959 34.8089 401.576 35.1416C401.198 35.4743 401.009 36.1055 401.009 37.0352V41H399.778ZM411.468 41V30.9785H412.698V34.5742C413.272 33.9089 413.997 33.5762 414.872 33.5762C415.41 33.5762 415.877 33.6833 416.273 33.8975C416.67 34.1071 416.952 34.3988 417.121 34.7725C417.294 35.1462 417.381 35.6885 417.381 36.3994V41H416.15V36.3994C416.15 35.7842 416.016 35.3376 415.747 35.0596C415.483 34.777 415.107 34.6357 414.619 34.6357C414.255 34.6357 413.91 34.7314 413.587 34.9229C413.268 35.1097 413.04 35.3649 412.903 35.6885C412.767 36.012 412.698 36.4587 412.698 37.0283V41H411.468ZM423.998 40.1045C423.542 40.4919 423.103 40.7653 422.679 40.9248C422.259 41.0843 421.808 41.1641 421.325 41.1641C420.528 41.1641 419.915 40.9704 419.486 40.583C419.058 40.1911 418.844 39.6921 418.844 39.0859C418.844 38.7305 418.924 38.4069 419.083 38.1152C419.247 37.819 419.459 37.582 419.719 37.4043C419.983 37.2266 420.279 37.0921 420.607 37.001C420.849 36.9372 421.214 36.8757 421.701 36.8164C422.695 36.6979 423.426 36.5566 423.896 36.3926C423.9 36.224 423.902 36.1169 423.902 36.0713C423.902 35.57 423.786 35.2168 423.554 35.0117C423.239 34.7337 422.772 34.5947 422.152 34.5947C421.574 34.5947 421.145 34.6973 420.867 34.9023C420.594 35.1029 420.391 35.4606 420.259 35.9756L419.056 35.8115C419.165 35.2965 419.345 34.8818 419.596 34.5674C419.846 34.2484 420.209 34.0046 420.683 33.8359C421.157 33.6628 421.706 33.5762 422.33 33.5762C422.95 33.5762 423.453 33.6491 423.841 33.7949C424.228 33.9408 424.513 34.1253 424.695 34.3486C424.878 34.5674 425.005 34.8454 425.078 35.1826C425.119 35.3923 425.14 35.7705 425.14 36.3174V37.958C425.14 39.1019 425.165 39.8265 425.215 40.1318C425.27 40.4326 425.374 40.722 425.529 41H424.244C424.117 40.7448 424.035 40.4463 423.998 40.1045ZM423.896 37.3564C423.449 37.5387 422.779 37.6937 421.886 37.8213C421.38 37.8942 421.022 37.9762 420.812 38.0674C420.603 38.1585 420.441 38.293 420.327 38.4707C420.213 38.6439 420.156 38.8376 420.156 39.0518C420.156 39.3799 420.279 39.6533 420.525 39.8721C420.776 40.0908 421.141 40.2002 421.619 40.2002C422.093 40.2002 422.515 40.0977 422.884 39.8926C423.253 39.6829 423.524 39.3981 423.697 39.0381C423.829 38.7601 423.896 38.3499 423.896 37.8076V37.3564ZM423.226 32.8379H422.234L420.655 30.9238H422.303L423.226 32.8379ZM427.054 41V33.7402H428.161V34.7725C428.694 33.9749 429.465 33.5762 430.472 33.5762C430.909 33.5762 431.31 33.6559 431.675 33.8154C432.044 33.9704 432.32 34.1755 432.502 34.4307C432.684 34.6859 432.812 34.9889 432.885 35.3398C432.93 35.5677 432.953 35.9665 432.953 36.5361V41H431.723V36.584C431.723 36.0827 431.675 35.709 431.579 35.4629C431.483 35.2122 431.312 35.014 431.066 34.8682C430.825 34.7178 430.54 34.6426 430.212 34.6426C429.688 34.6426 429.234 34.8089 428.852 35.1416C428.473 35.4743 428.284 36.1055 428.284 37.0352V41H427.054ZM434.621 41.6016L435.817 41.7793C435.868 42.1484 436.007 42.4173 436.234 42.5859C436.54 42.8138 436.957 42.9277 437.485 42.9277C438.055 42.9277 438.495 42.8138 438.805 42.5859C439.115 42.3581 439.324 42.0391 439.434 41.6289C439.497 41.3783 439.527 40.8519 439.522 40.0498C438.985 40.6833 438.315 41 437.513 41C436.515 41 435.742 40.64 435.195 39.9199C434.648 39.1999 434.375 38.3363 434.375 37.3291C434.375 36.6364 434.5 35.9984 434.751 35.415C435.002 34.8271 435.364 34.3737 435.838 34.0547C436.316 33.7357 436.877 33.5762 437.52 33.5762C438.376 33.5762 439.083 33.9225 439.639 34.6152V33.7402H440.773V40.0156C440.773 41.1458 440.657 41.9456 440.425 42.415C440.197 42.889 439.832 43.2627 439.331 43.5361C438.834 43.8096 438.221 43.9463 437.492 43.9463C436.626 43.9463 435.927 43.7503 435.394 43.3584C434.86 42.971 434.603 42.3854 434.621 41.6016ZM435.64 37.2402C435.64 38.1927 435.829 38.8877 436.207 39.3252C436.585 39.7627 437.059 39.9814 437.629 39.9814C438.194 39.9814 438.668 39.765 439.051 39.332C439.434 38.8945 439.625 38.2109 439.625 37.2812C439.625 36.3926 439.427 35.7227 439.03 35.2715C438.638 34.8203 438.164 34.5947 437.608 34.5947C437.062 34.5947 436.597 34.818 436.214 35.2646C435.831 35.7067 435.64 36.3652 435.64 37.2402ZM449.223 39.8994L449.4 40.9863C449.054 41.0592 448.744 41.0957 448.471 41.0957C448.024 41.0957 447.678 41.0251 447.432 40.8838C447.186 40.7425 447.012 40.5579 446.912 40.3301C446.812 40.0977 446.762 39.6123 446.762 38.874V34.6973H445.859V33.7402H446.762V31.9424L447.985 31.2041V33.7402H449.223V34.6973H447.985V38.9424C447.985 39.2933 448.006 39.5189 448.047 39.6191C448.092 39.7194 448.163 39.7992 448.259 39.8584C448.359 39.9176 448.5 39.9473 448.683 39.9473C448.819 39.9473 448.999 39.9313 449.223 39.8994ZM457.139 35.1689V33.7402H458.458V34.8682C458.458 35.5837 458.376 36.0827 458.212 36.3652C457.793 37.0944 457.152 37.5046 456.291 37.5957V41H455.19V39.9336C454.625 40.7539 453.857 41.1641 452.887 41.1641C452.463 41.1641 452.064 41.0843 451.69 40.9248C451.321 40.7607 451.046 40.5534 450.863 40.3027C450.681 40.0521 450.553 39.7467 450.48 39.3867C450.43 39.1406 450.405 38.7578 450.405 38.2383V33.7402H451.636V37.7666C451.636 38.4183 451.661 38.8512 451.711 39.0654C451.87 39.7581 452.344 40.1045 453.133 40.1045C453.511 40.1045 453.86 40.0088 454.179 39.8174C454.502 39.626 454.73 39.3685 454.862 39.0449C454.994 38.7214 455.061 38.2497 455.061 37.6299V33.7402H456.291V37.0762C456.87 36.9759 457.303 36.7048 457.59 36.2627C457.717 36.0713 457.781 35.7067 457.781 35.1689H457.139ZM454.206 32.8379H453.215L451.636 30.9238H453.283L454.206 32.8379ZM468.001 41H466.771V33.1592C466.474 33.4417 466.085 33.7243 465.602 34.0068C465.123 34.2894 464.692 34.5013 464.31 34.6426V33.4531C464.998 33.1296 465.599 32.7376 466.114 32.2773C466.629 31.8171 466.994 31.3704 467.208 30.9375H468.001V41ZM471.159 36.0576C471.159 34.8727 471.28 33.9202 471.521 33.2002C471.768 32.4756 472.13 31.9173 472.608 31.5254C473.091 31.1335 473.698 30.9375 474.427 30.9375C474.965 30.9375 475.436 31.0469 475.842 31.2656C476.247 31.4798 476.582 31.792 476.847 32.2021C477.111 32.6077 477.318 33.1045 477.469 33.6924C477.619 34.2757 477.694 35.0641 477.694 36.0576C477.694 37.2334 477.574 38.1836 477.332 38.9082C477.09 39.6283 476.728 40.1865 476.245 40.583C475.767 40.9749 475.16 41.1709 474.427 41.1709C473.461 41.1709 472.702 40.8245 472.15 40.1318C471.49 39.2979 471.159 37.9398 471.159 36.0576ZM472.424 36.0576C472.424 37.7028 472.615 38.7988 472.998 39.3457C473.385 39.888 473.862 40.1592 474.427 40.1592C474.992 40.1592 475.466 39.8857 475.849 39.3389C476.236 38.792 476.43 37.6982 476.43 36.0576C476.43 34.4079 476.236 33.3118 475.849 32.7695C475.466 32.2272 474.987 31.9561 474.413 31.9561C473.848 31.9561 473.397 32.1953 473.06 32.6738C472.636 33.2845 472.424 34.4124 472.424 36.0576ZM478.952 36.0576C478.952 34.8727 479.073 33.9202 479.314 33.2002C479.561 32.4756 479.923 31.9173 480.401 31.5254C480.884 31.1335 481.491 30.9375 482.22 30.9375C482.757 30.9375 483.229 31.0469 483.635 31.2656C484.04 31.4798 484.375 31.792 484.64 32.2021C484.904 32.6077 485.111 33.1045 485.262 33.6924C485.412 34.2757 485.487 35.0641 485.487 36.0576C485.487 37.2334 485.367 38.1836 485.125 38.9082C484.883 39.6283 484.521 40.1865 484.038 40.583C483.56 40.9749 482.953 41.1709 482.22 41.1709C481.254 41.1709 480.495 40.8245 479.943 40.1318C479.283 39.2979 478.952 37.9398 478.952 36.0576ZM480.217 36.0576C480.217 37.7028 480.408 38.7988 480.791 39.3457C481.178 39.888 481.655 40.1592 482.22 40.1592C482.785 40.1592 483.259 39.8857 483.642 39.3389C484.029 38.792 484.223 37.6982 484.223 36.0576C484.223 34.4079 484.029 33.3118 483.642 32.7695C483.259 32.2272 482.78 31.9561 482.206 31.9561C481.641 31.9561 481.19 32.1953 480.853 32.6738C480.429 33.2845 480.217 34.4124 480.217 36.0576ZM486.745 36.0576C486.745 34.8727 486.866 33.9202 487.107 33.2002C487.354 32.4756 487.716 31.9173 488.194 31.5254C488.677 31.1335 489.284 30.9375 490.013 30.9375C490.55 30.9375 491.022 31.0469 491.428 31.2656C491.833 31.4798 492.168 31.792 492.433 32.2021C492.697 32.6077 492.904 33.1045 493.055 33.6924C493.205 34.2757 493.28 35.0641 493.28 36.0576C493.28 37.2334 493.16 38.1836 492.918 38.9082C492.676 39.6283 492.314 40.1865 491.831 40.583C491.353 40.9749 490.746 41.1709 490.013 41.1709C489.047 41.1709 488.288 40.8245 487.736 40.1318C487.076 39.2979 486.745 37.9398 486.745 36.0576ZM488.01 36.0576C488.01 37.7028 488.201 38.7988 488.584 39.3457C488.971 39.888 489.448 40.1592 490.013 40.1592C490.578 40.1592 491.052 39.8857 491.435 39.3389C491.822 38.792 492.016 37.6982 492.016 36.0576C492.016 34.4079 491.822 33.3118 491.435 32.7695C491.052 32.2272 490.573 31.9561 489.999 31.9561C489.434 31.9561 488.983 32.1953 488.646 32.6738C488.222 33.2845 488.01 34.4124 488.01 36.0576ZM494.538 36.0576C494.538 34.8727 494.659 33.9202 494.9 33.2002C495.146 32.4756 495.509 31.9173 495.987 31.5254C496.47 31.1335 497.076 30.9375 497.806 30.9375C498.343 30.9375 498.815 31.0469 499.221 31.2656C499.626 31.4798 499.961 31.792 500.226 32.2021C500.49 32.6077 500.697 33.1045 500.848 33.6924C500.998 34.2757 501.073 35.0641 501.073 36.0576C501.073 37.2334 500.952 38.1836 500.711 38.9082C500.469 39.6283 500.107 40.1865 499.624 40.583C499.146 40.9749 498.539 41.1709 497.806 41.1709C496.84 41.1709 496.081 40.8245 495.529 40.1318C494.868 39.2979 494.538 37.9398 494.538 36.0576ZM495.803 36.0576C495.803 37.7028 495.994 38.7988 496.377 39.3457C496.764 39.888 497.241 40.1592 497.806 40.1592C498.371 40.1592 498.845 39.8857 499.228 39.3389C499.615 38.792 499.809 37.6982 499.809 36.0576C499.809 34.4079 499.615 33.3118 499.228 32.7695C498.845 32.2272 498.366 31.9561 497.792 31.9561C497.227 31.9561 496.776 32.1953 496.438 32.6738C496.015 33.2845 495.803 34.4124 495.803 36.0576ZM502.331 36.0576C502.331 34.8727 502.452 33.9202 502.693 33.2002C502.939 32.4756 503.302 31.9173 503.78 31.5254C504.263 31.1335 504.869 30.9375 505.599 30.9375C506.136 30.9375 506.608 31.0469 507.014 31.2656C507.419 31.4798 507.754 31.792 508.019 32.2021C508.283 32.6077 508.49 33.1045 508.641 33.6924C508.791 34.2757 508.866 35.0641 508.866 36.0576C508.866 37.2334 508.745 38.1836 508.504 38.9082C508.262 39.6283 507.9 40.1865 507.417 40.583C506.938 40.9749 506.332 41.1709 505.599 41.1709C504.632 41.1709 503.874 40.8245 503.322 40.1318C502.661 39.2979 502.331 37.9398 502.331 36.0576ZM503.596 36.0576C503.596 37.7028 503.787 38.7988 504.17 39.3457C504.557 39.888 505.034 40.1592 505.599 40.1592C506.164 40.1592 506.638 39.8857 507.021 39.3389C507.408 38.792 507.602 37.6982 507.602 36.0576C507.602 34.4079 507.408 33.3118 507.021 32.7695C506.638 32.2272 506.159 31.9561 505.585 31.9561C505.02 31.9561 504.569 32.1953 504.231 32.6738C503.808 33.2845 503.596 34.4124 503.596 36.0576ZM510.124 36.0576C510.124 34.8727 510.245 33.9202 510.486 33.2002C510.732 32.4756 511.095 31.9173 511.573 31.5254C512.056 31.1335 512.662 30.9375 513.392 30.9375C513.929 30.9375 514.401 31.0469 514.807 31.2656C515.212 31.4798 515.547 31.792 515.812 32.2021C516.076 32.6077 516.283 33.1045 516.434 33.6924C516.584 34.2757 516.659 35.0641 516.659 36.0576C516.659 37.2334 516.538 38.1836 516.297 38.9082C516.055 39.6283 515.693 40.1865 515.21 40.583C514.731 40.9749 514.125 41.1709 513.392 41.1709C512.425 41.1709 511.667 40.8245 511.115 40.1318C510.454 39.2979 510.124 37.9398 510.124 36.0576ZM511.389 36.0576C511.389 37.7028 511.58 38.7988 511.963 39.3457C512.35 39.888 512.826 40.1592 513.392 40.1592C513.957 40.1592 514.431 39.8857 514.813 39.3389C515.201 38.792 515.395 37.6982 515.395 36.0576C515.395 34.4079 515.201 33.3118 514.813 32.7695C514.431 32.2272 513.952 31.9561 513.378 31.9561C512.813 31.9561 512.362 32.1953 512.024 32.6738C511.601 33.2845 511.389 34.4124 511.389 36.0576ZM517.917 36.0576C517.917 34.8727 518.038 33.9202 518.279 33.2002C518.525 32.4756 518.888 31.9173 519.366 31.5254C519.849 31.1335 520.455 30.9375 521.185 30.9375C521.722 30.9375 522.194 31.0469 522.6 31.2656C523.005 31.4798 523.34 31.792 523.604 32.2021C523.869 32.6077 524.076 33.1045 524.227 33.6924C524.377 34.2757 524.452 35.0641 524.452 36.0576C524.452 37.2334 524.331 38.1836 524.09 38.9082C523.848 39.6283 523.486 40.1865 523.003 40.583C522.524 40.9749 521.918 41.1709 521.185 41.1709C520.218 41.1709 519.46 40.8245 518.908 40.1318C518.247 39.2979 517.917 37.9398 517.917 36.0576ZM519.182 36.0576C519.182 37.7028 519.373 38.7988 519.756 39.3457C520.143 39.888 520.619 40.1592 521.185 40.1592C521.75 40.1592 522.224 39.8857 522.606 39.3389C522.994 38.792 523.188 37.6982 523.188 36.0576C523.188 34.4079 522.994 33.3118 522.606 32.7695C522.224 32.2272 521.745 31.9561 521.171 31.9561C520.606 31.9561 520.155 32.1953 519.817 32.6738C519.394 33.2845 519.182 34.4124 519.182 36.0576ZM534.576 32.667H532.211V31.7646H534.576V30.9785H535.8V31.7646H536.791V32.667H535.8V41H534.658V40.084C534.198 40.804 533.521 41.1641 532.628 41.1641C532.049 41.1641 531.516 41.0046 531.028 40.6855C530.545 40.3665 530.169 39.9222 529.9 39.3525C529.636 38.7783 529.504 38.1198 529.504 37.377C529.504 36.6523 529.625 35.9961 529.866 35.4082C530.108 34.8158 530.47 34.3623 530.953 34.0479C531.436 33.7334 531.976 33.5762 532.573 33.5762C533.011 33.5762 533.4 33.6696 533.742 33.8564C534.084 34.0387 534.362 34.278 534.576 34.5742V32.667ZM530.769 37.377C530.769 38.3066 530.965 39.0016 531.356 39.4619C531.748 39.9222 532.211 40.1523 532.744 40.1523C533.282 40.1523 533.738 39.9336 534.111 39.4961C534.49 39.054 534.679 38.3818 534.679 37.4795C534.679 36.486 534.487 35.7568 534.104 35.292C533.722 34.8271 533.25 34.5947 532.689 34.5947C532.143 34.5947 531.685 34.818 531.315 35.2646C530.951 35.7113 530.769 36.4154 530.769 37.377ZM537.283 37.3701C537.283 36.0257 537.657 35.0299 538.404 34.3828C539.029 33.8451 539.79 33.5762 540.688 33.5762C541.686 33.5762 542.501 33.9043 543.135 34.5605C543.768 35.2122 544.085 36.1146 544.085 37.2676C544.085 38.2018 543.944 38.9378 543.661 39.4756C543.383 40.0088 542.975 40.4235 542.438 40.7197C541.904 41.016 541.321 41.1641 540.688 41.1641C539.671 41.1641 538.849 40.8382 538.22 40.1865C537.595 39.5348 537.283 38.596 537.283 37.3701ZM538.548 37.3701C538.548 38.2998 538.751 38.9971 539.156 39.4619C539.562 39.9222 540.072 40.1523 540.688 40.1523C541.298 40.1523 541.806 39.9199 542.212 39.4551C542.618 38.9902 542.82 38.2816 542.82 37.3291C542.82 36.4313 542.615 35.7523 542.205 35.292C541.799 34.8271 541.294 34.5947 540.688 34.5947C540.072 34.5947 539.562 34.8249 539.156 35.2852C538.751 35.7454 538.548 36.4404 538.548 37.3701ZM540.701 31.6758L539.929 32.8379H538.521L539.997 30.9238H541.31L542.848 32.8379H541.453L540.701 31.6758ZM541.31 30.4248H540.318L538.739 28.5107H540.387L541.31 30.4248ZM545.534 41V33.7402H546.642V34.7725C547.175 33.9749 547.945 33.5762 548.952 33.5762C549.39 33.5762 549.791 33.6559 550.155 33.8154C550.524 33.9704 550.8 34.1755 550.982 34.4307C551.165 34.6859 551.292 34.9889 551.365 35.3398C551.411 35.5677 551.434 35.9665 551.434 36.5361V41H550.203V36.584C550.203 36.0827 550.155 35.709 550.06 35.4629C549.964 35.2122 549.793 35.014 549.547 34.8682C549.305 34.7178 549.021 34.6426 548.692 34.6426C548.168 34.6426 547.715 34.8089 547.332 35.1416C546.954 35.4743 546.765 36.1055 546.765 37.0352V41H545.534ZM553.102 41.6016L554.298 41.7793C554.348 42.1484 554.487 42.4173 554.715 42.5859C555.02 42.8138 555.437 42.9277 555.966 42.9277C556.535 42.9277 556.975 42.8138 557.285 42.5859C557.595 42.3581 557.805 42.0391 557.914 41.6289C557.978 41.3783 558.007 40.8519 558.003 40.0498C557.465 40.6833 556.795 41 555.993 41C554.995 41 554.223 40.64 553.676 39.9199C553.129 39.1999 552.855 38.3363 552.855 37.3291C552.855 36.6364 552.981 35.9984 553.231 35.415C553.482 34.8271 553.844 34.3737 554.318 34.0547C554.797 33.7357 555.357 33.5762 556 33.5762C556.857 33.5762 557.563 33.9225 558.119 34.6152V33.7402H559.254V40.0156C559.254 41.1458 559.138 41.9456 558.905 42.415C558.677 42.889 558.313 43.2627 557.812 43.5361C557.315 43.8096 556.702 43.9463 555.973 43.9463C555.107 43.9463 554.407 43.7503 553.874 43.3584C553.341 42.971 553.083 42.3854 553.102 41.6016ZM554.12 37.2402C554.12 38.1927 554.309 38.8877 554.688 39.3252C555.066 39.7627 555.54 39.9814 556.109 39.9814C556.674 39.9814 557.148 39.765 557.531 39.332C557.914 38.8945 558.105 38.2109 558.105 37.2812C558.105 36.3926 557.907 35.7227 557.511 35.2715C557.119 34.8203 556.645 34.5947 556.089 34.5947C555.542 34.5947 555.077 34.818 554.694 35.2646C554.312 35.7067 554.12 36.3652 554.12 37.2402Z" fill="black"/>
<path d="M296.8 17.8828C296.509 17.4484 296.022 17.1875 295.5 17.1875H293.938C293.073 17.1875 292.375 17.8859 292.375 18.75V28.125C292.375 28.9891 293.073 29.6875 293.938 29.6875H300.188C301.052 29.6875 301.75 28.9891 301.75 28.125V25.7812C301.75 25.4734 301.658 25.1703 301.488 24.9141L296.8 17.8828ZM300.188 28.125H293.938V18.75H295.5L300.188 25.7812V28.125Z" fill="#252775"/>
<path d="M307.213 23.9625L300.963 14.5875C300.091 13.2797 298.631 12.5 297.062 12.5H290.812V9.375C290.812 6.79062 288.709 4.6875 286.125 4.6875H262.688C260.103 4.6875 258 6.79062 258 9.375V26.5625C258 29.1469 260.103 31.25 262.688 31.25V35.9375C262.688 38.5219 264.791 40.625 267.375 40.625H269.159C269.858 43.3141 272.284 45.3125 275.189 45.3125C278.091 45.3125 280.517 43.3141 281.216 40.625H289.469C290.167 43.3141 292.594 45.3125 295.498 45.3125C298.4 45.3125 300.827 43.3141 301.525 40.625H303.312C305.897 40.625 308 38.5219 308 35.9375V26.5625C308 25.6344 307.728 24.7344 307.213 23.9625ZM262.688 28.125C261.825 28.125 261.125 27.4266 261.125 26.5625V9.375C261.125 8.51094 261.825 7.8125 262.688 7.8125H286.125C286.989 7.8125 287.688 8.51094 287.688 9.375V12.5V15.625V26.5625C287.688 27.4266 286.989 28.125 286.125 28.125H262.688ZM275.189 42.1875C273.463 42.1875 272.064 40.7875 272.064 39.0625C272.064 37.3375 273.463 35.9375 275.189 35.9375C276.914 35.9375 278.314 37.3375 278.314 39.0625C278.314 40.7875 276.913 42.1875 275.189 42.1875ZM295.5 42.1875C293.773 42.1875 292.375 40.7875 292.375 39.0625C292.375 37.3375 293.773 35.9375 295.5 35.9375C297.225 35.9375 298.625 37.3375 298.625 39.0625C298.625 40.7875 297.225 42.1875 295.5 42.1875ZM304.875 35.9375C304.875 36.8016 304.177 37.5 303.312 37.5H301.527C300.828 34.8109 298.402 32.8125 295.5 32.8125C292.595 32.8125 290.169 34.8109 289.47 37.5H281.217C280.519 34.8109 278.092 32.8125 275.191 32.8125C272.286 32.8125 269.859 34.8109 269.161 37.5H267.375C266.512 37.5 265.812 36.8016 265.812 35.9375V31.25H286.125C288.709 31.25 290.812 29.1469 290.812 26.5625V15.625H297.062C297.584 15.625 298.072 15.8859 298.363 16.3203L304.613 25.6953C304.783 25.9516 304.875 26.2547 304.875 26.5625V35.9375Z" fill="#252775"/>
<path d="M676.025 25V14.9785H678.049V18.9229H682.014V14.9785H684.037V25H682.014V20.6182H678.049V25H676.025ZM685.678 21.2676C685.678 20.6296 685.835 20.012 686.149 19.415C686.464 18.818 686.908 18.3623 687.482 18.0479C688.061 17.7334 688.706 17.5762 689.417 17.5762C690.515 17.5762 691.415 17.9339 692.117 18.6494C692.819 19.3604 693.17 20.2604 693.17 21.3496C693.17 22.4479 692.814 23.3594 692.104 24.084C691.397 24.804 690.506 25.1641 689.431 25.1641C688.765 25.1641 688.13 25.0137 687.523 24.7129C686.922 24.4121 686.464 23.9723 686.149 23.3936C685.835 22.8102 685.678 22.1016 685.678 21.2676ZM687.646 21.3701C687.646 22.0902 687.817 22.6416 688.159 23.0244C688.501 23.4072 688.923 23.5986 689.424 23.5986C689.925 23.5986 690.344 23.4072 690.682 23.0244C691.023 22.6416 691.194 22.0856 691.194 21.3564C691.194 20.6455 691.023 20.0986 690.682 19.7158C690.344 19.333 689.925 19.1416 689.424 19.1416C688.923 19.1416 688.501 19.333 688.159 19.7158C687.817 20.0986 687.646 20.6501 687.646 21.3701ZM687.106 16.8242L688.542 14.8076H690.319L691.734 16.8242H690.189L689.396 15.8057L688.658 16.8242H687.106ZM687.093 14.4248C687.088 13.96 687.214 13.584 687.469 13.2969C687.729 13.0098 688.066 12.8662 688.48 12.8662C688.763 12.8662 689.148 12.9893 689.636 13.2354C689.905 13.3721 690.119 13.4404 690.278 13.4404C690.556 13.4404 690.723 13.2422 690.777 12.8457H691.666C691.639 13.8848 691.192 14.4043 690.326 14.4043C690.039 14.4043 689.661 14.2767 689.191 14.0215C688.886 13.8574 688.663 13.7754 688.521 13.7754C688.166 13.7754 687.993 13.9919 688.002 14.4248H687.093ZM701.906 17.7402V19.2715H700.594V22.1973C700.594 22.7897 700.605 23.1361 700.628 23.2363C700.655 23.332 700.712 23.4118 700.799 23.4756C700.89 23.5394 700.999 23.5713 701.127 23.5713C701.305 23.5713 701.562 23.5098 701.899 23.3867L702.063 24.877C701.617 25.0684 701.111 25.1641 700.546 25.1641C700.2 25.1641 699.887 25.1071 699.609 24.9932C699.331 24.8747 699.126 24.7243 698.994 24.542C698.867 24.3551 698.778 24.1045 698.728 23.79C698.687 23.5667 698.666 23.1156 698.666 22.4365V19.2715H697.784V17.7402H698.666V16.2979L700.594 15.1768V17.7402H701.906ZM705.078 25H703.157V17.7402H704.941V18.7725C705.247 18.2848 705.52 17.9635 705.762 17.8086C706.008 17.6536 706.286 17.5762 706.596 17.5762C707.033 17.5762 707.455 17.6969 707.86 17.9385L707.266 19.6133C706.942 19.4036 706.641 19.2988 706.363 19.2988C706.094 19.2988 705.867 19.374 705.68 19.5244C705.493 19.6702 705.345 19.9368 705.235 20.3242C705.131 20.7116 705.078 21.5228 705.078 22.7578V25ZM710.219 21.3701C710.219 22.0674 710.39 22.6188 710.731 23.0244C711.055 23.4072 711.477 23.5986 711.996 23.5986C712.516 23.5986 712.935 23.4072 713.254 23.0244C713.596 22.6188 713.767 22.0628 713.767 21.3564C713.767 20.6637 713.596 20.1169 713.254 19.7158C712.935 19.333 712.516 19.1416 711.996 19.1416C711.477 19.1416 711.055 19.333 710.731 19.7158C710.39 20.1214 710.219 20.6729 710.219 21.3701ZM715.722 17.7402H717.643V19.1143C717.643 19.6794 717.592 20.1214 717.492 20.4404C717.396 20.7594 717.216 21.0443 716.952 21.2949C716.647 21.5911 716.23 21.8236 715.701 21.9922C715.587 22.8079 715.248 23.5029 714.683 24.0771C713.972 24.8018 713.078 25.1641 712.003 25.1641C711.315 25.1641 710.681 25.0137 710.103 24.7129C709.487 24.3939 709.025 23.9495 708.715 23.3799C708.405 22.8057 708.25 22.1016 708.25 21.2676C708.25 20.6113 708.407 19.9938 708.722 19.415C709.05 18.8089 709.499 18.3509 710.068 18.041C710.638 17.7311 711.278 17.5762 711.989 17.5762C713.088 17.5762 713.988 17.9316 714.689 18.6426C715.323 19.2897 715.672 20.0895 715.735 21.042C716.328 20.8005 716.633 20.3402 716.651 19.6611H715.722V17.7402ZM710.957 27.7412V25.8203H712.878V27.7412H710.957ZM728.621 23.2158V25H721.888C721.961 24.3255 722.179 23.6875 722.544 23.0859C722.909 22.4798 723.629 21.6777 724.704 20.6797C725.57 19.873 726.101 19.3262 726.297 19.0391C726.561 18.6426 726.693 18.2507 726.693 17.8633C726.693 17.4349 726.577 17.1068 726.345 16.8789C726.117 16.6465 725.8 16.5303 725.395 16.5303C724.993 16.5303 724.674 16.651 724.438 16.8926C724.201 17.1341 724.064 17.5352 724.027 18.0957L722.113 17.9043C722.227 16.847 722.585 16.0882 723.187 15.6279C723.788 15.1676 724.54 14.9375 725.442 14.9375C726.431 14.9375 727.208 15.2041 727.773 15.7373C728.339 16.2705 728.621 16.9336 728.621 17.7266C728.621 18.1777 728.539 18.6084 728.375 19.0186C728.215 19.4242 727.96 19.8503 727.609 20.2969C727.377 20.5931 726.958 21.0192 726.352 21.5752C725.745 22.1312 725.36 22.5003 725.196 22.6826C725.037 22.8649 724.907 23.0426 724.807 23.2158H728.621ZM733.693 25V22.9834H729.592V21.3018L733.939 14.9375H735.553V21.2949H736.797V22.9834H735.553V25H733.693ZM733.693 21.2949V17.8701L731.39 21.2949H733.693ZM737.104 25.1709L739.586 14.8076H741.028L738.52 25.1709H737.104ZM748.104 23.2158V25H741.37C741.443 24.3255 741.662 23.6875 742.026 23.0859C742.391 22.4798 743.111 21.6777 744.187 20.6797C745.052 19.873 745.583 19.3262 745.779 19.0391C746.044 18.6426 746.176 18.2507 746.176 17.8633C746.176 17.4349 746.06 17.1068 745.827 16.8789C745.599 16.6465 745.283 16.5303 744.877 16.5303C744.476 16.5303 744.157 16.651 743.92 16.8926C743.683 17.1341 743.546 17.5352 743.51 18.0957L741.596 17.9043C741.71 16.847 742.067 16.0882 742.669 15.6279C743.271 15.1676 744.022 14.9375 744.925 14.9375C745.914 14.9375 746.691 15.2041 747.256 15.7373C747.821 16.2705 748.104 16.9336 748.104 17.7266C748.104 18.1777 748.021 18.6084 747.857 19.0186C747.698 19.4242 747.443 19.8503 747.092 20.2969C746.859 20.5931 746.44 21.0192 745.834 21.5752C745.228 22.1312 744.843 22.5003 744.679 22.6826C744.519 22.8649 744.389 23.0426 744.289 23.2158H748.104ZM753.176 25V22.9834H749.074V21.3018L753.422 14.9375H755.035V21.2949H756.279V22.9834H755.035V25H753.176ZM753.176 21.2949V17.8701L750.872 21.2949H753.176ZM676.025 41V30.9785H677.352V39.8174H682.287V41H676.025ZM688.474 41V39.9336C687.909 40.7539 687.141 41.1641 686.17 41.1641C685.742 41.1641 685.34 41.082 684.967 40.918C684.598 40.7539 684.322 40.5488 684.14 40.3027C683.962 40.0521 683.837 39.7467 683.764 39.3867C683.714 39.1452 683.688 38.7624 683.688 38.2383V33.7402H684.919V37.7666C684.919 38.4092 684.944 38.8421 684.994 39.0654C685.072 39.389 685.236 39.6442 685.486 39.8311C685.737 40.0133 686.047 40.1045 686.416 40.1045C686.785 40.1045 687.132 40.0111 687.455 39.8242C687.779 39.6328 688.007 39.3753 688.139 39.0518C688.275 38.7236 688.344 38.2497 688.344 37.6299V33.7402H689.574V41H688.474ZM691.051 37.3701C691.051 36.0257 691.424 35.0299 692.172 34.3828C692.796 33.8451 693.557 33.5762 694.455 33.5762C695.453 33.5762 696.269 33.9043 696.902 34.5605C697.536 35.2122 697.853 36.1146 697.853 37.2676C697.853 38.2018 697.711 38.9378 697.429 39.4756C697.151 40.0088 696.743 40.4235 696.205 40.7197C695.672 41.016 695.089 41.1641 694.455 41.1641C693.439 41.1641 692.616 40.8382 691.987 40.1865C691.363 39.5348 691.051 38.596 691.051 37.3701ZM692.315 37.3701C692.315 38.2998 692.518 38.9971 692.924 39.4619C693.329 39.9222 693.84 40.1523 694.455 40.1523C695.066 40.1523 695.574 39.9199 695.979 39.4551C696.385 38.9902 696.588 38.2816 696.588 37.3291C696.588 36.4313 696.383 35.7523 695.973 35.292C695.567 34.8271 695.061 34.5947 694.455 34.5947C693.84 34.5947 693.329 34.8249 692.924 35.2852C692.518 35.7454 692.315 36.4404 692.315 37.3701ZM694.469 31.6758L693.696 32.8379H692.288L693.765 30.9238H695.077L696.615 32.8379H695.221L694.469 31.6758ZM699.302 41V33.7402H700.409V34.7725C700.942 33.9749 701.713 33.5762 702.72 33.5762C703.157 33.5762 703.558 33.6559 703.923 33.8154C704.292 33.9704 704.568 34.1755 704.75 34.4307C704.932 34.6859 705.06 34.9889 705.133 35.3398C705.178 35.5677 705.201 35.9665 705.201 36.5361V41H703.971V36.584C703.971 36.0827 703.923 35.709 703.827 35.4629C703.731 35.2122 703.561 35.014 703.314 34.8682C703.073 34.7178 702.788 34.6426 702.46 34.6426C701.936 34.6426 701.482 34.8089 701.1 35.1416C700.721 35.4743 700.532 36.1055 700.532 37.0352V41H699.302ZM710.499 38.833L711.716 38.6416C711.784 39.1292 711.973 39.5029 712.283 39.7627C712.598 40.0225 713.035 40.1523 713.596 40.1523C714.161 40.1523 714.58 40.0384 714.854 39.8105C715.127 39.5781 715.264 39.307 715.264 38.9971C715.264 38.7191 715.143 38.5003 714.901 38.3408C714.733 38.2314 714.313 38.0924 713.644 37.9238C712.741 37.696 712.115 37.5 711.764 37.3359C711.417 37.1673 711.153 36.9372 710.971 36.6455C710.793 36.3493 710.704 36.0234 710.704 35.668C710.704 35.3444 710.777 35.0459 710.923 34.7725C711.073 34.4945 711.276 34.2643 711.531 34.082C711.723 33.9408 711.982 33.8223 712.311 33.7266C712.643 33.6263 712.999 33.5762 713.377 33.5762C713.947 33.5762 714.446 33.6582 714.874 33.8223C715.307 33.9863 715.626 34.2096 715.831 34.4922C716.036 34.7702 716.177 35.1439 716.255 35.6133L715.052 35.7773C714.997 35.4036 714.838 35.112 714.573 34.9023C714.313 34.6927 713.944 34.5879 713.466 34.5879C712.901 34.5879 712.497 34.6813 712.256 34.8682C712.014 35.055 711.894 35.2738 711.894 35.5244C711.894 35.6839 711.944 35.8275 712.044 35.9551C712.144 36.0872 712.301 36.1966 712.516 36.2832C712.639 36.3288 713.001 36.4336 713.603 36.5977C714.473 36.8301 715.079 37.0215 715.421 37.1719C715.767 37.3177 716.038 37.5319 716.234 37.8145C716.43 38.097 716.528 38.4479 716.528 38.8672C716.528 39.2773 716.408 39.6647 716.166 40.0293C715.929 40.3893 715.585 40.6696 715.134 40.8701C714.683 41.0661 714.172 41.1641 713.603 41.1641C712.659 41.1641 711.939 40.9681 711.442 40.5762C710.95 40.1842 710.636 39.6032 710.499 38.833ZM722.729 40.1045C722.273 40.4919 721.833 40.7653 721.409 40.9248C720.99 41.0843 720.539 41.1641 720.056 41.1641C719.258 41.1641 718.645 40.9704 718.217 40.583C717.788 40.1911 717.574 39.6921 717.574 39.0859C717.574 38.7305 717.654 38.4069 717.813 38.1152C717.978 37.819 718.189 37.582 718.449 37.4043C718.714 37.2266 719.01 37.0921 719.338 37.001C719.579 36.9372 719.944 36.8757 720.432 36.8164C721.425 36.6979 722.157 36.5566 722.626 36.3926C722.631 36.224 722.633 36.1169 722.633 36.0713C722.633 35.57 722.517 35.2168 722.284 35.0117C721.97 34.7337 721.503 34.5947 720.883 34.5947C720.304 34.5947 719.876 34.6973 719.598 34.9023C719.324 35.1029 719.121 35.4606 718.989 35.9756L717.786 35.8115C717.896 35.2965 718.076 34.8818 718.326 34.5674C718.577 34.2484 718.939 34.0046 719.413 33.8359C719.887 33.6628 720.436 33.5762 721.061 33.5762C721.68 33.5762 722.184 33.6491 722.571 33.7949C722.959 33.9408 723.243 34.1253 723.426 34.3486C723.608 34.5674 723.736 34.8454 723.809 35.1826C723.85 35.3923 723.87 35.7705 723.87 36.3174V37.958C723.87 39.1019 723.895 39.8265 723.945 40.1318C724 40.4326 724.105 40.722 724.26 41H722.975C722.847 40.7448 722.765 40.4463 722.729 40.1045ZM722.626 37.3564C722.179 37.5387 721.509 37.6937 720.616 37.8213C720.11 37.8942 719.753 37.9762 719.543 38.0674C719.333 38.1585 719.172 38.293 719.058 38.4707C718.944 38.6439 718.887 38.8376 718.887 39.0518C718.887 39.3799 719.01 39.6533 719.256 39.8721C719.507 40.0908 719.871 40.2002 720.35 40.2002C720.824 40.2002 721.245 40.0977 721.614 39.8926C721.983 39.6829 722.255 39.3981 722.428 39.0381C722.56 38.7601 722.626 38.3499 722.626 37.8076V37.3564ZM722.257 30.9922H723.098C723.029 31.5618 722.82 31.9993 722.469 32.3047C722.122 32.61 721.66 32.7627 721.081 32.7627C720.498 32.7627 720.031 32.6123 719.68 32.3115C719.333 32.0062 719.126 31.5664 719.058 30.9922H719.898C719.962 31.3021 720.088 31.5345 720.274 31.6895C720.466 31.8398 720.721 31.915 721.04 31.915C721.409 31.915 721.687 31.8421 721.874 31.6963C722.065 31.5459 722.193 31.3112 722.257 30.9922ZM718.921 30.4248C718.916 29.96 719.042 29.584 719.297 29.2969C719.557 29.0098 719.894 28.8662 720.309 28.8662C720.591 28.8662 720.976 28.9893 721.464 29.2354C721.733 29.3721 721.947 29.4404 722.106 29.4404C722.384 29.4404 722.551 29.2422 722.605 28.8457H723.494C723.467 29.8848 723.02 30.4043 722.154 30.4043C721.867 30.4043 721.489 30.2767 721.02 30.0215C720.714 29.8574 720.491 29.7754 720.35 29.7754C719.994 29.7754 719.821 29.9919 719.83 30.4248H718.921ZM725.784 41V33.7402H726.892V34.7725C727.425 33.9749 728.195 33.5762 729.202 33.5762C729.64 33.5762 730.041 33.6559 730.405 33.8154C730.774 33.9704 731.05 34.1755 731.232 34.4307C731.415 34.6859 731.542 34.9889 731.615 35.3398C731.661 35.5677 731.684 35.9665 731.684 36.5361V41H730.453V36.584C730.453 36.0827 730.405 35.709 730.31 35.4629C730.214 35.2122 730.043 35.014 729.797 34.8682C729.555 34.7178 729.271 34.6426 728.942 34.6426C728.418 34.6426 727.965 34.8089 727.582 35.1416C727.204 35.4743 727.015 36.1055 727.015 37.0352V41H725.784ZM736.981 38.833L738.198 38.6416C738.267 39.1292 738.456 39.5029 738.766 39.7627C739.08 40.0225 739.518 40.1523 740.078 40.1523C740.643 40.1523 741.062 40.0384 741.336 39.8105C741.609 39.5781 741.746 39.307 741.746 38.9971C741.746 38.7191 741.625 38.5003 741.384 38.3408C741.215 38.2314 740.796 38.0924 740.126 37.9238C739.224 37.696 738.597 37.5 738.246 37.3359C737.9 37.1673 737.635 36.9372 737.453 36.6455C737.275 36.3493 737.187 36.0234 737.187 35.668C737.187 35.3444 737.259 35.0459 737.405 34.7725C737.556 34.4945 737.758 34.2643 738.014 34.082C738.205 33.9408 738.465 33.8223 738.793 33.7266C739.126 33.6263 739.481 33.5762 739.859 33.5762C740.429 33.5762 740.928 33.6582 741.356 33.8223C741.789 33.9863 742.108 34.2096 742.313 34.4922C742.519 34.7702 742.66 35.1439 742.737 35.6133L741.534 35.7773C741.479 35.4036 741.32 35.112 741.056 34.9023C740.796 34.6927 740.427 34.5879 739.948 34.5879C739.383 34.5879 738.98 34.6813 738.738 34.8682C738.497 35.055 738.376 35.2738 738.376 35.5244C738.376 35.6839 738.426 35.8275 738.526 35.9551C738.627 36.0872 738.784 36.1966 738.998 36.2832C739.121 36.3288 739.483 36.4336 740.085 36.5977C740.955 36.8301 741.562 37.0215 741.903 37.1719C742.25 37.3177 742.521 37.5319 742.717 37.8145C742.913 38.097 743.011 38.4479 743.011 38.8672C743.011 39.2773 742.89 39.6647 742.648 40.0293C742.411 40.3893 742.067 40.6696 741.616 40.8701C741.165 41.0661 740.655 41.1641 740.085 41.1641C739.142 41.1641 738.422 40.9681 737.925 40.5762C737.433 40.1842 737.118 39.6032 736.981 38.833ZM749.211 40.1045C748.755 40.4919 748.315 40.7653 747.892 40.9248C747.472 41.0843 747.021 41.1641 746.538 41.1641C745.741 41.1641 745.128 40.9704 744.699 40.583C744.271 40.1911 744.057 39.6921 744.057 39.0859C744.057 38.7305 744.136 38.4069 744.296 38.1152C744.46 37.819 744.672 37.582 744.932 37.4043C745.196 37.2266 745.492 37.0921 745.82 37.001C746.062 36.9372 746.426 36.8757 746.914 36.8164C747.908 36.6979 748.639 36.5566 749.108 36.3926C749.113 36.224 749.115 36.1169 749.115 36.0713C749.115 35.57 748.999 35.2168 748.767 35.0117C748.452 34.7337 747.985 34.5947 747.365 34.5947C746.786 34.5947 746.358 34.6973 746.08 34.9023C745.807 35.1029 745.604 35.4606 745.472 35.9756L744.269 35.8115C744.378 35.2965 744.558 34.8818 744.809 34.5674C745.059 34.2484 745.422 34.0046 745.896 33.8359C746.369 33.6628 746.919 33.5762 747.543 33.5762C748.163 33.5762 748.666 33.6491 749.054 33.7949C749.441 33.9408 749.726 34.1253 749.908 34.3486C750.09 34.5674 750.218 34.8454 750.291 35.1826C750.332 35.3923 750.353 35.7705 750.353 36.3174V37.958C750.353 39.1019 750.378 39.8265 750.428 40.1318C750.482 40.4326 750.587 40.722 750.742 41H749.457C749.329 40.7448 749.247 40.4463 749.211 40.1045ZM749.108 37.3564C748.662 37.5387 747.992 37.6937 747.099 37.8213C746.593 37.8942 746.235 37.9762 746.025 38.0674C745.816 38.1585 745.654 38.293 745.54 38.4707C745.426 38.6439 745.369 38.8376 745.369 39.0518C745.369 39.3799 745.492 39.6533 745.738 39.8721C745.989 40.0908 746.354 40.2002 746.832 40.2002C747.306 40.2002 747.728 40.0977 748.097 39.8926C748.466 39.6829 748.737 39.3981 748.91 39.0381C749.042 38.7601 749.108 38.3499 749.108 37.8076V37.3564ZM748.438 32.8379H747.447L745.868 30.9238H747.516L748.438 32.8379ZM752.267 41V33.7402H753.374V34.7725C753.907 33.9749 754.677 33.5762 755.685 33.5762C756.122 33.5762 756.523 33.6559 756.888 33.8154C757.257 33.9704 757.533 34.1755 757.715 34.4307C757.897 34.6859 758.025 34.9889 758.098 35.3398C758.143 35.5677 758.166 35.9665 758.166 36.5361V41H756.936V36.584C756.936 36.0827 756.888 35.709 756.792 35.4629C756.696 35.2122 756.525 35.014 756.279 34.8682C756.038 34.7178 755.753 34.6426 755.425 34.6426C754.901 34.6426 754.447 34.8089 754.064 35.1416C753.686 35.4743 753.497 36.1055 753.497 37.0352V41H752.267ZM759.834 41.6016L761.03 41.7793C761.08 42.1484 761.219 42.4173 761.447 42.5859C761.753 42.8138 762.17 42.9277 762.698 42.9277C763.268 42.9277 763.708 42.8138 764.018 42.5859C764.327 42.3581 764.537 42.0391 764.646 41.6289C764.71 41.3783 764.74 40.8519 764.735 40.0498C764.198 40.6833 763.528 41 762.726 41C761.728 41 760.955 40.64 760.408 39.9199C759.861 39.1999 759.588 38.3363 759.588 37.3291C759.588 36.6364 759.713 35.9984 759.964 35.415C760.215 34.8271 760.577 34.3737 761.051 34.0547C761.529 33.7357 762.09 33.5762 762.732 33.5762C763.589 33.5762 764.296 33.9225 764.852 34.6152V33.7402H765.986V40.0156C765.986 41.1458 765.87 41.9456 765.638 42.415C765.41 42.889 765.045 43.2627 764.544 43.5361C764.047 43.8096 763.434 43.9463 762.705 43.9463C761.839 43.9463 761.14 43.7503 760.606 43.3584C760.073 42.971 759.816 42.3854 759.834 41.6016ZM760.853 37.2402C760.853 38.1927 761.042 38.8877 761.42 39.3252C761.798 39.7627 762.272 39.9814 762.842 39.9814C763.407 39.9814 763.881 39.765 764.264 39.332C764.646 38.8945 764.838 38.2109 764.838 37.2812C764.838 36.3926 764.64 35.7227 764.243 35.2715C763.851 34.8203 763.377 34.5947 762.821 34.5947C762.274 34.5947 761.81 34.818 761.427 35.2646C761.044 35.7067 760.853 36.3652 760.853 37.2402ZM771.749 43.7822V33.7402H772.87V34.6836C773.134 34.3145 773.433 34.0387 773.766 33.8564C774.098 33.6696 774.502 33.5762 774.976 33.5762C775.595 33.5762 776.142 33.7357 776.616 34.0547C777.09 34.3737 777.448 34.8249 777.689 35.4082C777.931 35.987 778.052 36.6227 778.052 37.3154C778.052 38.0583 777.917 38.7282 777.648 39.3252C777.384 39.9176 776.997 40.3734 776.486 40.6924C775.98 41.0068 775.447 41.1641 774.887 41.1641C774.477 41.1641 774.107 41.0775 773.779 40.9043C773.456 40.7311 773.189 40.5124 772.979 40.248V43.7822H771.749ZM772.863 37.4111C772.863 38.3454 773.052 39.0358 773.431 39.4824C773.809 39.929 774.267 40.1523 774.805 40.1523C775.352 40.1523 775.819 39.9222 776.206 39.4619C776.598 38.9971 776.794 38.2793 776.794 37.3086C776.794 36.3835 776.603 35.6908 776.22 35.2305C775.841 34.7702 775.388 34.54 774.859 34.54C774.335 34.54 773.87 34.7861 773.465 35.2783C773.064 35.766 772.863 36.4769 772.863 37.4111ZM779.542 41V30.9785H780.772V34.5742C781.347 33.9089 782.071 33.5762 782.946 33.5762C783.484 33.5762 783.951 33.6833 784.348 33.8975C784.744 34.1071 785.027 34.3988 785.195 34.7725C785.368 35.1462 785.455 35.6885 785.455 36.3994V41H784.225V36.3994C784.225 35.7842 784.09 35.3376 783.821 35.0596C783.557 34.777 783.181 34.6357 782.693 34.6357C782.329 34.6357 781.985 34.7314 781.661 34.9229C781.342 35.1097 781.114 35.3649 780.978 35.6885C780.841 36.012 780.772 36.4587 780.772 37.0283V41H779.542ZM792.093 41V39.9336C791.528 40.7539 790.76 41.1641 789.789 41.1641C789.361 41.1641 788.96 41.082 788.586 40.918C788.217 40.7539 787.941 40.5488 787.759 40.3027C787.581 40.0521 787.456 39.7467 787.383 39.3867C787.333 39.1452 787.308 38.7624 787.308 38.2383V33.7402H788.538V37.7666C788.538 38.4092 788.563 38.8421 788.613 39.0654C788.691 39.389 788.855 39.6442 789.105 39.8311C789.356 40.0133 789.666 40.1045 790.035 40.1045C790.404 40.1045 790.751 40.0111 791.074 39.8242C791.398 39.6328 791.626 39.3753 791.758 39.0518C791.895 38.7236 791.963 38.2497 791.963 37.6299V33.7402H793.193V41H792.093ZM789.324 43.2217V41.8203H790.726V43.2217H789.324ZM799.865 38.3408L801.075 38.498C800.943 39.332 800.604 39.986 800.057 40.46C799.514 40.9294 798.847 41.1641 798.054 41.1641C797.06 41.1641 796.26 40.8405 795.654 40.1934C795.053 39.5417 794.752 38.6097 794.752 37.3975C794.752 36.6136 794.882 35.9277 795.142 35.3398C795.401 34.752 795.796 34.3122 796.324 34.0205C796.857 33.7243 797.436 33.5762 798.061 33.5762C798.849 33.5762 799.494 33.7767 799.995 34.1777C800.496 34.5742 800.818 35.1393 800.959 35.873L799.763 36.0576C799.649 35.57 799.446 35.2031 799.154 34.957C798.867 34.7109 798.519 34.5879 798.108 34.5879C797.489 34.5879 796.985 34.8112 796.598 35.2578C796.21 35.6999 796.017 36.4017 796.017 37.3633C796.017 38.3385 796.203 39.0472 796.577 39.4893C796.951 39.9313 797.438 40.1523 798.04 40.1523C798.523 40.1523 798.926 40.0042 799.25 39.708C799.574 39.4118 799.779 38.9561 799.865 38.3408ZM808.041 41L805.279 33.7402H806.578L808.137 38.0879C808.305 38.5573 808.46 39.0449 808.602 39.5508C808.711 39.168 808.864 38.7077 809.06 38.1699L810.673 33.7402H811.938L809.189 41H808.041ZM817.782 41V39.9336C817.217 40.7539 816.449 41.1641 815.479 41.1641C815.05 41.1641 814.649 41.082 814.275 40.918C813.906 40.7539 813.631 40.5488 813.448 40.3027C813.271 40.0521 813.145 39.7467 813.072 39.3867C813.022 39.1452 812.997 38.7624 812.997 38.2383V33.7402H814.228V37.7666C814.228 38.4092 814.253 38.8421 814.303 39.0654C814.38 39.389 814.544 39.6442 814.795 39.8311C815.046 40.0133 815.355 40.1045 815.725 40.1045C816.094 40.1045 816.44 40.0111 816.764 39.8242C817.087 39.6328 817.315 39.3753 817.447 39.0518C817.584 38.7236 817.652 38.2497 817.652 37.6299V33.7402H818.883V41H817.782ZM815.014 43.2217V41.8203H816.415V43.2217H815.014Z" fill="black"/>
<path d="M639.999 4.16699C628.512 4.16699 619.166 13.5128 619.166 25.0003V33.6316C619.166 35.7649 621.035 37.5003 623.333 37.5003H625.416C625.969 37.5003 626.498 37.2808 626.889 36.8901C627.28 36.4994 627.499 35.9695 627.499 35.417V24.7024C627.499 24.1499 627.28 23.62 626.889 23.2293C626.498 22.8386 625.969 22.6191 625.416 22.6191H623.524C624.683 14.5566 631.62 8.33366 639.999 8.33366C648.379 8.33366 655.316 14.5566 656.474 22.6191H654.583C654.03 22.6191 653.5 22.8386 653.11 23.2293C652.719 23.62 652.499 24.1499 652.499 24.7024V37.5003C652.499 39.7982 650.631 41.667 648.333 41.667H644.166V39.5837H635.833V45.8337H648.333C652.929 45.8337 656.666 42.0962 656.666 37.5003C658.964 37.5003 660.833 35.7649 660.833 33.6316V25.0003C660.833 13.5128 651.487 4.16699 639.999 4.16699Z" fill="#252775"/>
</svg>
